<svg width="12" height="15" viewBox="0 0 12 15" fill="none" xmlns="http://www.w3.org/2000/svg">
<path d="M7.875 6.75V3H9.375V6.75H7.875ZM4.125 11.925C3.6875 11.8 3.32813 11.5563 3.04688 11.1938C2.76562 10.8313 2.625 10.4125 2.625 9.9375V3H4.125V11.925ZM4.6875 15C3.3875 15 2.28125 14.5438 1.36875 13.6313C0.45625 12.7188 0 11.6125 0 10.3125V3.375C0 2.4375 0.328125 1.64063 0.984375 0.984375C1.64063 0.328125 2.4375 0 3.375 0C4.3125 0 5.10938 0.328125 5.76562 0.984375C6.42188 1.64063 6.75 2.4375 6.75 3.375V9H5.25V3.375C5.2375 2.85 5.05313 2.40625 4.69688 2.04375C4.34063 1.68125 3.9 1.5 3.375 1.5C2.85 1.5 2.40625 1.68125 2.04375 2.04375C1.68125 2.40625 1.5 2.85 1.5 3.375V10.3125C1.4875 11.2 1.79375 11.9531 2.41875 12.5719C3.04375 13.1906 3.8 13.5 4.6875 13.5C5 13.5 5.29688 13.4594 5.57812 13.3781C5.85938 13.2969 6.125 13.175 6.375 13.0125V14.6813C6.1125 14.7813 5.84063 14.8594 5.55938 14.9156C5.27813 14.9719 4.9875 15 4.6875 15ZM7.875 14.25V12H5.625V10.5H7.875V8.25H9.375V10.5H11.625V12H9.375V14.25H7.875Z" fill="#2466A8"/>
</svg>
