<svg width="80" height="126" viewBox="0 0 80 126" fill="none" xmlns="http://www.w3.org/2000/svg">
<mask id="path-1-outside-1_19548_16687" maskUnits="userSpaceOnUse" x="-0.905151" y="-1.2749" width="82" height="95" fill="black">
<rect fill="white" x="-0.905151" y="-1.2749" width="82" height="95"/>
<path d="M33.4048 0.400566C23.6517 1.61364 16.0457 5.06977 10.0843 11.0207C4.21419 16.8801 1.13068 23.6779 0.262729 32.7188C0.102843 34.2295 0.0571613 35.6485 0.125684 35.8545C0.262729 36.175 1.29057 36.2207 10.7695 36.2207H21.2991L21.3905 35.6943C21.459 35.4196 21.5732 34.5728 21.6417 33.8175C22.3955 27.0883 26.918 22.1673 34.0215 20.382C35.7574 19.9243 36.6025 19.8556 40.257 19.8785C43.8659 19.8785 44.7567 19.97 46.3098 20.382C54.0529 22.5107 58.3013 28.0038 58.3013 35.9232C58.3013 41.2562 56.7253 44.8496 52.4769 49.084C51.4947 50.0681 50.6268 50.8692 50.5354 50.8692C50.444 50.8692 50.2841 50.6404 50.1471 50.3428C49.6903 49.3586 47.4062 46.5205 46.5154 45.8338C46.0357 45.4676 44.9394 44.9869 44.0943 44.7581C42.6781 44.3918 42.5411 44.3003 42.5411 43.751C42.5411 43.339 42.9066 42.7897 43.706 41.9657C44.3227 41.3248 44.9394 40.7984 45.0536 40.7984C45.1678 40.7984 45.5104 40.3635 45.8302 39.8142C47.0864 37.6627 47.1549 35.1679 45.9901 34.0006C45.6475 33.6344 45.1678 33.0164 44.9394 32.6273C44.277 31.5057 43.2492 31.1166 41.262 31.2311C39.5946 31.3455 38.5668 31.0251 38.11 30.2927C38.0186 30.1553 37.6075 30.0409 37.1963 30.0409C35.666 30.0409 34.8437 31.9406 35.666 33.5657L36.1228 34.4583L35.6432 35.8545C35.0722 37.5711 35.0265 39.86 35.5518 41.1188C35.7574 41.5995 35.9173 42.4235 35.9173 42.9499V43.8883L34.5925 44.2774C32.2399 44.9869 30.4583 47.024 29.065 50.6861C27.6489 54.3254 27.6946 56.1564 29.1564 57.4611L29.933 58.1477L28.8138 60.0474C28.1971 61.1003 27.6946 62.2447 27.6946 62.5652C27.6946 62.9771 27.4205 63.3662 26.7581 63.9156C24.5197 65.7008 21.2306 69.1112 20.6596 70.2098C20.0657 71.3314 20.0429 71.4687 20.0657 75.1308C20.0886 79.9831 20.7509 87.0098 21.2306 87.5363C21.5275 87.8796 21.4362 88.0398 20.1799 89.2758C18.7638 90.672 18.6724 90.8322 18.9237 91.4731C19.0836 91.885 20.2941 91.9537 21.459 91.6333C22.1442 91.4273 22.1899 91.4502 22.2584 92.0224C22.3498 92.8464 23.0579 92.915 25.7303 92.3886C28.494 91.8622 28.9965 91.5875 29.2021 90.5117C29.2934 90.054 29.499 89.3444 29.6589 88.9782C29.933 88.3374 29.9558 88.4518 29.9786 90.2829V92.297H40.3484H50.6953L50.8323 87.994C50.9694 83.0959 51.2891 81.3107 52.4997 78.7929C53.9844 75.6572 55.8116 73.5515 61.3848 68.6305C73.7645 57.6899 77.5104 52.2425 79.4747 42.2861C80.0914 39.1047 80.0457 32.1466 79.3605 28.7363C77.7617 20.7483 73.6046 13.5155 67.9401 8.96078C61.933 4.10847 54.2813 1.1101 45.7617 0.286125C42.6096 -0.0114288 36.3741 0.0343475 33.4048 0.400566ZM38.4298 31.2082C39.2977 31.8948 39.4119 31.9406 40.8052 31.8033C42.6096 31.6431 43.7745 31.9406 44.2998 32.7188C44.5283 33.0393 44.9394 33.5428 45.2135 33.8404C45.5104 34.1608 45.8302 34.5957 45.9672 34.8474C46.2185 35.3281 46.2413 37.4796 45.9901 38.1205C45.853 38.5324 45.8073 38.5324 45.5104 38.1662C45.3277 37.9374 44.9394 37.8229 44.5054 37.8687C43.7973 37.9374 43.7973 37.9374 43.6831 36.6556C43.6146 35.8087 43.409 35.1679 43.1121 34.8474C42.701 34.3897 42.5411 34.3668 40.691 34.527C38.2013 34.7101 37.2877 34.5499 36.5111 33.7717C35.7574 33.0164 35.6889 31.6431 36.3741 30.9564C36.9908 30.3384 37.4019 30.3842 38.4298 31.2082ZM40.3712 35.1908H42.8837L43.0208 36.4496C43.2492 38.3036 43.409 38.5782 44.1628 38.418C45.4876 38.1662 45.8302 39.9515 44.5511 40.4322C44.2085 40.5695 43.843 40.8442 43.7745 41.073C43.5918 41.691 42.0386 42.8126 41.1021 42.9728C40.6225 43.0643 40.257 43.0414 40.2799 42.9499C40.4397 42.0801 39.549 41.897 38.4069 42.5608C37.7445 42.9499 37.7445 42.9499 36.9451 42.1717C36.5111 41.7597 36.0315 41.0502 35.8944 40.6153C35.5518 39.5853 35.7345 36.7929 36.2142 35.6714C36.5796 34.8703 36.6482 34.8017 37.2192 34.9848C37.5846 35.0992 39.0008 35.1908 40.3712 35.1908ZM36.9679 43.4763C36.7395 44.0256 37.1963 43.957 38.1785 43.2932C39.6632 42.309 40.4397 42.4463 39.1835 43.4763C38.7495 43.8196 38.6353 44.0485 38.7952 44.163C39.6175 44.7581 39.6403 46.0398 38.818 46.7265C38.5211 46.9553 38.2927 46.9096 37.539 46.5205C36.7852 46.1543 36.6025 45.9254 36.6025 45.4218C36.6025 45.0785 36.534 44.2316 36.4654 43.545C36.3512 42.3777 36.3741 42.309 36.7167 42.7439C36.8994 42.9957 37.0136 43.3161 36.9679 43.4763ZM41.8559 44.2087C41.8559 44.9183 41.7188 45.2158 41.262 45.582C40.5311 46.1542 39.7545 46.2229 39.9372 45.7194C40.0286 45.5134 39.9601 45.0556 39.8002 44.6665C39.6403 44.3003 39.5718 43.9341 39.6632 43.8425C39.7774 43.7281 40.7595 43.4763 41.696 43.339C41.7874 43.339 41.8559 43.7281 41.8559 44.2087ZM36.1 45.1472C36.1685 45.4905 36.0086 45.8109 35.7345 46.0398C34.9123 46.7036 30.4355 52.9063 30.6867 53.0665C30.8238 53.1352 31.0522 53.0436 31.1892 52.8376C31.3491 52.6545 32.4455 51.1439 33.6332 49.5188C35.0036 47.6649 35.9629 46.5434 36.2142 46.5434C36.7167 46.5205 38.6582 47.6191 38.6582 47.9166C38.6582 48.3286 37.4933 50.7319 36.2599 52.8147C34.6839 55.4927 32.9023 57.4153 31.7374 57.6213C30.7096 57.8273 29.3163 57.1864 28.9051 56.3624C28.4483 55.4469 28.5625 53.7303 29.2021 51.8305C30.4811 47.9853 32.3769 45.4676 34.4554 44.8267C35.8031 44.4147 36.0086 44.4605 36.1 45.1472ZM44.1856 45.2845C45.7617 45.7423 47.1321 46.8409 48.5939 48.9008C50.6724 51.8305 51.2663 54.1651 50.3755 55.7216C49.8273 56.6371 47.4062 58.2164 43.6146 60.1161L40.4626 61.6954L39.549 60.8028C39.0693 60.3221 38.6582 59.8186 38.6582 59.6812C38.681 59.4523 39.9372 58.4681 43.8659 55.6987C45.145 54.806 46.1956 53.9592 46.1956 53.8676C46.1956 53.5472 44.1628 50.8692 43.9115 50.8692C43.5233 50.8692 43.6375 51.121 44.6196 52.3799C45.1221 53.0436 45.4876 53.7074 45.3962 53.8218C45.3277 53.9592 44.0486 54.8976 42.5868 55.9275C39.2749 58.2393 37.9729 59.2921 37.9729 59.6583C37.9729 59.7957 37.5618 60.3221 37.0593 60.8256C36.5796 61.3063 36.0086 62.0387 35.8031 62.4507C35.3462 63.412 35.3462 64.9226 35.8031 65.2889C36.5568 65.9068 35.7117 65.9526 33.8616 65.3804C30.5953 64.3733 27.9915 62.8398 28.2656 62.1303C28.3341 61.9243 28.8823 60.9401 29.4533 59.9788C30.3669 58.3995 30.5725 58.1935 31.1664 58.1935C32.7424 58.1935 34.3184 56.8889 36.1685 54.0049C37.5846 51.8305 39.3662 48.0082 39.1835 47.5504C39.0008 47.024 39.6632 46.5205 40.5083 46.5205C40.9422 46.5205 41.3305 46.2687 41.7874 45.7423C42.13 45.3074 42.5183 44.9412 42.6325 44.9412C42.7467 44.9183 43.4547 45.0785 44.1856 45.2845ZM39.1607 61.2605L39.7774 61.9929L38.7495 63.3205C37.6532 64.7167 36.7624 65.2431 36.237 64.8082C35.7802 64.442 35.8487 63.5951 36.3741 62.5652C36.7852 61.7412 38.0415 60.4594 38.3841 60.5052C38.4754 60.5052 38.818 60.8485 39.1607 61.2605ZM29.5904 64.236C30.9151 65.0142 32.7424 65.7695 34.5011 66.2044L35.4833 66.4562L34.8894 67.4175C32.9936 70.5303 31.4405 74.3297 30.8009 77.5341C30.6182 78.5412 30.2756 80.8987 30.0928 82.7984C29.9101 84.6752 29.636 86.8267 29.499 87.5363L29.2477 88.8409L27.0322 88.7036C25.8216 88.6349 24.8166 88.5434 24.7938 88.5434C24.7024 88.4747 25.3876 77.4654 25.5475 76.0464C25.8445 73.5973 26.4383 72.5216 29.2706 69.2485C30.3213 68.0126 30.8009 67.303 30.6182 67.2115C30.3441 67.0284 29.7731 67.6235 27.3976 70.5532C25.7074 72.6589 25.2506 73.666 24.9765 75.8404C24.7481 77.5341 24.2684 84.6295 24.2684 86.2087V87.0327H22.8295H21.3905L20.9565 81.6998C20.7053 78.7929 20.5225 75.3597 20.5225 74.1008C20.4997 71.3771 20.8652 70.4158 22.5782 68.539C23.7431 67.303 27.923 63.5036 28.1742 63.4807C28.2656 63.4578 28.9051 63.8011 29.5904 64.236ZM24.2684 88.2687C24.2684 88.7036 24.4055 89.0927 24.5425 89.1384C25.0222 89.2987 22.9437 90.6491 21.6417 91.0382C19.0379 91.7935 18.7638 91.3815 20.5911 89.5733C21.3677 88.818 21.9844 88.0856 21.9844 87.9711C21.9844 87.7423 22.6011 87.582 23.6517 87.5134C24.1999 87.4905 24.2684 87.5592 24.2684 88.2687ZM27.6489 89.3216C28.7909 89.3216 28.8366 89.3444 28.8366 89.9395C28.8366 90.6949 28.6539 90.9924 28.0372 91.3128C27.4205 91.6562 23.1721 92.3428 22.898 92.1826C22.5325 91.9537 22.6467 91.6333 23.2863 91.084C23.6289 90.8093 24.2684 90.2371 24.7024 89.8251C25.2506 89.3444 25.6846 89.1384 25.9815 89.2071C26.2327 89.2758 26.9865 89.3216 27.6489 89.3216Z"/>
</mask>
<path d="M33.4048 0.400566C23.6517 1.61364 16.0457 5.06977 10.0843 11.0207C4.21419 16.8801 1.13068 23.6779 0.262729 32.7188C0.102843 34.2295 0.0571613 35.6485 0.125684 35.8545C0.262729 36.175 1.29057 36.2207 10.7695 36.2207H21.2991L21.3905 35.6943C21.459 35.4196 21.5732 34.5728 21.6417 33.8175C22.3955 27.0883 26.918 22.1673 34.0215 20.382C35.7574 19.9243 36.6025 19.8556 40.257 19.8785C43.8659 19.8785 44.7567 19.97 46.3098 20.382C54.0529 22.5107 58.3013 28.0038 58.3013 35.9232C58.3013 41.2562 56.7253 44.8496 52.4769 49.084C51.4947 50.0681 50.6268 50.8692 50.5354 50.8692C50.444 50.8692 50.2841 50.6404 50.1471 50.3428C49.6903 49.3586 47.4062 46.5205 46.5154 45.8338C46.0357 45.4676 44.9394 44.9869 44.0943 44.7581C42.6781 44.3918 42.5411 44.3003 42.5411 43.751C42.5411 43.339 42.9066 42.7897 43.706 41.9657C44.3227 41.3248 44.9394 40.7984 45.0536 40.7984C45.1678 40.7984 45.5104 40.3635 45.8302 39.8142C47.0864 37.6627 47.1549 35.1679 45.9901 34.0006C45.6475 33.6344 45.1678 33.0164 44.9394 32.6273C44.277 31.5057 43.2492 31.1166 41.262 31.2311C39.5946 31.3455 38.5668 31.0251 38.11 30.2927C38.0186 30.1553 37.6075 30.0409 37.1963 30.0409C35.666 30.0409 34.8437 31.9406 35.666 33.5657L36.1228 34.4583L35.6432 35.8545C35.0722 37.5711 35.0265 39.86 35.5518 41.1188C35.7574 41.5995 35.9173 42.4235 35.9173 42.9499V43.8883L34.5925 44.2774C32.2399 44.9869 30.4583 47.024 29.065 50.6861C27.6489 54.3254 27.6946 56.1564 29.1564 57.4611L29.933 58.1477L28.8138 60.0474C28.1971 61.1003 27.6946 62.2447 27.6946 62.5652C27.6946 62.9771 27.4205 63.3662 26.7581 63.9156C24.5197 65.7008 21.2306 69.1112 20.6596 70.2098C20.0657 71.3314 20.0429 71.4687 20.0657 75.1308C20.0886 79.9831 20.7509 87.0098 21.2306 87.5363C21.5275 87.8796 21.4362 88.0398 20.1799 89.2758C18.7638 90.672 18.6724 90.8322 18.9237 91.4731C19.0836 91.885 20.2941 91.9537 21.459 91.6333C22.1442 91.4273 22.1899 91.4502 22.2584 92.0224C22.3498 92.8464 23.0579 92.915 25.7303 92.3886C28.494 91.8622 28.9965 91.5875 29.2021 90.5117C29.2934 90.054 29.499 89.3444 29.6589 88.9782C29.933 88.3374 29.9558 88.4518 29.9786 90.2829V92.297H40.3484H50.6953L50.8323 87.994C50.9694 83.0959 51.2891 81.3107 52.4997 78.7929C53.9844 75.6572 55.8116 73.5515 61.3848 68.6305C73.7645 57.6899 77.5104 52.2425 79.4747 42.2861C80.0914 39.1047 80.0457 32.1466 79.3605 28.7363C77.7617 20.7483 73.6046 13.5155 67.9401 8.96078C61.933 4.10847 54.2813 1.1101 45.7617 0.286125C42.6096 -0.0114288 36.3741 0.0343475 33.4048 0.400566ZM38.4298 31.2082C39.2977 31.8948 39.4119 31.9406 40.8052 31.8033C42.6096 31.6431 43.7745 31.9406 44.2998 32.7188C44.5283 33.0393 44.9394 33.5428 45.2135 33.8404C45.5104 34.1608 45.8302 34.5957 45.9672 34.8474C46.2185 35.3281 46.2413 37.4796 45.9901 38.1205C45.853 38.5324 45.8073 38.5324 45.5104 38.1662C45.3277 37.9374 44.9394 37.8229 44.5054 37.8687C43.7973 37.9374 43.7973 37.9374 43.6831 36.6556C43.6146 35.8087 43.409 35.1679 43.1121 34.8474C42.701 34.3897 42.5411 34.3668 40.691 34.527C38.2013 34.7101 37.2877 34.5499 36.5111 33.7717C35.7574 33.0164 35.6889 31.6431 36.3741 30.9564C36.9908 30.3384 37.4019 30.3842 38.4298 31.2082ZM40.3712 35.1908H42.8837L43.0208 36.4496C43.2492 38.3036 43.409 38.5782 44.1628 38.418C45.4876 38.1662 45.8302 39.9515 44.5511 40.4322C44.2085 40.5695 43.843 40.8442 43.7745 41.073C43.5918 41.691 42.0386 42.8126 41.1021 42.9728C40.6225 43.0643 40.257 43.0414 40.2799 42.9499C40.4397 42.0801 39.549 41.897 38.4069 42.5608C37.7445 42.9499 37.7445 42.9499 36.9451 42.1717C36.5111 41.7597 36.0315 41.0502 35.8944 40.6153C35.5518 39.5853 35.7345 36.7929 36.2142 35.6714C36.5796 34.8703 36.6482 34.8017 37.2192 34.9848C37.5846 35.0992 39.0008 35.1908 40.3712 35.1908ZM36.9679 43.4763C36.7395 44.0256 37.1963 43.957 38.1785 43.2932C39.6632 42.309 40.4397 42.4463 39.1835 43.4763C38.7495 43.8196 38.6353 44.0485 38.7952 44.163C39.6175 44.7581 39.6403 46.0398 38.818 46.7265C38.5211 46.9553 38.2927 46.9096 37.539 46.5205C36.7852 46.1543 36.6025 45.9254 36.6025 45.4218C36.6025 45.0785 36.534 44.2316 36.4654 43.545C36.3512 42.3777 36.3741 42.309 36.7167 42.7439C36.8994 42.9957 37.0136 43.3161 36.9679 43.4763ZM41.8559 44.2087C41.8559 44.9183 41.7188 45.2158 41.262 45.582C40.5311 46.1542 39.7545 46.2229 39.9372 45.7194C40.0286 45.5134 39.9601 45.0556 39.8002 44.6665C39.6403 44.3003 39.5718 43.9341 39.6632 43.8425C39.7774 43.7281 40.7595 43.4763 41.696 43.339C41.7874 43.339 41.8559 43.7281 41.8559 44.2087ZM36.1 45.1472C36.1685 45.4905 36.0086 45.8109 35.7345 46.0398C34.9123 46.7036 30.4355 52.9063 30.6867 53.0665C30.8238 53.1352 31.0522 53.0436 31.1892 52.8376C31.3491 52.6545 32.4455 51.1439 33.6332 49.5188C35.0036 47.6649 35.9629 46.5434 36.2142 46.5434C36.7167 46.5205 38.6582 47.6191 38.6582 47.9166C38.6582 48.3286 37.4933 50.7319 36.2599 52.8147C34.6839 55.4927 32.9023 57.4153 31.7374 57.6213C30.7096 57.8273 29.3163 57.1864 28.9051 56.3624C28.4483 55.4469 28.5625 53.7303 29.2021 51.8305C30.4811 47.9853 32.3769 45.4676 34.4554 44.8267C35.8031 44.4147 36.0086 44.4605 36.1 45.1472ZM44.1856 45.2845C45.7617 45.7423 47.1321 46.8409 48.5939 48.9008C50.6724 51.8305 51.2663 54.1651 50.3755 55.7216C49.8273 56.6371 47.4062 58.2164 43.6146 60.1161L40.4626 61.6954L39.549 60.8028C39.0693 60.3221 38.6582 59.8186 38.6582 59.6812C38.681 59.4523 39.9372 58.4681 43.8659 55.6987C45.145 54.806 46.1956 53.9592 46.1956 53.8676C46.1956 53.5472 44.1628 50.8692 43.9115 50.8692C43.5233 50.8692 43.6375 51.121 44.6196 52.3799C45.1221 53.0436 45.4876 53.7074 45.3962 53.8218C45.3277 53.9592 44.0486 54.8976 42.5868 55.9275C39.2749 58.2393 37.9729 59.2921 37.9729 59.6583C37.9729 59.7957 37.5618 60.3221 37.0593 60.8256C36.5796 61.3063 36.0086 62.0387 35.8031 62.4507C35.3462 63.412 35.3462 64.9226 35.8031 65.2889C36.5568 65.9068 35.7117 65.9526 33.8616 65.3804C30.5953 64.3733 27.9915 62.8398 28.2656 62.1303C28.3341 61.9243 28.8823 60.9401 29.4533 59.9788C30.3669 58.3995 30.5725 58.1935 31.1664 58.1935C32.7424 58.1935 34.3184 56.8889 36.1685 54.0049C37.5846 51.8305 39.3662 48.0082 39.1835 47.5504C39.0008 47.024 39.6632 46.5205 40.5083 46.5205C40.9422 46.5205 41.3305 46.2687 41.7874 45.7423C42.13 45.3074 42.5183 44.9412 42.6325 44.9412C42.7467 44.9183 43.4547 45.0785 44.1856 45.2845ZM39.1607 61.2605L39.7774 61.9929L38.7495 63.3205C37.6532 64.7167 36.7624 65.2431 36.237 64.8082C35.7802 64.442 35.8487 63.5951 36.3741 62.5652C36.7852 61.7412 38.0415 60.4594 38.3841 60.5052C38.4754 60.5052 38.818 60.8485 39.1607 61.2605ZM29.5904 64.236C30.9151 65.0142 32.7424 65.7695 34.5011 66.2044L35.4833 66.4562L34.8894 67.4175C32.9936 70.5303 31.4405 74.3297 30.8009 77.5341C30.6182 78.5412 30.2756 80.8987 30.0928 82.7984C29.9101 84.6752 29.636 86.8267 29.499 87.5363L29.2477 88.8409L27.0322 88.7036C25.8216 88.6349 24.8166 88.5434 24.7938 88.5434C24.7024 88.4747 25.3876 77.4654 25.5475 76.0464C25.8445 73.5973 26.4383 72.5216 29.2706 69.2485C30.3213 68.0126 30.8009 67.303 30.6182 67.2115C30.3441 67.0284 29.7731 67.6235 27.3976 70.5532C25.7074 72.6589 25.2506 73.666 24.9765 75.8404C24.7481 77.5341 24.2684 84.6295 24.2684 86.2087V87.0327H22.8295H21.3905L20.9565 81.6998C20.7053 78.7929 20.5225 75.3597 20.5225 74.1008C20.4997 71.3771 20.8652 70.4158 22.5782 68.539C23.7431 67.303 27.923 63.5036 28.1742 63.4807C28.2656 63.4578 28.9051 63.8011 29.5904 64.236ZM24.2684 88.2687C24.2684 88.7036 24.4055 89.0927 24.5425 89.1384C25.0222 89.2987 22.9437 90.6491 21.6417 91.0382C19.0379 91.7935 18.7638 91.3815 20.5911 89.5733C21.3677 88.818 21.9844 88.0856 21.9844 87.9711C21.9844 87.7423 22.6011 87.582 23.6517 87.5134C24.1999 87.4905 24.2684 87.5592 24.2684 88.2687ZM27.6489 89.3216C28.7909 89.3216 28.8366 89.3444 28.8366 89.9395C28.8366 90.6949 28.6539 90.9924 28.0372 91.3128C27.4205 91.6562 23.1721 92.3428 22.898 92.1826C22.5325 91.9537 22.6467 91.6333 23.2863 91.084C23.6289 90.8093 24.2684 90.2371 24.7024 89.8251C25.2506 89.3444 25.6846 89.1384 25.9815 89.2071C26.2327 89.2758 26.9865 89.3216 27.6489 89.3216Z" fill="#C2CCD6" fill-opacity="0.5"/>
<path d="M33.4048 0.400566C23.6517 1.61364 16.0457 5.06977 10.0843 11.0207C4.21419 16.8801 1.13068 23.6779 0.262729 32.7188C0.102843 34.2295 0.0571613 35.6485 0.125684 35.8545C0.262729 36.175 1.29057 36.2207 10.7695 36.2207H21.2991L21.3905 35.6943C21.459 35.4196 21.5732 34.5728 21.6417 33.8175C22.3955 27.0883 26.918 22.1673 34.0215 20.382C35.7574 19.9243 36.6025 19.8556 40.257 19.8785C43.8659 19.8785 44.7567 19.97 46.3098 20.382C54.0529 22.5107 58.3013 28.0038 58.3013 35.9232C58.3013 41.2562 56.7253 44.8496 52.4769 49.084C51.4947 50.0681 50.6268 50.8692 50.5354 50.8692C50.444 50.8692 50.2841 50.6404 50.1471 50.3428C49.6903 49.3586 47.4062 46.5205 46.5154 45.8338C46.0357 45.4676 44.9394 44.9869 44.0943 44.7581C42.6781 44.3918 42.5411 44.3003 42.5411 43.751C42.5411 43.339 42.9066 42.7897 43.706 41.9657C44.3227 41.3248 44.9394 40.7984 45.0536 40.7984C45.1678 40.7984 45.5104 40.3635 45.8302 39.8142C47.0864 37.6627 47.1549 35.1679 45.9901 34.0006C45.6475 33.6344 45.1678 33.0164 44.9394 32.6273C44.277 31.5057 43.2492 31.1166 41.262 31.2311C39.5946 31.3455 38.5668 31.0251 38.11 30.2927C38.0186 30.1553 37.6075 30.0409 37.1963 30.0409C35.666 30.0409 34.8437 31.9406 35.666 33.5657L36.1228 34.4583L35.6432 35.8545C35.0722 37.5711 35.0265 39.86 35.5518 41.1188C35.7574 41.5995 35.9173 42.4235 35.9173 42.9499V43.8883L34.5925 44.2774C32.2399 44.9869 30.4583 47.024 29.065 50.6861C27.6489 54.3254 27.6946 56.1564 29.1564 57.4611L29.933 58.1477L28.8138 60.0474C28.1971 61.1003 27.6946 62.2447 27.6946 62.5652C27.6946 62.9771 27.4205 63.3662 26.7581 63.9156C24.5197 65.7008 21.2306 69.1112 20.6596 70.2098C20.0657 71.3314 20.0429 71.4687 20.0657 75.1308C20.0886 79.9831 20.7509 87.0098 21.2306 87.5363C21.5275 87.8796 21.4362 88.0398 20.1799 89.2758C18.7638 90.672 18.6724 90.8322 18.9237 91.4731C19.0836 91.885 20.2941 91.9537 21.459 91.6333C22.1442 91.4273 22.1899 91.4502 22.2584 92.0224C22.3498 92.8464 23.0579 92.915 25.7303 92.3886C28.494 91.8622 28.9965 91.5875 29.2021 90.5117C29.2934 90.054 29.499 89.3444 29.6589 88.9782C29.933 88.3374 29.9558 88.4518 29.9786 90.2829V92.297H40.3484H50.6953L50.8323 87.994C50.9694 83.0959 51.2891 81.3107 52.4997 78.7929C53.9844 75.6572 55.8116 73.5515 61.3848 68.6305C73.7645 57.6899 77.5104 52.2425 79.4747 42.2861C80.0914 39.1047 80.0457 32.1466 79.3605 28.7363C77.7617 20.7483 73.6046 13.5155 67.9401 8.96078C61.933 4.10847 54.2813 1.1101 45.7617 0.286125C42.6096 -0.0114288 36.3741 0.0343475 33.4048 0.400566ZM38.4298 31.2082C39.2977 31.8948 39.4119 31.9406 40.8052 31.8033C42.6096 31.6431 43.7745 31.9406 44.2998 32.7188C44.5283 33.0393 44.9394 33.5428 45.2135 33.8404C45.5104 34.1608 45.8302 34.5957 45.9672 34.8474C46.2185 35.3281 46.2413 37.4796 45.9901 38.1205C45.853 38.5324 45.8073 38.5324 45.5104 38.1662C45.3277 37.9374 44.9394 37.8229 44.5054 37.8687C43.7973 37.9374 43.7973 37.9374 43.6831 36.6556C43.6146 35.8087 43.409 35.1679 43.1121 34.8474C42.701 34.3897 42.5411 34.3668 40.691 34.527C38.2013 34.7101 37.2877 34.5499 36.5111 33.7717C35.7574 33.0164 35.6889 31.6431 36.3741 30.9564C36.9908 30.3384 37.4019 30.3842 38.4298 31.2082ZM40.3712 35.1908H42.8837L43.0208 36.4496C43.2492 38.3036 43.409 38.5782 44.1628 38.418C45.4876 38.1662 45.8302 39.9515 44.5511 40.4322C44.2085 40.5695 43.843 40.8442 43.7745 41.073C43.5918 41.691 42.0386 42.8126 41.1021 42.9728C40.6225 43.0643 40.257 43.0414 40.2799 42.9499C40.4397 42.0801 39.549 41.897 38.4069 42.5608C37.7445 42.9499 37.7445 42.9499 36.9451 42.1717C36.5111 41.7597 36.0315 41.0502 35.8944 40.6153C35.5518 39.5853 35.7345 36.7929 36.2142 35.6714C36.5796 34.8703 36.6482 34.8017 37.2192 34.9848C37.5846 35.0992 39.0008 35.1908 40.3712 35.1908ZM36.9679 43.4763C36.7395 44.0256 37.1963 43.957 38.1785 43.2932C39.6632 42.309 40.4397 42.4463 39.1835 43.4763C38.7495 43.8196 38.6353 44.0485 38.7952 44.163C39.6175 44.7581 39.6403 46.0398 38.818 46.7265C38.5211 46.9553 38.2927 46.9096 37.539 46.5205C36.7852 46.1543 36.6025 45.9254 36.6025 45.4218C36.6025 45.0785 36.534 44.2316 36.4654 43.545C36.3512 42.3777 36.3741 42.309 36.7167 42.7439C36.8994 42.9957 37.0136 43.3161 36.9679 43.4763ZM41.8559 44.2087C41.8559 44.9183 41.7188 45.2158 41.262 45.582C40.5311 46.1542 39.7545 46.2229 39.9372 45.7194C40.0286 45.5134 39.9601 45.0556 39.8002 44.6665C39.6403 44.3003 39.5718 43.9341 39.6632 43.8425C39.7774 43.7281 40.7595 43.4763 41.696 43.339C41.7874 43.339 41.8559 43.7281 41.8559 44.2087ZM36.1 45.1472C36.1685 45.4905 36.0086 45.8109 35.7345 46.0398C34.9123 46.7036 30.4355 52.9063 30.6867 53.0665C30.8238 53.1352 31.0522 53.0436 31.1892 52.8376C31.3491 52.6545 32.4455 51.1439 33.6332 49.5188C35.0036 47.6649 35.9629 46.5434 36.2142 46.5434C36.7167 46.5205 38.6582 47.6191 38.6582 47.9166C38.6582 48.3286 37.4933 50.7319 36.2599 52.8147C34.6839 55.4927 32.9023 57.4153 31.7374 57.6213C30.7096 57.8273 29.3163 57.1864 28.9051 56.3624C28.4483 55.4469 28.5625 53.7303 29.2021 51.8305C30.4811 47.9853 32.3769 45.4676 34.4554 44.8267C35.8031 44.4147 36.0086 44.4605 36.1 45.1472ZM44.1856 45.2845C45.7617 45.7423 47.1321 46.8409 48.5939 48.9008C50.6724 51.8305 51.2663 54.1651 50.3755 55.7216C49.8273 56.6371 47.4062 58.2164 43.6146 60.1161L40.4626 61.6954L39.549 60.8028C39.0693 60.3221 38.6582 59.8186 38.6582 59.6812C38.681 59.4523 39.9372 58.4681 43.8659 55.6987C45.145 54.806 46.1956 53.9592 46.1956 53.8676C46.1956 53.5472 44.1628 50.8692 43.9115 50.8692C43.5233 50.8692 43.6375 51.121 44.6196 52.3799C45.1221 53.0436 45.4876 53.7074 45.3962 53.8218C45.3277 53.9592 44.0486 54.8976 42.5868 55.9275C39.2749 58.2393 37.9729 59.2921 37.9729 59.6583C37.9729 59.7957 37.5618 60.3221 37.0593 60.8256C36.5796 61.3063 36.0086 62.0387 35.8031 62.4507C35.3462 63.412 35.3462 64.9226 35.8031 65.2889C36.5568 65.9068 35.7117 65.9526 33.8616 65.3804C30.5953 64.3733 27.9915 62.8398 28.2656 62.1303C28.3341 61.9243 28.8823 60.9401 29.4533 59.9788C30.3669 58.3995 30.5725 58.1935 31.1664 58.1935C32.7424 58.1935 34.3184 56.8889 36.1685 54.0049C37.5846 51.8305 39.3662 48.0082 39.1835 47.5504C39.0008 47.024 39.6632 46.5205 40.5083 46.5205C40.9422 46.5205 41.3305 46.2687 41.7874 45.7423C42.13 45.3074 42.5183 44.9412 42.6325 44.9412C42.7467 44.9183 43.4547 45.0785 44.1856 45.2845ZM39.1607 61.2605L39.7774 61.9929L38.7495 63.3205C37.6532 64.7167 36.7624 65.2431 36.237 64.8082C35.7802 64.442 35.8487 63.5951 36.3741 62.5652C36.7852 61.7412 38.0415 60.4594 38.3841 60.5052C38.4754 60.5052 38.818 60.8485 39.1607 61.2605ZM29.5904 64.236C30.9151 65.0142 32.7424 65.7695 34.5011 66.2044L35.4833 66.4562L34.8894 67.4175C32.9936 70.5303 31.4405 74.3297 30.8009 77.5341C30.6182 78.5412 30.2756 80.8987 30.0928 82.7984C29.9101 84.6752 29.636 86.8267 29.499 87.5363L29.2477 88.8409L27.0322 88.7036C25.8216 88.6349 24.8166 88.5434 24.7938 88.5434C24.7024 88.4747 25.3876 77.4654 25.5475 76.0464C25.8445 73.5973 26.4383 72.5216 29.2706 69.2485C30.3213 68.0126 30.8009 67.303 30.6182 67.2115C30.3441 67.0284 29.7731 67.6235 27.3976 70.5532C25.7074 72.6589 25.2506 73.666 24.9765 75.8404C24.7481 77.5341 24.2684 84.6295 24.2684 86.2087V87.0327H22.8295H21.3905L20.9565 81.6998C20.7053 78.7929 20.5225 75.3597 20.5225 74.1008C20.4997 71.3771 20.8652 70.4158 22.5782 68.539C23.7431 67.303 27.923 63.5036 28.1742 63.4807C28.2656 63.4578 28.9051 63.8011 29.5904 64.236ZM24.2684 88.2687C24.2684 88.7036 24.4055 89.0927 24.5425 89.1384C25.0222 89.2987 22.9437 90.6491 21.6417 91.0382C19.0379 91.7935 18.7638 91.3815 20.5911 89.5733C21.3677 88.818 21.9844 88.0856 21.9844 87.9711C21.9844 87.7423 22.6011 87.582 23.6517 87.5134C24.1999 87.4905 24.2684 87.5592 24.2684 88.2687ZM27.6489 89.3216C28.7909 89.3216 28.8366 89.3444 28.8366 89.9395C28.8366 90.6949 28.6539 90.9924 28.0372 91.3128C27.4205 91.6562 23.1721 92.3428 22.898 92.1826C22.5325 91.9537 22.6467 91.6333 23.2863 91.084C23.6289 90.8093 24.2684 90.2371 24.7024 89.8251C25.2506 89.3444 25.6846 89.1384 25.9815 89.2071C26.2327 89.2758 26.9865 89.3216 27.6489 89.3216Z" stroke="#668099" stroke-opacity="0.5" mask="url(#path-1-outside-1_19548_16687)"/>
<path d="M37.5475 37.2532C37.4562 37.4821 37.5019 37.7568 37.6389 37.8941C37.8216 38.0772 37.9358 38.0543 38.05 37.7568C38.1414 37.5279 38.0957 37.2532 37.9587 37.1159C37.7759 36.9328 37.6617 36.9557 37.5475 37.2532Z" fill="#3D4D5C" fill-opacity="0.3"/>
<path d="M37.9434 38.2451C38.0479 38.2132 38.1188 38.1407 38.166 38.0752C38.2128 38.0101 38.2504 37.932 38.2822 37.8496L38.3203 37.7285C38.3501 37.6064 38.3543 37.4815 38.3369 37.3652C38.3141 37.2125 38.2511 37.0552 38.1357 36.9395C38.0818 36.8854 38.0177 36.8304 37.9443 36.7939C37.8666 36.7554 37.7645 36.732 37.6543 36.7656C37.5499 36.7976 37.4788 36.8691 37.4316 36.9346C37.3847 36.9997 37.3483 37.0785 37.3164 37.1611L37.3154 37.1602C37.2522 37.3186 37.2375 37.4904 37.2607 37.6455C37.2837 37.798 37.3467 37.9548 37.4619 38.0703C37.5159 38.1244 37.5799 38.1794 37.6533 38.2158C37.7311 38.2544 37.8332 38.2787 37.9434 38.2451Z" stroke="#668099" stroke-opacity="0.5" stroke-width="0.5"/>
<path d="M40.8136 37.757C40.4938 38.0775 40.6537 38.5581 41.0648 38.4895C41.2704 38.4437 41.4531 38.2606 41.4531 38.1004C41.4531 37.7342 41.042 37.5282 40.8136 37.757Z" fill="#3D4D5C" fill-opacity="0.3"/>
<path d="M41.106 38.7363L41.1196 38.7334C41.273 38.6991 41.4116 38.6165 41.5132 38.5146C41.6107 38.4169 41.7035 38.2711 41.7036 38.1006C41.7036 37.8186 41.543 37.5934 41.3345 37.4844C41.1258 37.3753 40.8422 37.3737 40.6362 37.5801C40.4177 37.7991 40.3427 38.0972 40.4282 38.3496C40.4712 38.4762 40.5555 38.5904 40.6792 38.6641C40.7726 38.7197 40.8794 38.7468 40.9917 38.7461L41.106 38.7363Z" stroke="#668099" stroke-opacity="0.5" stroke-width="0.5"/>
<path d="M38.9865 40.5258C38.6895 40.8005 38.8266 40.9378 39.5118 40.9836C40.2427 41.0294 40.4483 40.7318 39.8316 40.5029C39.3748 40.3198 39.1692 40.3198 38.9865 40.5258Z" fill="#3D4D5C" fill-opacity="0.3"/>
<path d="M39.4966 41.2334C39.6947 41.2458 39.8693 41.2357 40.0112 41.2041C40.1388 41.1757 40.2956 41.1176 40.3843 40.9863C40.4352 40.9109 40.458 40.818 40.4399 40.7217C40.4232 40.6324 40.3755 40.5616 40.3267 40.5098C40.2326 40.4101 40.0888 40.3334 39.9233 40.2715L39.9243 40.2705C39.6932 40.1779 39.487 40.1142 39.3013 40.1182C39.0986 40.1226 38.9446 40.2074 38.8179 40.3428L38.8169 40.3418C38.7358 40.4168 38.6501 40.5118 38.6108 40.624C38.5893 40.6857 38.5793 40.7607 38.5991 40.8398C38.619 40.9193 38.6633 40.9813 38.7134 41.0264C38.8042 41.1079 38.9293 41.149 39.0435 41.1748C39.1661 41.2025 39.3184 41.2216 39.4956 41.2334H39.4966Z" stroke="#668099" stroke-opacity="0.5" stroke-width="0.5"/>
<path d="M37.1964 100.445C33.7246 101.292 30.1614 104.107 28.6768 107.174C26.1643 112.393 27.1464 118.161 31.2121 122.166C38.0415 128.895 49.3477 126.24 52.5454 117.153C53.322 114.933 53.3677 111.683 52.6368 109.349C51.2663 104.908 47.7717 101.567 43.3406 100.422C41.6732 100.01 39.0008 100.01 37.1964 100.445Z" fill="#3D4D5C" fill-opacity="0.3"/>
</svg>
