<svg width="20" height="20" viewBox="0 0 20 20" fill="none" xmlns="http://www.w3.org/2000/svg">
<path d="M9.99967 9.93734L8.58301 11.0207C8.49967 11.0901 8.41634 11.0936 8.33301 11.0311C8.24967 10.9686 8.2219 10.8887 8.24967 10.7915L8.79134 9.0415L7.33301 7.87484C7.26356 7.80539 7.24273 7.72553 7.27051 7.63525C7.29829 7.54498 7.36079 7.49984 7.45801 7.49984H9.24967L9.79134 5.7915C9.81912 5.69428 9.88856 5.64567 9.99967 5.64567C10.1108 5.64567 10.1802 5.69428 10.208 5.7915L10.7497 7.49984H12.5205C12.6177 7.49984 12.6837 7.54498 12.7184 7.63525C12.7531 7.72553 12.7358 7.80539 12.6663 7.87484L11.1872 9.0415L11.7288 10.7915C11.7566 10.8887 11.7288 10.9686 11.6455 11.0311C11.5622 11.0936 11.4788 11.0901 11.3955 11.0207L9.99967 9.93734ZM9.99967 17.4998L6.10384 18.7915C5.82606 18.8887 5.57259 18.854 5.34342 18.6873C5.11426 18.5207 4.99967 18.2984 4.99967 18.0207V12.729C4.4719 12.1457 4.06217 11.479 3.77051 10.729C3.47884 9.979 3.33301 9.18039 3.33301 8.33317C3.33301 6.47206 3.97884 4.89567 5.27051 3.604C6.56217 2.31234 8.13856 1.6665 9.99967 1.6665C11.8608 1.6665 13.4372 2.31234 14.7288 3.604C16.0205 4.89567 16.6663 6.47206 16.6663 8.33317C16.6663 9.18039 16.5205 9.979 16.2288 10.729C15.9372 11.479 15.5275 12.1457 14.9997 12.729V18.0207C14.9997 18.2984 14.8851 18.5207 14.6559 18.6873C14.4268 18.854 14.1733 18.8887 13.8955 18.7915L9.99967 17.4998ZM9.99967 13.3332C11.3886 13.3332 12.5691 12.8471 13.5413 11.8748C14.5136 10.9026 14.9997 9.72206 14.9997 8.33317C14.9997 6.94428 14.5136 5.76373 13.5413 4.7915C12.5691 3.81928 11.3886 3.33317 9.99967 3.33317C8.61079 3.33317 7.43023 3.81928 6.45801 4.7915C5.48579 5.76373 4.99967 6.94428 4.99967 8.33317C4.99967 9.72206 5.48579 10.9026 6.45801 11.8748C7.43023 12.8471 8.61079 13.3332 9.99967 13.3332ZM6.66634 16.6873L9.99967 15.8332L13.333 16.6873V14.104C12.8469 14.3818 12.3226 14.6005 11.7601 14.7603C11.1976 14.92 10.6108 14.9998 9.99967 14.9998C9.38856 14.9998 8.80176 14.92 8.23926 14.7603C7.67676 14.6005 7.15245 14.3818 6.66634 14.104V16.6873Z" fill="#2B333B"/>
</svg>
