<svg width="23" height="27" viewBox="0 0 23 27" fill="none" xmlns="http://www.w3.org/2000/svg">
<path d="M11.6667 23.3337H11.3333C8.17778 23.3337 5.5 22.2337 3.3 20.0337C1.1 17.8337 0 15.1559 0 12.0003C0 8.84477 1.1 6.16699 3.3 3.96699C5.5 1.76699 8.17778 0.666992 11.3333 0.666992C12.9111 0.666992 14.3833 0.961437 15.75 1.55033C17.1167 2.13921 18.3167 2.95033 19.35 3.98366C20.3833 5.01699 21.1944 6.21699 21.7833 7.58366C22.3722 8.95033 22.6667 10.4225 22.6667 12.0003C22.6667 14.9781 21.8278 17.7448 20.15 20.3003C18.4722 22.8559 16.3556 24.8559 13.8 26.3003C13.5778 26.4114 13.3556 26.4725 13.1333 26.4837C12.9111 26.4948 12.7111 26.4448 12.5333 26.3337C12.3556 26.2225 12.2 26.0781 12.0667 25.9003C11.9333 25.7225 11.8556 25.5114 11.8333 25.267L11.6667 23.3337ZM14.6667 22.467C16.2444 21.1337 17.5278 19.5725 18.5167 17.7837C19.5056 15.9948 20 14.067 20 12.0003C20 9.5781 19.1611 7.5281 17.4833 5.85033C15.8056 4.17255 13.7556 3.33366 11.3333 3.33366C8.91111 3.33366 6.86111 4.17255 5.18333 5.85033C3.50556 7.5281 2.66667 9.5781 2.66667 12.0003C2.66667 14.4225 3.50556 16.4725 5.18333 18.1503C6.86111 19.8281 8.91111 20.667 11.3333 20.667H14.6667V22.467ZM11.3 19.3003C11.6778 19.3003 12 19.167 12.2667 18.9003C12.5333 18.6337 12.6667 18.3114 12.6667 17.9337C12.6667 17.5559 12.5333 17.2337 12.2667 16.967C12 16.7003 11.6778 16.567 11.3 16.567C10.9222 16.567 10.6 16.7003 10.3333 16.967C10.0667 17.2337 9.93333 17.5559 9.93333 17.9337C9.93333 18.3114 10.0667 18.6337 10.3333 18.9003C10.6 19.167 10.9222 19.3003 11.3 19.3003ZM8.4 9.16699C8.64444 9.2781 8.88889 9.28366 9.13333 9.18366C9.37778 9.08366 9.57778 8.92255 9.73333 8.70033C9.93333 8.43366 10.1667 8.2281 10.4333 8.08366C10.7 7.93921 11 7.86699 11.3333 7.86699C11.8667 7.86699 12.3 8.01699 12.6333 8.31699C12.9667 8.61699 13.1333 9.00033 13.1333 9.46699C13.1333 9.75588 13.05 10.0448 12.8833 10.3337C12.7167 10.6225 12.4222 10.9781 12 11.4003C11.4444 11.8892 11.0333 12.3503 10.7667 12.7837C10.5 13.217 10.3667 13.6559 10.3667 14.1003C10.3667 14.367 10.4611 14.5948 10.65 14.7837C10.8389 14.9725 11.0667 15.067 11.3333 15.067C11.6 15.067 11.8222 14.967 12 14.767C12.1778 14.567 12.3111 14.3337 12.4 14.067C12.5111 13.6892 12.7111 13.3448 13 13.0337C13.2889 12.7225 13.5556 12.4448 13.8 12.2003C14.2667 11.7337 14.6167 11.267 14.85 10.8003C15.0833 10.3337 15.2 9.86699 15.2 9.40033C15.2 8.3781 14.85 7.55588 14.15 6.93366C13.45 6.31144 12.5111 6.00033 11.3333 6.00033C10.6222 6.00033 9.96667 6.17255 9.36667 6.51699C8.76667 6.86144 8.27778 7.33366 7.9 7.93366C7.76667 8.1781 7.75 8.41699 7.85 8.65033C7.95 8.88366 8.13333 9.05588 8.4 9.16699Z" fill="white"/>
</svg>
