<svg width="12" height="12" viewBox="0 0 12 12" fill="none" xmlns="http://www.w3.org/2000/svg">
<path d="M5.5126 10.5V9.425C5.07093 9.325 4.68968 9.13333 4.36885 8.85C4.04801 8.56667 3.8126 8.16667 3.6626 7.65L4.5876 7.275C4.7126 7.675 4.89801 7.97917 5.14385 8.1875C5.38968 8.39583 5.7126 8.5 6.1126 8.5C6.45426 8.5 6.74385 8.42292 6.98135 8.26875C7.21885 8.11458 7.3376 7.875 7.3376 7.55C7.3376 7.25833 7.24593 7.02708 7.0626 6.85625C6.87926 6.68542 6.45426 6.49167 5.7876 6.275C5.07093 6.05 4.57926 5.78125 4.3126 5.46875C4.04593 5.15625 3.9126 4.775 3.9126 4.325C3.9126 3.78333 4.0876 3.3625 4.4376 3.0625C4.7876 2.7625 5.14593 2.59167 5.5126 2.55V1.5H6.5126V2.55C6.92926 2.61667 7.27301 2.76875 7.54385 3.00625C7.81468 3.24375 8.0126 3.53333 8.1376 3.875L7.2126 4.275C7.1126 4.00833 6.97093 3.80833 6.7876 3.675C6.60426 3.54167 6.35426 3.475 6.0376 3.475C5.67093 3.475 5.39176 3.55625 5.2001 3.71875C5.00843 3.88125 4.9126 4.08333 4.9126 4.325C4.9126 4.6 5.0376 4.81667 5.2876 4.975C5.5376 5.13333 5.97093 5.3 6.5876 5.475C7.1626 5.64167 7.59801 5.90625 7.89385 6.26875C8.18968 6.63125 8.3376 7.05 8.3376 7.525C8.3376 8.11667 8.1626 8.56667 7.8126 8.875C7.4626 9.18333 7.02926 9.375 6.5126 9.45V10.5H5.5126Z" fill="#2466A8"/>
</svg>
