<svg width="24" height="40" viewBox="0 0 24 40" fill="none" xmlns="http://www.w3.org/2000/svg">
<path fill-rule="evenodd" clip-rule="evenodd" d="M8.125 29.2125C9.34167 29.7375 10.6333 30 12 30V27.95C11.5667 27.35 11.1917 26.725 10.875 26.075C10.5583 25.425 10.3 24.7333 10.1 24H12V22H9.65C9.6 21.6667 9.5625 21.3375 9.5375 21.0125C9.5125 20.6875 9.5 20.35 9.5 20C9.5 19.65 9.5125 19.3125 9.5375 18.9875C9.5625 18.6625 9.6 18.3333 9.65 18H14.35C14.4 18.3333 14.4375 18.6625 14.4625 18.9875C14.4875 19.3125 14.5 19.65 14.5 20H16.5C16.5 19.65 16.4875 19.3125 16.4625 18.9875C16.4375 18.6625 16.4 18.3333 16.35 18H19.75C19.8333 18.3333 19.8958 18.6625 19.9375 18.9875C19.9792 19.3125 20 19.65 20 20H22C22 18.6167 21.7375 17.3208 21.2125 16.1125C20.6875 14.9042 19.9708 13.8458 19.0625 12.9375C18.1542 12.0292 17.0958 11.3125 15.8875 10.7875C14.6792 10.2625 13.3833 10 12 10C10.6333 10 9.34167 10.2625 8.125 10.7875C6.90833 11.3125 5.84583 12.0292 4.9375 12.9375C4.02917 13.8458 3.3125 14.9042 2.7875 16.1125C2.2625 17.3208 2 18.6167 2 20C2 21.3667 2.2625 22.6583 2.7875 23.875C3.3125 25.0917 4.02917 26.1542 4.9375 27.0625C5.84583 27.9708 6.90833 28.6875 8.125 29.2125ZM8.6125 25.8375C8.8375 26.4292 9.1 27 9.4 27.55C8.46667 27.25 7.6375 26.7917 6.9125 26.175C6.1875 25.5583 5.58333 24.8333 5.1 24H8.05C8.2 24.6333 8.3875 25.2458 8.6125 25.8375ZM7.65 22H4.25C4.16667 21.6667 4.10417 21.3375 4.0625 21.0125C4.02083 20.6875 4 20.35 4 20C4 19.65 4.02083 19.3125 4.0625 18.9875C4.10417 18.6625 4.16667 18.3333 4.25 18H7.65C7.6 18.3333 7.5625 18.6625 7.5375 18.9875C7.5125 19.3125 7.5 19.65 7.5 20C7.5 20.35 7.5125 20.6875 7.5375 21.0125C7.5625 21.3375 7.6 21.6667 7.65 22ZM18.9 16H15.95C15.8 15.3667 15.6125 14.7542 15.3875 14.1625C15.1625 13.5708 14.9 13 14.6 12.45C15.5333 12.75 16.3625 13.2083 17.0875 13.825C17.8125 14.4417 18.4167 15.1667 18.9 16ZM13.125 13.925C13.4417 14.575 13.7 15.2667 13.9 16H10.1C10.3 15.2667 10.5583 14.575 10.875 13.925C11.1917 13.275 11.5667 12.65 12 12.05C12.4333 12.65 12.8083 13.275 13.125 13.925ZM8.05 16H5.1C5.58333 15.1667 6.1875 14.4417 6.9125 13.825C7.6375 13.2083 8.46667 12.75 9.4 12.45C9.1 13 8.8375 13.5708 8.6125 14.1625C8.3875 14.7542 8.2 15.3667 8.05 16Z" fill="#6C8093"/>
<path d="M17.8 21.8C17.8 21.3582 17.4418 21 17 21C16.5582 21 16.2 21.3582 16.2 21.8V24.2H13.8C13.3582 24.2 13 24.5582 13 25C13 25.4418 13.3582 25.8 13.8 25.8H16.2V28.2C16.2 28.6418 16.5582 29 17 29C17.4418 29 17.8 28.6418 17.8 28.2V25.8H20.2C20.6418 25.8 21 25.4418 21 25C21 24.5582 20.6418 24.2 20.2 24.2H17.8V21.8Z" fill="#6C8093"/>
</svg>
