<svg width="12" height="12" viewBox="0 0 12 12" fill="none" xmlns="http://www.w3.org/2000/svg">
<g clipPath="url(#clip0_8390_7316)">
<path d="M10.6725 7.06848C9.95096 6.66263 8.9652 6.3567 7.86805 6.19519C7.88356 6.14523 7.88739 6.09221 7.87922 6.04044C7.87105 5.98867 7.85112 5.93962 7.82103 5.89727C7.79095 5.85492 7.75157 5.82048 7.7061 5.79674C7.66063 5.77299 7.61036 5.76063 7.55937 5.76064H7.12078V0.524548C7.12078 0.235316 6.89195 0 6.61073 0H5.38925C5.10802 0 4.8792 0.235316 4.8792 0.524548V5.76064H4.44061C4.37746 5.76062 4.31568 5.77957 4.26287 5.81518C4.21005 5.85079 4.16851 5.90149 4.14334 5.96106C4.11206 6.0351 4.10801 6.11831 4.13193 6.19519C3.03475 6.3567 2.04901 6.66263 1.32744 7.06848C0.459035 7.55694 0 8.15978 0 8.81181C0 9.57896 0.646471 10.285 1.82031 10.7998C2.94002 11.291 4.4244 11.5615 6 11.5615C7.5756 11.5615 9.05995 11.291 10.1796 10.7998C11.3535 10.285 12 9.57896 12 8.81181C12 8.15978 11.541 7.55692 10.6725 7.06848ZM5.0792 6.17203C5.13224 6.17203 5.18311 6.15036 5.22062 6.11178C5.25813 6.07321 5.2792 6.02089 5.2792 5.96634V0.524548C5.27924 0.494545 5.29084 0.465781 5.31147 0.444568C5.33211 0.423355 5.36007 0.411423 5.38925 0.411391H6.61073C6.6399 0.411423 6.66787 0.423355 6.6885 0.444568C6.70913 0.465781 6.72074 0.494545 6.72078 0.524548V5.96634C6.72078 6.02089 6.74185 6.07321 6.77936 6.11178C6.81686 6.15036 6.86773 6.17203 6.92078 6.17203H7.38449L6.00064 7.69691L6.00002 7.69701L5.99887 7.69645L4.61548 6.17203H5.0792ZM5.70645 7.97714C5.74406 8.01849 5.78952 8.05147 5.84001 8.07404C5.89049 8.09662 5.94495 8.10831 6 8.1084C6.11085 8.1084 6.21784 8.06056 6.29353 7.97717L6.48461 7.76658C7.36485 7.80395 8.17299 7.94225 8.76824 8.15871C9.40033 8.38861 9.62558 8.64679 9.62558 8.81178C9.62558 9.25265 8.24626 9.86758 6.00002 9.86758C3.75374 9.86758 2.37447 9.25265 2.37447 8.81178C2.37447 8.64679 2.59967 8.38858 3.23179 8.15871C3.82701 7.94225 4.6352 7.80395 5.51541 7.76658L5.70645 7.97714ZM10.0228 10.4214C8.95151 10.8913 7.52289 11.1501 6 11.1501C4.47711 11.1501 3.04847 10.8913 1.9772 10.4214C0.974894 9.9818 0.4 9.39511 0.4 8.81181C0.4 7.79884 2.08838 6.86298 4.42915 6.56965L5.16007 7.37511C3.5536 7.49398 1.97442 7.96954 1.97442 8.81178C1.97442 9.25178 2.40993 9.62796 3.23384 9.89967C3.97558 10.1443 4.95795 10.279 5.99998 10.279C7.042 10.279 8.02433 10.1443 8.76609 9.89967C9.59002 9.62796 10.0255 9.2518 10.0255 8.81178C10.0255 7.96954 8.44635 7.49398 6.83986 7.37511L7.57078 6.56965C9.9116 6.86295 11.6 7.79882 11.6 8.81181C11.6 9.39511 11.0251 9.9818 10.0228 10.4214ZM6 9.40775C6.27308 9.40775 7.63534 9.379 7.63534 8.81178C7.63534 8.24457 6.27308 8.21582 6 8.21582C5.72692 8.21582 4.36464 8.24457 4.36464 8.81178C4.36464 9.379 5.72692 9.40775 6 9.40775ZM6 8.62721C6.61002 8.62721 7.01826 8.73115 7.17904 8.81178C7.01826 8.89242 6.61 8.99635 6 8.99635C5.38995 8.99635 4.98174 8.89242 4.82094 8.81178C4.98174 8.73115 5.38995 8.62721 6 8.62721Z" />
<path d="M5.88235 8.87437C5.88235 8.81423 5.92975 8.76547 5.98823 8.76547C6.04671 8.76547 6.09411 8.81423 6.09411 8.87437V11.8911C6.09411 11.9512 6.04671 12 5.98823 12C5.92975 12 5.88235 11.9512 5.88235 11.8911V8.87437Z" />
<path d="M6.11002 8.9436C6.05353 8.95917 5.99547 8.92469 5.98034 8.8666C5.96521 8.80851 5.99873 8.74879 6.05521 8.73323L11.4191 7.24684C11.4756 7.23127 11.5337 7.26574 11.5488 7.32384C11.564 7.38193 11.5304 7.44164 11.474 7.45721L6.11002 8.9436Z"/>
<path d="M0.339878 7.40184C0.283394 7.38628 0.249873 7.32657 0.265008 7.26847C0.280143 7.21038 0.338202 7.1759 0.394687 7.19147L5.95952 8.73323C6.01601 8.74879 6.04953 8.80851 6.03439 8.8666C6.01926 8.92469 5.9612 8.95917 5.90471 8.9436L0.339878 7.40184Z"/>
</g>
<defs>
<clipPath id="clip0_8390_7316">
<rect width="12" height="12" fill="white"/>
</clipPath>
</defs>
</svg>
