<svg width="64" height="62" viewBox="0 0 64 62" fill="none" xmlns="http://www.w3.org/2000/svg">
<path d="M63.2189 55.8342L43.1548 37.1261C42.911 36.8988 42.534 36.9176 42.3127 37.168L42.0578 37.4567L40.664 36.157C41.0322 35.631 40.966 34.8935 40.4878 34.4477L39.775 33.7831C44.5353 25.683 43.2208 14.9973 36.1438 8.39868C28.1021 0.90045 15.6666 1.51964 8.36826 9.78169C1.06998 18.0437 1.67266 30.82 9.71442 38.3182C16.7914 44.9169 27.2705 45.2278 34.6573 39.5768L35.37 40.2414C35.8482 40.6872 36.569 40.6837 37.043 40.2563L38.4368 41.5559L38.1819 41.8445C37.9606 42.095 37.9789 42.4823 38.2227 42.7096L58.2868 61.4177C58.9042 61.9934 59.8589 61.9458 60.4192 61.3115L63.3223 58.0251C63.8825 57.3908 63.8363 56.4099 63.2189 55.8342Z" fill="#2466A8"/>
<path d="M40.664 36.1567C40.6363 36.1964 40.6067 36.2352 40.5739 36.2722L37.1461 40.1526C37.1134 40.1897 37.0787 40.2237 37.043 40.2559L38.4368 41.5556L42.0578 37.4564L40.664 36.1567Z" fill="#CCCCCC"/>
<path d="M63.2171 55.8343L43.153 37.1262C42.9092 36.8989 42.5322 36.9176 42.311 37.1681L42.0561 37.4568L38.435 41.5559L38.1801 41.8446C37.9588 42.095 37.9771 42.4824 38.2209 42.7097L58.285 61.4178C58.9024 61.9934 59.8571 61.9459 60.4174 61.3116L63.3205 58.0252C63.8808 57.3908 63.8345 56.41 63.2171 55.8343Z" fill="#F6A654"/>
<path d="M61.1495 58.7074C60.5892 59.3417 59.6345 59.3892 59.0171 58.8135L39.3715 40.4956L38.1801 41.8443C37.9588 42.0948 37.9771 42.4821 38.2209 42.7094L58.285 61.4176C58.9024 61.9932 59.8571 61.9457 60.4174 61.3114L63.3205 58.025C63.8 57.4821 63.8338 56.686 63.4469 56.1067L61.1495 58.7074Z" fill="#E1893E"/>
<path d="M22.9286 41.1983C32.5185 41.1983 40.2927 33.2111 40.2927 23.3584C40.2927 13.5057 32.5185 5.51855 22.9286 5.51855C13.3386 5.51855 5.56445 13.5057 5.56445 23.3584C5.56445 33.2111 13.3386 41.1983 22.9286 41.1983Z" fill="#1B4D7E"/>
<path d="M34.2043 34.9438C40.4321 28.5453 40.4321 18.1714 34.2043 11.773C27.9765 5.37459 17.8792 5.37459 11.6514 11.773C5.42363 18.1714 5.42363 28.5453 11.6514 34.9438C17.8792 41.3422 27.9765 41.3422 34.2043 34.9438Z" fill="#9EC7EF"/>
<path d="M34.3085 29.4585C28.3894 36.1592 18.3039 36.6613 11.7819 30.5801C9.33985 28.3031 7.74396 25.4259 7.01331 22.3655C6.73335 27.1507 8.48669 32.0188 12.2109 35.4912C18.7329 41.5724 28.8185 41.0703 34.7376 34.3695C38.4403 30.1778 39.6352 24.5534 38.4144 19.4404C38.2041 23.0355 36.8477 26.584 34.3085 29.4585Z" fill="#59A1E9"/>
<path d="M23.0384 21.8282C28.5789 21.7348 33.0212 18.5828 32.9606 14.788C32.9001 10.9931 28.3595 7.99247 22.819 8.08583C17.2786 8.1792 12.8362 11.3312 12.8968 15.1261C12.9574 18.9209 17.4979 21.9216 23.0384 21.8282Z" fill="#C2DAF2"/>
<path d="M61.6942 55.8899L61.5951 56.002C61.3734 56.253 60.9922 56.272 60.7479 56.0442L42.8561 39.3617C42.6119 39.1339 42.5934 38.7422 42.8151 38.4912L42.9141 38.3791C43.1359 38.1281 43.5171 38.1091 43.7614 38.3369L61.6531 55.0194C61.8974 55.2472 61.9159 55.6389 61.6942 55.8899Z" fill="#FCCC88"/>
</svg>
