<svg width="138" height="139" viewBox="0 0 138 139" fill="none" xmlns="http://www.w3.org/2000/svg">
<g opacity="0.5">
<path d="M40.5664 105.917C40.3642 100.699 40.0732 95.4017 40.0341 90.2254C40.0341 90.1391 39.7834 90.1714 39.7565 90.0636C39.7012 89.844 39.8184 89.1405 39.7565 89.0731C39.3953 88.6702 39.2214 90.3359 39.212 90.4814C39.1258 91.7967 39.3333 93.1013 39.3589 94.3896C39.4209 97.5094 39.4856 100.592 39.4802 103.701C39.4775 105.122 39.2902 105.078 38.9101 106.351C38.4573 107.869 38.1244 109.462 37.5706 110.942C37.4964 111.14 37.1878 111.832 37.0638 111.923C36.638 112.23 36.4843 110.858 36.3765 110.603C35.9547 109.602 35.0572 108.037 34.3739 107.19C34.2594 107.048 33.9898 107.041 33.9561 106.905C33.8591 106.502 34.0464 105.19 34.2351 104.802C34.2917 104.687 34.4898 104.714 34.4844 104.647C34.3348 102.891 35.0518 101.217 35.4076 99.4824C35.4669 99.1967 35.5262 98.0242 35.5774 97.9676C35.7634 97.7588 36.0504 98.3625 36.0989 98.4555C36.6016 99.4312 36.8967 100.852 37.4008 101.87C37.4493 102.038 37.828 102.05 37.867 102.009C38.049 101.823 36.7404 98.4932 36.5463 98.0081C36.4224 97.6968 36.076 97.2884 36.0113 97.0607C35.855 96.5081 36.6811 93.1417 36.8806 92.3304C37.4937 89.8359 38.995 84.2391 40.5031 82.3416C40.8278 81.9332 41.5879 81.3726 42.0394 80.9157C44.4773 78.4468 46.5365 76.203 47.5041 72.7651C47.7844 71.7692 47.8788 70.5199 48.2224 69.5793C48.3006 69.365 48.5027 69.3973 48.4974 69.3367C48.4906 69.2437 48.3666 69.1116 48.3895 68.9418C48.4623 68.3799 48.7278 67.9338 48.7992 67.3893C49.0526 67.3624 49.2925 67.3422 49.5337 67.2465C50.3652 66.919 51.3193 66.3301 52.1482 66.0888C53.26 65.7654 52.9244 66.3179 53.1629 67.1077C53.9257 69.6359 55.8677 71.8716 57.9606 73.3608C58.2382 73.5575 59.8891 74.7287 60.1061 74.5157C60.2462 74.3796 60.0495 74.1222 59.885 73.9969C57.6008 72.2476 55.1211 70.8851 54.0726 67.9499C53.9351 67.5645 53.5605 65.8894 53.698 65.6239C53.8273 65.3719 56.0496 64.3814 56.1979 64.5444C56.2356 64.5862 56.1803 65.4379 56.2113 65.6778C56.4377 67.3853 57.5738 68.7383 58.8285 69.7976C59.536 70.3946 60.253 70.8636 61.0211 71.2719C62.5898 72.1061 64.6167 72.8258 66.2244 73.1829C72.1932 74.5063 78.48 73.5549 82.81 68.989C83.5553 68.2033 84.3841 67.2963 84.7331 66.1953C84.8423 65.8503 84.845 64.6051 84.9016 64.5444C85.035 64.4016 86.0565 64.6927 86.291 64.8153C86.3651 64.8544 86.3692 65.0026 86.4864 65.0767C86.7654 65.2506 87.2155 65.0835 87.1886 65.6724C87.1387 66.7802 86.5134 68.3435 85.9541 69.3043C84.5822 71.6641 81.3263 73.9012 78.8654 74.8836C78.0784 75.1976 77.0879 75.4254 76.2766 75.7327C76.1068 76.5669 77.2887 76.0952 77.7536 75.9294C81.3209 74.6586 86.0552 71.5778 87.2869 67.8084C87.4487 67.3125 87.4581 66.5794 87.6036 66.1279C87.6373 66.0215 88.0025 65.9756 87.8678 65.6239C88.8785 66.0188 89.8825 66.4446 90.8946 66.8422C93.7988 67.985 96.7717 69.1628 99.7258 70.2747C103.674 71.7611 107.69 72.9053 110.707 76.0049C111.18 76.4914 111.53 76.9119 111.992 77.4145C113.313 78.8484 115.014 83.9938 115.666 86.0045C117.611 91.9948 118.972 98.1887 120.648 104.202C120.759 104.598 121.454 106.174 121.261 106.431C121.243 106.457 120.811 106.846 120.782 106.858C120.624 106.924 120.357 106.896 120.137 106.99C118.507 107.683 116.705 108.528 115.227 108.81C114.673 108.915 113.845 109.421 113.208 109.63C111.083 110.324 108.699 110.834 106.548 111.191C105.686 111.334 104.85 111.64 103.972 111.722C103.398 111.614 103.762 111.196 103.771 110.84C103.793 110.105 103.866 109.403 103.905 108.684C103.935 108.151 103.801 107.252 103.901 106.814C103.924 106.711 104.084 106.717 104.173 106.727C104.096 106.547 103.956 106.492 103.917 106.26C103.809 105.617 104.118 103.467 104.177 102.622C104.261 101.45 104.32 100.666 104.542 99.4986C104.58 99.2978 104.373 98.9972 104.437 98.7264C104.461 98.6226 104.713 98.6522 104.701 98.5862C104.521 97.5512 104.739 95.7858 104.847 94.6672C105.211 90.9154 105.832 87.1918 106.479 83.4965C106.674 82.3793 107.079 80.9441 107.142 79.8444C107.161 79.5075 106.967 79.6597 106.738 79.6422C106.541 80.8565 106.075 82.01 105.771 83.1933C104.263 89.065 103.735 95.4893 103.232 101.543C102.497 110.392 102.204 119.475 102.013 128.355C101.982 129.77 102.048 131.191 102.02 132.606C99.1827 133.234 95.8513 133.29 92.9228 133.415C92.0105 133.454 90.807 133.327 90.0833 133.406C89.8111 133.435 89.9715 133.666 89.6992 133.695C88.8017 133.791 87.6117 133.439 86.5794 133.54C86.3072 133.567 86.4676 133.805 86.1953 133.831C84.9542 133.953 83.4259 133.78 82.1362 133.815C73.6163 134.042 65.0398 134.252 56.5402 133.923C52.1886 133.755 47.0971 133.647 42.8049 132.997C42.3588 132.93 41.6216 132.865 41.375 132.473C41.5098 129.534 41.2187 126.584 41.2362 123.639C41.2402 122.967 41.4275 123.151 41.1472 122.608C40.9936 122.31 41.123 119.503 41.1055 118.862C41.4801 118.73 41.4801 118.32 41.1055 118.188C41.1108 118.143 41.0987 118.098 41.1055 118.053L41.2375 117.986L41.1055 117.918C41.1028 117.874 41.1082 117.828 41.1055 117.784C41.5569 117.827 41.2955 117.693 41.2456 117.441C41.0152 116.284 41.282 115.629 41.247 114.622C41.2375 114.366 41.0489 114.056 41.096 113.821C41.1189 113.71 41.4046 113.762 41.375 113.675C41.2429 113.273 41.251 113.245 41.1715 112.866C41.1297 112.668 40.813 112.382 41.0071 112.146C41.0421 112.103 41.2443 112.148 41.2429 112.053C41.2389 111.836 40.9869 111.741 40.9667 111.512C40.9464 111.282 41.1149 110.909 41.1162 110.571C41.1176 110.233 40.9168 109.731 40.9613 109.506C40.9855 109.378 41.286 109.467 41.2402 109.359C41.1108 109.057 40.8737 108.865 40.8346 108.397C40.813 108.141 41.0785 108.244 41.1082 108.132C41.247 107.614 40.8292 107.667 40.8292 107.598C40.8265 107.089 41.3197 106.917 41.375 106.661C41.3871 106.605 40.6095 106.26 40.8359 105.721L40.5664 105.922V105.917Z" fill="#B9B8B8"/>
<path d="M40.5625 105.918L40.832 105.717C40.607 106.256 41.3832 106.601 41.3711 106.657C41.3158 106.914 40.8213 107.085 40.8253 107.594C40.8253 107.663 41.2431 107.612 41.1043 108.128C41.0746 108.24 40.8091 108.137 40.8307 108.393C40.8698 108.861 41.107 109.054 41.2363 109.355C41.2821 109.465 40.9816 109.374 40.9574 109.502C40.9142 109.726 41.1137 110.217 41.1123 110.567C41.111 110.917 40.9425 111.283 40.9628 111.508C40.983 111.733 41.2363 111.832 41.239 112.049C41.2404 112.144 41.0382 112.099 41.0032 112.142C40.8078 112.377 41.1258 112.663 41.1676 112.862C41.2471 113.239 41.2404 113.269 41.3711 113.671C41.3994 113.758 41.115 113.704 41.0921 113.818C41.045 114.052 41.235 114.361 41.2431 114.618C41.2781 115.625 41.0099 116.28 41.2417 117.437C41.2916 117.689 41.553 117.821 41.1016 117.78C40.8253 113.858 40.7161 109.876 40.5625 105.92V105.918Z" fill="#CAC9C9"/>
<path d="M41.1025 118.855C41.0944 118.558 41.0432 118.637 41.1025 118.182C41.4771 118.314 41.4771 118.723 41.1025 118.855Z" fill="#CAC9C9"/>
<path d="M41.1016 118.047C41.107 118.005 41.1043 117.954 41.1016 117.912L41.2336 117.979L41.1016 118.047Z" fill="#CAC9C9"/>
<path d="M38.1394 84.8939C34.4172 94.7816 33.9172 105.443 31.0939 115.515C30.5602 117.421 29.9821 119.456 28.8433 121.08C29.3123 121.181 29.6007 120.596 29.8702 120.49C30.4066 120.278 30.1141 120.937 29.9726 121.138C29.9012 121.239 29.7328 121.271 29.6492 121.383C27.7531 123.906 26.5496 125.204 23.8893 126.937C23.3031 127.318 22.0686 127.635 21.3274 127.85C19.7156 128.319 18.0068 128.644 16.4031 127.748C16.3115 127.697 16.3061 127.532 16.2158 127.478C15.5083 127.057 15.701 127.364 15.0352 126.662C14.2994 125.886 14.2657 125.526 13.732 124.728C13.5461 124.45 13.2536 124.32 13.0191 123.828C12.2658 122.241 10.7483 118.646 11.0408 117.025C11.0529 116.955 10.8036 117.045 10.7712 116.775C10.2308 112.327 12.6849 106.114 14.6525 102.176C15.0285 101.424 15.4746 100.424 15.9004 99.6696C15.9894 99.5119 16.2009 99.6238 16.2778 99.5591C16.3856 99.4674 17.2467 97.2977 17.3815 96.9716C17.4462 96.8139 17.709 96.9311 17.7696 96.8705C17.8101 96.8301 17.9421 96.0188 18.0715 95.7775C18.1362 95.6589 18.2858 95.663 18.3693 95.504C20.5768 91.3491 22.8651 87.3129 25.179 83.1823C25.7167 82.2228 26.6076 81.0045 27.0159 80.0329C27.7921 78.1839 28.3784 75.5843 28.9403 73.6019C30.0751 69.6034 30.9793 64.8327 32.5507 61.0403C33.7569 58.1335 36.9158 56.4583 39.2957 54.5729C39.7782 54.1902 40.3038 53.4827 40.9035 53.0851C41.8711 52.4423 42.6918 52.2914 43.8575 52.4261C44.3238 52.48 45.8831 52.9827 46.3332 53.1822C46.5084 53.2603 46.4963 53.4355 46.5946 53.4908C47.9544 54.2589 49.0555 54.8209 50.0029 56.0527C49.8614 56.4704 50.2427 56.426 50.3142 56.6281C50.4772 57.0782 50.6241 57.1092 50.6592 57.2143C50.7549 57.5001 50.6241 58.0108 50.8115 58.345C50.7859 58.3922 50.7185 58.4353 50.6767 58.4798C50.2751 58.3437 49.988 58.6658 49.6956 58.7116C49.0932 58.8059 46.0623 58.1025 45.5219 57.8046C45.3669 57.7197 45.3737 57.5257 45.2942 57.4677C45.2146 57.4098 44.9613 57.5472 44.7457 57.4825C44.3104 57.3505 44.0381 56.7332 43.5341 57.2656C43.3441 57.4664 43.2834 57.7453 43.1244 57.868C42.6352 58.248 41.2983 57.996 40.6461 58.0836C39.4318 58.2467 37.6772 58.496 36.4953 58.7844C35.9225 58.9245 35.4657 59.2331 36.1907 59.5593C37.4454 59.4312 38.7041 59.3625 39.9642 59.2884C41.5584 59.1941 43.3805 58.9717 44.8669 59.7736C46.8413 60.8382 47.7752 65.4148 46.9989 67.4026C46.8062 67.8972 45.8157 69.4686 45.4815 68.4579C45.1917 67.5819 45.247 66.2773 44.6163 65.4499C44.4222 65.1952 43.6082 64.7302 43.4384 64.5025C43.3414 64.3718 43.4101 64.1804 43.1864 64.016C42.7821 63.7181 40.9291 63.3152 40.3496 63.2128C39.7202 63.1009 35.3714 62.6212 35.1759 62.7937C34.9657 62.9796 35.5492 63.7033 35.6746 63.733C36.5519 63.9445 37.781 63.892 38.7311 64.0214C40.4736 64.2599 41.9048 64.6143 43.5274 65.2895C43.8225 65.4485 43.7983 65.8124 43.9344 66.0711C43.9761 66.1493 44.1459 66.148 44.1689 66.1965C44.8306 67.5253 44.9896 70.1788 44.5422 71.6895C44.4182 72.1073 43.681 73.6706 43.1972 73.5763C42.867 73.5116 43.026 72.5749 42.991 72.296C42.7633 70.4793 42.0166 69.1708 40.1906 68.6277C39.4709 68.4134 34.9738 67.6358 34.6355 67.9161C34.6194 67.9296 34.5655 68.2678 34.7299 68.319C34.9765 68.3972 35.1598 68.4983 35.3875 68.5805C36.9616 69.1519 39.1677 69.1101 40.7027 69.8675C42.2377 70.6249 42.3239 72.5817 42.1838 74.0466C42.0436 75.5115 40.4089 76.8174 38.909 76.3794C38.2365 76.1826 38.0384 74.1854 38.1435 74.1167C38.1893 74.087 39.3577 73.9293 38.9507 73.5763C38.7823 73.4294 37.2109 73.4563 36.8619 73.4415C36.3888 73.4226 35.9967 73.2043 35.4468 73.4415C35.5007 73.7137 35.7271 73.6665 35.9185 73.7097C36.525 73.8485 37.1166 74.0371 37.7338 74.118C37.6435 74.6908 37.8254 75.277 37.851 75.7985C37.874 76.2635 37.5128 76.1071 38.0074 76.5397L38.4009 77.5478L37.8726 79.9089C37.2244 81.1258 36.2163 82.2525 35.0803 83.0125C34.8997 83.1338 33.9631 83.4478 33.9671 83.6149C33.9765 84.1028 35.1544 83.8737 35.4468 83.8171C35.3592 84.1419 35.9091 84.2079 36.126 84.2834C36.7945 84.5152 37.4535 84.7551 38.1421 84.8952L38.1394 84.8939Z" fill="#E3E5E8"/>
<path d="M74.2567 64.5455C75.7311 64.0092 77.4048 62.8973 78.5625 61.9109C78.7727 61.7316 78.859 61.3853 79.0584 61.1885C80.0799 60.1791 81.1918 59.2533 81.9343 58.1401L82.6122 57.5391C82.6486 58.3679 82.5691 59.2102 82.6068 60.0376C82.6782 61.5888 82.7604 63.3434 83.6283 64.6776C83.7658 64.8878 84.0865 64.9269 84.1054 65.0388C84.1337 65.2099 83.7806 66.4107 83.6849 66.6021C83.3184 67.3244 80.9222 69.6504 80.177 70.1275C77.1218 72.083 72.3633 72.9886 68.8001 72.6328C64.9741 72.2514 58.8867 70.2192 57.3477 66.5657C56.6752 64.97 57.3787 65.3339 57.8436 64.0995C58.1374 63.3192 58.19 61.7384 58.2277 60.8449C58.2654 59.9514 58.1873 59.0848 58.2223 58.2115L59.4352 59.2209C60.1009 60.3691 61.1696 61.136 62.1305 61.9836C62.0065 62.5281 62.3933 62.3866 62.8043 62.5227C62.8515 62.5658 62.8933 62.6143 62.9391 62.6575C63.0779 62.7882 63.2841 63.1723 63.5833 63.3232C63.7463 63.4054 63.9741 63.4068 64.152 63.4661C64.2046 63.5065 64.2423 63.5685 64.2868 63.6008C66.5724 65.2908 69.2502 66.0616 72.0398 65.4956C72.3943 65.4242 72.9401 65.2059 73.2514 65.2113C73.4252 65.214 73.7877 65.4121 73.8551 65.3514C73.8982 65.3123 73.6503 65.0037 73.719 64.9485C73.7931 64.8892 74.3228 65.0253 74.2594 64.5428L74.2567 64.5455Z" fill="#E3E5E8"/>
<path d="M45.8992 46.268C38.7283 38.9543 41.5113 26.5828 50.6214 22.3822C62.7341 16.7961 74.514 28.7768 70.0789 41.031C66.4699 51.0023 53.3679 53.885 45.8992 46.268ZM55.3584 22.4024C46.534 23.1625 40.7471 33.0502 44.1365 41.2291C48.1889 51.0104 61.8177 51.9524 67.4927 43.1603C69.1032 40.6658 69.967 36.6808 69.5048 33.7847C68.3633 26.6313 62.7382 21.7663 55.3584 22.4024Z" fill="#2466A8"/>
<path d="M55.169 53.1785C55.3374 53.514 55.7552 54.1932 56.0045 54.5612C56.2538 54.9291 57.3684 56.1676 57.4074 56.3926C57.6096 57.5597 57.3414 59.4936 57.274 60.7024C57.2444 61.2347 57.363 62.8075 57.115 63.17C57.0301 63.294 56.4129 63.3236 56.1972 63.3991C55.3011 63.7117 54.479 64.2104 53.6219 64.6012C52.3591 65.178 51.0802 65.7427 49.8228 66.3235C49.7015 66.3788 49.3943 66.5 49.3229 66.4286C49.0937 66.2022 51.1031 61.0164 51.347 60.3008C51.7554 59.1028 52.6812 57.0355 52.281 55.8576C51.9589 54.9115 50.5587 54.3563 50.5492 54.2364C50.5398 54.0976 51.3632 52.5464 51.5034 52.2365C51.6058 52.01 51.8511 51.1206 51.8969 51.0802C51.9467 51.0357 52.7324 51.0438 52.8901 51.0721C53.1232 51.1139 53.355 51.3308 53.6259 51.413C53.8968 51.4952 54.2458 51.4157 54.448 51.5343C54.7202 51.6947 54.9938 52.8267 55.1703 53.1771L55.169 53.1785Z" fill="#FCFCFC"/>
<path d="M35.4443 83.8161C37.0736 83.5048 38.9482 80.4322 39.1827 78.8621C39.2946 78.1102 38.9078 77.5212 39.8633 77.3743C40.1355 77.3326 40.3309 77.4619 40.6314 77.3595C40.8484 77.2854 42.1705 76.4377 42.3511 76.272C42.6368 76.0078 42.6718 75.5968 42.9144 75.3165C43.068 75.1386 43.3335 75.0658 43.4629 74.9216C44.2715 74.0308 45.3172 72.857 45.417 71.6185C45.4668 70.9905 45.1191 70.3544 45.7808 69.9366C46.708 69.3504 46.5369 69.7089 47.1271 68.6092C47.1716 68.527 47.1743 68.0876 47.4358 68.3181C47.4654 68.3437 47.5678 68.7992 47.5638 68.9084C47.5301 69.7439 46.7269 72.5403 46.425 73.4365C45.7876 75.3313 42.7702 79.4214 41.1719 80.7165C40.843 80.9834 40.2514 81.199 39.9657 81.5319C38.9819 82.6747 38.6531 83.5264 38.1383 84.8929C37.4496 84.7528 36.7906 84.5129 36.1222 84.2811C35.9052 84.2056 35.3554 84.1396 35.443 83.8148L35.4443 83.8161Z" fill="#B9B8B8"/>
<path d="M103.904 114.677C104.372 114.374 104.842 114.138 105.338 113.887C108.04 112.522 110.943 111.344 113.849 110.404C114.766 110.107 116.52 109.66 117.281 109.28C117.413 109.214 117.379 109.013 117.637 108.941C117.913 108.865 118.602 108.672 118.827 108.636C119.379 108.545 119.365 108.8 119.402 109.153C119.129 109.401 119.352 110.276 119.131 110.502C119.111 110.524 118.827 110.315 118.559 110.386C118.398 110.429 117.219 111.049 116.927 111.192C113.322 112.955 109.258 114.731 105.563 116.429C105.025 116.676 104.468 116.922 103.904 117.103C103.891 117.088 103.67 117.162 103.632 117.018C103.602 116.903 103.614 115.403 103.624 115.139C103.635 114.854 103.655 114.815 103.904 114.677Z" fill="#B9B8B8"/>
<path d="M33.8228 107.94C33.8606 107.97 34.1153 108.648 34.2271 108.818C34.6988 109.528 35.6139 110.416 35.4144 111.346C35.254 112.092 34.533 113.41 34.1355 114.106C33.4792 115.257 32.8067 116.568 32.1275 117.692C31.7784 118.269 31.3566 118.786 31.0628 119.393C30.5507 119.169 31.2138 118.125 31.3283 117.771C32.1544 115.214 33.4104 110.753 33.56 108.141C33.5722 107.928 33.6247 107.779 33.8228 107.938V107.94Z" fill="#B9B8B8"/>
<path d="M63.3415 49.7215C63.2552 50.3387 64.0962 49.6446 64.2121 49.58C64.328 49.5153 64.5409 49.2835 64.5544 49.584C64.0328 49.7309 63.6986 50.181 63.2499 50.5044C62.6353 50.9465 61.9507 51.3912 61.3106 51.7995C59.9185 52.685 58.4859 53.6377 56.8741 54.034C56.8 53.9261 56.7784 53.8251 56.7393 53.7644L56.6046 53.6297C56.5844 53.5973 56.6248 53.5272 56.6046 53.4949L56.335 53.0906C56.3175 53.0609 56.1612 53.0057 56.0857 52.8736C55.9968 52.7213 55.4523 51.6688 55.5264 51.6082C55.5601 51.5799 56.2663 51.4828 56.4024 51.4721C58.5236 51.3103 60.5276 51.3009 62.4938 50.2861C62.7795 50.1379 63.0046 49.898 63.3428 49.7201L63.3415 49.7215Z" fill="#B9B8B8"/>
<path d="M47.9777 66.4307C47.9494 65.9227 48.0208 65.4011 47.9642 64.8944C47.882 64.168 47.3174 63.0306 47.2931 62.4551C47.2837 62.2328 47.7527 59.8851 47.8295 59.7706C47.9319 59.617 49.169 59.842 49.5343 59.8339C49.8267 59.8272 50.5598 59.5038 50.483 59.9701C50.3792 60.5981 49.82 61.6479 49.5895 62.315C49.2081 63.4174 48.8874 64.8567 48.4507 65.893C48.3591 66.11 48.2122 66.3485 47.9791 66.4307H47.9777Z" fill="#B9B8B8"/>
<path d="M47.845 49.7202C47.9717 49.5316 49.0296 50.3954 49.0485 50.4749C49.0821 50.6164 47.9124 53.0557 47.7709 53.0894C47.6887 53.1082 46.651 52.549 46.6334 52.4762C46.6038 52.3455 47.6199 50.4385 47.7803 50.1232C47.8477 49.9898 47.8221 49.7553 47.845 49.7202Z" fill="#2466A8"/>
<path d="M83.1498 53.4947C83.3398 52.8788 83.4867 52.6794 83.7818 52.0379C84.1619 51.2118 84.3883 49.9706 84.8182 49.4544C84.922 49.3304 85.5298 46.9815 85.5702 46.6729C85.6066 46.3952 85.3923 45.4478 85.4408 45.4074C85.4705 45.3831 85.6888 45.557 85.709 45.5449C85.7858 45.4964 85.8168 44.2525 86.116 43.7916C86.1416 43.7511 86.8814 44.212 86.93 44.2915C87.1469 44.6392 86.7143 45.1028 87.1914 45.3441C87.5068 45.5031 87.8181 45.3562 88.1348 45.2753C87.9447 45.4357 87.8181 45.6621 87.624 45.7699C85.9408 46.7012 87.1645 44.6972 86.3828 44.2632C86.1618 44.1406 86.0082 44.6662 85.9853 44.8104C85.4704 48.0232 85.0945 50.201 83.5271 53.1403C83.4247 53.3316 83.48 53.5702 83.1484 53.496L83.1498 53.4947Z" fill="#CAC9C9"/>
<path d="M64.2812 63.6023C64.7529 63.4783 64.8863 63.9096 65.0575 63.9985C68.2568 65.6534 70.8767 65.7747 74.2539 64.5457C74.3172 65.0281 73.7876 64.892 73.7135 64.9513C73.6448 65.0066 73.8927 65.3138 73.8496 65.3543C73.7822 65.4149 73.4211 65.2168 73.2459 65.2141C72.9346 65.2087 72.3888 65.427 72.0343 65.4985C69.2447 66.0645 66.5669 65.2936 64.2812 63.6036V63.6023Z" fill="#B9B8B8"/>
<path d="M71.5619 32.2019C71.8907 32.1251 71.8557 32.3703 71.9002 32.5981C71.981 33.0051 72.1845 33.8474 72.2074 34.1897C72.2492 34.8136 72.2681 35.8756 72.2357 36.5144C72.1818 37.5925 72.1387 38.4941 72.3705 39.614C72.0457 39.4455 72.1495 38.5965 72.0996 38.5359C71.9595 38.3661 71.6306 39.6679 71.601 39.8377C71.5336 40.2326 71.5363 40.4374 71.3247 40.9266C71.2425 41.118 71.0767 41.2797 70.8867 41.3659C72.0349 38.1194 72.2748 35.6074 71.5605 32.2019H71.5619Z" fill="#B9B8B8"/>
<path d="M43.5312 57.2677C44.0353 56.7353 44.3075 57.3526 44.7428 57.4846C44.9584 57.5493 45.2077 57.4105 45.2913 57.4698C45.3748 57.5291 45.3641 57.7205 45.519 57.8067C46.0595 58.1032 49.0903 58.808 49.6927 58.7137C49.9852 58.6679 50.2722 58.3458 50.6738 58.4819C49.7439 59.463 48.2036 58.8431 47.0662 58.5183C45.8667 58.1746 44.7104 57.6679 43.5312 57.269V57.2677Z" fill="#B9B8B8"/>
<path d="M37.8672 79.9082L38.3955 77.5471L38.002 76.5391C38.8914 77.3167 38.7701 77.818 38.413 78.9042C38.2755 79.3233 38.0491 79.5672 37.8672 79.9082Z" fill="#B9B8B8"/>
<path d="M63.3397 21.6904C63.1497 21.5031 63.368 20.9115 63.3397 20.8818C63.2804 20.8212 62.7104 21.2969 62.3384 20.6015C62.0729 20.1056 61.9408 19.5719 62.6376 19.8953C62.8155 19.9775 62.7912 20.2147 62.8775 20.212C63.0082 20.208 63.5944 20.1096 63.4745 19.8023C65.3733 20.2524 66.4137 20.2336 68.326 20.0719C70.5295 19.8859 70.9001 20.4411 72.8744 20.8468C74.5279 21.1864 76.2772 21.216 77.9672 21.15C78.2273 21.1392 78.5076 21.2888 78.4335 20.8805C79.9011 20.8063 80.8512 20.4074 82.2015 20.1339C83.44 19.8832 83.8632 19.9384 84.3914 21.1891C85.6043 24.065 86.235 30.0351 86.386 33.2102C86.4695 34.9864 86.2121 36.7895 86.6569 38.5334C87.1663 38.2464 87.1231 37.8919 87.2876 37.4822C87.6878 36.4823 88.0678 34.5201 89.0099 34.0727C89.1338 34.0134 90.4451 34.0646 90.6068 34.1117C91.4828 34.3678 91.9478 36.8569 91.9221 37.6601C91.8332 40.4592 90.6055 43.1505 88.5436 45.0022L88.274 45.1369C88.2269 45.1787 88.1878 45.2299 88.1393 45.2717C87.8239 45.3539 87.5113 45.4994 87.1959 45.3404C86.7188 45.0992 87.1528 44.6356 86.9345 44.2879C86.8846 44.2084 86.1461 43.7488 86.1205 43.7879C85.82 44.2488 85.789 45.4927 85.7135 45.5412C85.6933 45.5547 85.475 45.3795 85.4453 45.4038C85.3968 45.4442 85.6111 46.3916 85.5747 46.6692C85.5343 46.9778 84.9265 49.3268 84.8227 49.4508C84.3928 49.9669 84.1664 51.2068 83.7863 52.0342C83.4912 52.6744 83.343 52.8752 83.1543 53.491C82.8322 54.5395 80.1342 57.8426 79.2353 58.534C78.1262 59.387 76.8917 60.0959 75.8338 60.9934C75.3365 61.4153 75.1196 61.3061 74.6236 61.4449C74.5064 61.4786 74.5441 61.6861 74.4444 61.705C73.3851 61.9085 72.2059 62.2265 71.0995 62.2548C68.7788 62.3141 65.8234 61.8532 63.8478 60.6282C62.3788 59.7186 60.8816 58.5421 59.5744 57.3265C58.9976 56.7901 58.4302 56.1783 57.9518 55.5799C57.5583 55.088 57.2294 54.5463 56.875 54.0288C58.4881 53.6325 59.9194 52.6811 61.3115 51.7943C61.9516 51.3873 62.6362 50.9413 63.2508 50.4992C63.6995 50.1772 64.0337 49.727 64.5553 49.5788C64.5418 49.2783 64.3289 49.5101 64.213 49.5748C64.0971 49.6394 63.2562 50.3335 63.3424 49.7163C64.5297 49.0977 64.7413 49.0532 65.8315 48.1004C68.3153 45.932 69.764 44.5453 70.8893 41.3608C71.0793 41.2732 71.2451 41.1128 71.3273 40.9215C71.5388 40.4323 71.5362 40.2274 71.6035 39.8325C71.6318 39.6627 71.962 38.3609 72.1022 38.5307C72.152 38.5914 72.0483 39.4404 72.373 39.6088C72.6345 40.8756 74.0724 43.6289 73.6183 44.6949C73.3178 45.3997 72.0577 45.8377 71.3488 45.9293C70.7127 46.0115 69.8704 45.9172 69.233 46.0749C69.1858 46.087 68.8867 46.5196 68.8853 46.5493C68.8813 46.7218 69.3502 46.8619 69.4931 46.9401C69.5403 46.9657 69.5389 47.1315 69.6333 47.153C69.8934 47.211 70.6507 47.1827 70.9499 47.1503C71.2491 47.118 71.6184 47.0371 72.0011 46.9913C72.3838 46.9455 73.7194 46.1665 73.9889 45.8754C74.5482 45.269 74.3824 44.9186 74.5293 44.2798C74.5603 44.1437 74.8837 44.2744 74.8002 43.8526C74.788 43.7947 74.5495 43.8054 74.5266 43.7003C74.4713 43.4429 74.5643 43.1208 74.4983 42.8041C74.2503 41.6047 73.4363 39.7355 73.0455 38.3946C73.0496 37.9553 72.9728 36.6413 72.5065 36.5079C72.435 36.4877 72.3218 36.5214 72.2369 36.5079C72.2679 35.8691 72.2504 34.8071 72.2086 34.1832C72.1857 33.8409 71.9822 32.9986 71.9014 32.5916C71.8569 32.3638 71.8919 32.1186 71.5631 32.1954C70.9122 29.0944 69.5591 26.767 67.3854 24.5137L67.1158 24.2442C67.0902 24.2213 67.0053 24.2671 66.9811 24.2442C67.0202 23.7213 66.9959 23.9059 66.7115 23.8399C66.6563 23.6715 66.6226 23.2793 66.5444 23.1971C66.411 23.0583 65.5526 22.8642 65.3315 22.7523C65.1671 22.6688 64.7197 22.1756 64.5984 22.1163C64.4529 22.0448 63.9232 21.999 63.8801 21.9518C63.8478 21.9155 64.1146 21.2497 63.8801 21.0098L63.4772 21.6823C63.4623 21.6621 63.3855 21.6985 63.3424 21.6823L63.3397 21.6904ZM82.4333 28.2077C80.2622 27.1834 77.5063 27.1417 75.2368 27.86C74.7503 28.0136 73.4053 28.8936 73.4444 29.4286C73.4687 29.775 73.97 30.3747 74.3191 30.3949C74.7988 30.4232 76.1195 29.81 76.8163 29.7076C78.2973 29.4879 81.1705 29.6092 82.6125 29.9731C82.8457 30.0324 83.8456 30.7022 83.9588 30.5836C84.1381 30.3963 83.3915 29.4421 83.4791 29.0985C83.091 28.9206 82.7931 28.3761 82.4333 28.2063V28.2077ZM78.9321 33.3247C78.2771 32.8355 77.2799 33.1333 76.8163 33.7519C76.2071 34.5659 76.0629 35.7828 76.5481 36.6898C76.5885 36.7639 76.7341 36.7788 76.7651 36.8313C76.8917 37.0456 76.9672 37.4755 77.1882 37.59C78.1154 38.0712 79.1774 37.3434 79.5385 36.4742C79.9226 35.5483 79.7474 33.9352 78.9321 33.3247ZM90.8319 35.9756C90.7254 35.8772 89.7955 35.9958 89.5678 36.1251C89.4155 36.2127 88.7902 37.086 88.6932 37.272C88.4061 37.8218 88.0153 39.0172 87.8307 39.6439C87.7134 40.0441 87.2606 41.505 87.5989 41.7678C87.8226 41.9416 87.8307 41.7098 87.8967 41.5939C88.1433 41.1681 88.3886 40.6209 88.5409 40.1506C88.8023 40.1843 88.9425 41.4376 89.2848 40.8285C89.7093 40.0765 89.0853 38.8164 89.2902 38.2517C89.3616 38.0563 89.8009 37.1399 89.9047 37.0011C90.0193 36.8475 91.0543 36.1804 90.8292 35.9729L90.8319 35.9756ZM77.8944 48.374C77.8486 48.3282 77.4793 48.3713 77.354 48.4441C77.2799 48.4872 77.2381 48.684 77.1195 48.7796C75.8716 49.7863 74.4269 50.5141 72.8798 50.9723C71.3327 51.4305 68.7937 51.3887 67.2493 51.0019C66.8301 50.8968 65.0095 50.0761 64.8235 50.2621C64.8113 50.2742 64.8087 50.5127 64.8235 50.5976C64.9246 51.1542 66.0566 51.7067 66.5727 51.8172C67.8085 52.0814 70.7033 52.4008 71.8879 52.138C72.4054 52.0234 72.8609 51.6367 73.3029 51.5329C74.0212 51.3644 73.8326 51.4844 74.4242 51.1677C74.8783 50.9251 75.3689 50.8523 75.7853 50.6461C76.5009 50.2904 77.1141 49.5842 77.7691 49.126C77.9106 49.0047 77.9443 48.4265 77.8944 48.3767V48.374ZM73.0428 53.8994C72.9081 53.766 71.7909 54.1393 71.493 54.1689C70.64 54.2525 69.6346 54.0665 68.7991 54.1689C68.5754 54.1959 68.7303 54.5894 69.0578 54.7188C69.9634 55.0786 71.8812 55.1284 72.6844 54.5516C72.8326 54.4452 73.2396 54.0948 73.0428 53.9007V53.8994Z" fill="#E3E5E8"/>
<path d="M63.3397 21.6904C61.9813 21.1985 60.3385 20.7673 58.8197 20.4829C58.3035 20.3859 57.1513 20.6554 57.1607 19.8764C57.1674 19.3226 57.4289 17.7835 57.5502 17.1825C57.5758 17.0558 57.6216 16.8887 57.7469 16.8402C57.8601 16.7957 57.7685 17.0032 57.8547 17.0598C59.6188 18.2188 61.3735 19.3064 63.4731 19.805C63.5931 20.1109 63.0068 20.2107 62.8761 20.2147C62.7899 20.2174 62.8141 19.9802 62.6362 19.898C61.9395 19.5746 62.0716 20.1082 62.337 20.6042C62.709 21.2982 63.2777 20.8225 63.3384 20.8845C63.3667 20.9128 63.1497 21.5044 63.3384 21.6931L63.3397 21.6904Z" fill="#E3E5E8"/>
<path d="M68.326 20.0732C68.07 19.0571 66.4676 18.5733 66.1711 17.5773C66.1145 17.3887 66.1846 17.3375 66.3692 17.3792C67.3315 18.2215 68.4635 18.7592 69.6387 19.2309C70.8542 19.7188 71.9566 20.1123 73.2302 20.2107C73.3258 20.2174 73.3002 20.4155 73.4107 20.4708C73.9552 20.747 75.2287 20.7282 75.664 20.774C76.5872 20.871 77.4968 20.929 78.4335 20.8818C78.5076 21.2901 78.2273 21.1406 77.9672 21.1513C76.2772 21.2187 74.528 21.1877 72.8744 20.8481C70.9001 20.4425 70.5295 19.8859 68.326 20.0732ZM68.2587 19.1298V19.2646C68.3462 19.2201 68.3462 19.1743 68.2587 19.1298ZM68.7977 19.3994V19.5341C68.8853 19.4897 68.8853 19.4439 68.7977 19.3994ZM69.0672 19.5341V19.6689C69.1548 19.6244 69.1548 19.5786 69.0672 19.5341Z" fill="#E3E5E8"/>
<path d="M63.4745 21.6904L63.8774 21.0179C64.1133 21.2578 63.8451 21.9235 63.8774 21.9599C63.9192 22.0071 64.4502 22.0529 64.5957 22.1243C64.717 22.1836 65.1644 22.6769 65.3288 22.7604C65.5499 22.8723 66.4083 23.065 66.5417 23.2052C66.6199 23.2874 66.6536 23.6795 66.7088 23.848C66.9932 23.914 67.0175 23.7294 66.9784 24.2523C66.9366 24.2146 66.8342 24.2119 66.7762 24.1189C66.7156 24.0218 66.7345 23.9262 66.7088 23.848C66.1887 23.7281 65.3571 22.9208 64.81 22.5798C64.2629 22.2389 63.8653 22.2025 63.4745 21.6917V21.6904Z" fill="#E3E5E8"/>
<path d="M50.8047 58.3451C50.6174 58.0109 50.7481 57.5001 50.6524 57.2144C50.6174 57.1093 50.4705 57.0797 50.3074 56.6282C50.2347 56.4274 49.8546 56.4719 49.9961 56.0527C50.4705 56.6686 51.2468 57.519 50.8047 58.3438V58.3451Z" fill="#B9B8B8"/>
<path d="M62.7989 62.5234C62.3879 62.3873 62.0011 62.5288 62.1251 61.9844C62.338 62.173 62.586 62.3267 62.7989 62.5234Z" fill="#B9B8B8"/>
<path d="M64.1504 63.4668C63.9725 63.4075 63.7434 63.4062 63.5817 63.3239C63.2838 63.173 63.0763 62.7903 62.9375 62.6582C63.3876 62.859 63.7636 63.1703 64.1504 63.4668Z" fill="#B9B8B8"/>
<path d="M88.543 45.0039C88.3974 45.1346 88.2842 45.1292 88.2734 45.1387L88.543 45.0039Z" fill="#B9B8B8"/>
<path d="M56.6016 53.4941C56.5301 53.3796 56.4439 53.2826 56.332 53.0898L56.6016 53.4941Z" fill="#CAC9C9"/>
<path d="M67.3828 24.5195C67.3141 24.4481 67.1753 24.3053 67.1133 24.25L67.3828 24.5195Z" fill="#B9B8B8"/>
<path d="M56.7363 53.7637C56.7229 53.7435 56.6528 53.7098 56.6016 53.6289L56.7363 53.7637Z" fill="#CAC9C9"/>
<path d="M104.848 117.641C104.725 117.61 104.371 117.858 104.309 117.777C104.291 117.756 104.154 117.258 104.174 117.238C104.306 117.11 104.822 117.403 104.848 117.64V117.641Z" fill="#B9B8B8"/>
<path d="M120.614 119.664C120.237 119.582 120.304 119.888 120.35 120.128C120.412 120.44 120.688 120.734 120.622 121.067C120.599 121.184 120.367 121.136 120.354 121.154C120.153 121.425 120.538 121.394 120.618 121.505C120.697 121.615 120.805 122.032 120.749 122.091C120.706 122.136 120.475 121.967 120.34 122.024C120.218 122.075 119.982 122.417 120.076 122.494C120.14 122.547 120.731 122.386 120.859 122.857C120.91 123.042 121.077 124.71 121.018 124.785C120.987 124.824 120.41 124.196 120.479 124.716C120.542 125.193 120.869 125.862 120.885 126.402C121.536 126.103 121.219 126.457 121.288 127.009C121.371 127.68 121.474 128.355 121.563 129.026L121.288 129.165L121.692 129.5C121.738 129.976 121.829 130.517 121.962 130.983C121.922 130.986 121.634 131.161 121.432 131.192C116.405 131.949 111.324 132.217 106.261 132.465C105.926 132.481 105.35 132.831 105.251 132.332C105.16 131.883 105.185 131.178 105.097 130.666C104.745 128.614 104.381 126.567 104.038 124.515C104.199 124.455 104.608 124.325 104.71 124.245C104.848 124.137 104.062 123.928 104.307 123.707C104.423 123.603 104.825 123.811 104.914 123.975L104.981 123.571C105.455 123.463 105.143 123.905 105.268 124.092C105.288 124.122 105.899 124.408 105.922 124.381C105.968 124.327 105.79 123.305 105.721 123.169C105.567 122.866 105.114 122.944 105.114 122.831C105.113 122.381 105.658 122.755 105.854 122.766C105.968 122.772 105.949 122.536 105.922 122.497C105.914 122.485 105.733 122.533 105.648 122.405C105.585 122.311 105.592 122.153 105.521 122.051C105.462 121.964 105.31 121.964 105.287 121.924C105.264 121.881 105.113 121.126 105.119 121.084C105.135 120.975 106.48 120.687 106.683 120.51L107.135 120.543C106.78 120.074 106.234 120.576 105.852 120.555C105.697 120.547 105.403 120.301 105.384 120.338C105.352 120.404 105.438 120.63 105.364 120.716C105.323 120.764 104.244 121.156 104.195 121.117C104.163 121.091 104.182 120.869 104.097 120.869C103.822 120.869 103.429 121.332 103.632 120.428C103.655 120.324 103.869 120.362 103.9 120.242C103.989 119.898 103.724 119.605 104.48 119.828C104.693 119.892 104.911 120.342 104.951 119.707C104.958 119.607 104.699 119.14 104.64 119.122C104.387 119.044 104.007 119.675 103.767 119.397C103.633 119.242 104.081 117.304 103.902 117.106C104.465 116.924 105.023 116.679 105.561 116.432C109.257 114.734 113.319 112.957 116.924 111.195C117.218 111.052 118.396 110.431 118.556 110.389C118.824 110.318 119.107 110.525 119.129 110.505C119.35 110.279 119.125 109.404 119.4 109.156C119.785 112.664 120.191 116.164 120.613 119.668L120.614 119.664ZM104.846 117.641C104.821 117.404 104.306 117.111 104.172 117.239C104.152 117.258 104.291 117.756 104.307 117.779C104.369 117.859 104.724 117.61 104.846 117.642V117.641ZM120.21 124.65C120.063 124.503 119.795 124.772 119.941 124.918C120.088 125.065 120.356 124.797 120.21 124.65Z" fill="#E3E5E8"/>
<path d="M103.903 114.678C103.654 114.815 103.632 114.853 103.623 115.14C103.613 115.404 103.601 116.904 103.631 117.018C103.668 117.164 103.891 117.09 103.903 117.103C104.084 117.301 103.635 119.239 103.768 119.394C104.008 119.672 104.387 119.041 104.641 119.119C104.701 119.137 104.96 119.605 104.953 119.704C104.914 120.339 104.694 119.889 104.481 119.826C103.725 119.602 103.991 119.896 103.902 120.239C103.871 120.361 103.656 120.323 103.633 120.425C103.429 121.33 103.823 120.866 104.098 120.866C104.183 120.866 104.163 121.088 104.197 121.114C104.247 121.153 105.325 120.761 105.365 120.714C105.439 120.626 105.353 120.401 105.385 120.335C105.404 120.299 105.698 120.543 105.853 120.552C106.236 120.574 106.783 120.07 107.136 120.54L106.685 120.508C106.48 120.684 105.136 120.972 105.12 121.082C105.113 121.123 105.265 121.878 105.288 121.921C105.31 121.962 105.464 121.962 105.523 122.048C105.593 122.15 105.588 122.308 105.65 122.402C105.736 122.53 105.915 122.482 105.923 122.494C105.95 122.533 105.969 122.77 105.856 122.764C105.658 122.753 105.113 122.378 105.116 122.828C105.116 122.941 105.569 122.865 105.722 123.166C105.791 123.303 105.969 124.325 105.923 124.378C105.9 124.405 105.288 124.119 105.269 124.09C105.144 123.904 105.455 123.46 104.982 123.568L104.915 123.972C104.826 123.808 104.424 123.599 104.309 123.704C104.063 123.924 104.849 124.134 104.712 124.242C104.608 124.323 104.199 124.452 104.039 124.513C103.504 121.326 103.284 119.8 103.5 116.494C103.527 116.076 103.377 114.953 103.631 114.737C103.71 114.67 103.86 114.703 103.903 114.675V114.678ZM104.172 121.281C104.071 121.18 103.627 121.218 103.77 121.617C103.937 122.08 104.35 121.459 104.172 121.281ZM104.846 122.091C104.643 122.117 104.004 121.857 103.903 121.956C103.857 122.001 104.042 123.072 104.241 123.168C104.695 123.386 104.41 122.268 104.443 122.226C104.496 122.158 104.938 122.636 104.848 122.092L104.846 122.091ZM105.116 123.168C104.969 123.021 104.701 123.289 104.848 123.436C104.995 123.583 105.263 123.315 105.116 123.168Z" fill="#E3E5E8"/>
<path d="M120.614 119.664C121.009 122.954 121.377 126.204 121.692 129.502L121.288 129.166L121.563 129.027C121.472 128.356 121.371 127.681 121.288 127.01C121.219 126.459 121.536 126.106 120.885 126.404C120.869 125.863 120.541 125.193 120.479 124.718C120.41 124.197 120.987 124.824 121.018 124.786C121.079 124.711 120.91 123.044 120.859 122.858C120.73 122.388 120.138 122.548 120.076 122.495C119.982 122.417 120.218 122.076 120.34 122.025C120.475 121.968 120.704 122.137 120.749 122.092C120.807 122.033 120.695 121.613 120.618 121.506C120.541 121.4 120.153 121.427 120.354 121.156C120.367 121.138 120.599 121.185 120.622 121.068C120.689 120.735 120.412 120.442 120.35 120.129C120.303 119.889 120.235 119.584 120.614 119.665L120.614 119.664ZM121.152 125.998C121.172 125.953 121.172 125.1 121.152 125.056C120.98 124.685 120.98 126.369 121.152 125.998Z" fill="#E3E5E8"/>
<path d="M119.941 124.918C120.088 125.065 120.356 124.797 120.21 124.65C120.063 124.503 119.795 124.772 119.941 124.918Z" fill="#E3E5E8"/>
<path d="M82.1213 18.3752C82.0889 18.3927 82.0943 18.5315 81.9704 18.5814C81.2696 18.8711 79.2993 18.9641 78.8384 18.1865C80.5486 17.8227 82.2102 18.107 83.7587 17.1097C83.8072 17.2917 83.4757 17.541 83.3503 17.6434C82.9824 17.9453 82.5391 18.1555 82.1213 18.3738V18.3752Z" fill="#202020"/>
<path d="M41.3735 132.468C41.445 132.911 40.6984 133.008 40.4976 132.603C40.2968 132.197 40.4598 130.202 40.4369 129.565C40.2105 123.509 40.0057 117.436 39.751 111.384C39.7173 110.599 39.7887 109.803 39.7564 109.019C39.5529 109.05 39.5057 109.273 39.4181 109.42C38.8413 110.385 37.3131 114.392 36.4303 114.653C35.9236 114.803 35.1501 114.468 34.7633 114.873C34.6204 115.022 34.6016 115.256 34.5005 115.392C34.0261 116.024 33.9574 116.393 33.5827 117.061C31.0006 121.649 28.3202 125.622 23.5009 128.003C23.0616 128.22 22.4592 128.341 22.0603 128.56C21.9713 128.608 21.9916 128.808 21.8797 128.83C21.5185 128.902 20.9687 128.809 20.5859 128.973C20.4647 129.025 20.4957 129.231 20.4054 129.232C18.4135 129.263 16.7815 129.147 15.1118 127.94C12.9609 126.383 10.5607 120.742 10.147 118.08C8.82226 109.567 14.0579 101.23 18.0375 94.104C20.652 89.4223 23.4295 85.0734 25.8162 80.1854C27.9482 75.819 29.0735 69.1104 30.5263 64.2764C31.0936 62.3897 31.6003 60.2091 32.8874 58.6863C33.8415 57.557 35.425 56.5988 36.588 55.6487C38.0772 54.4344 39.7469 52.7458 41.4072 51.917C41.6539 51.7944 42.4193 51.8362 42.7603 51.7364C42.9018 51.6947 42.8048 51.3618 43.608 51.4629C43.8788 51.4965 43.7751 51.7283 43.8829 51.7499C44.1322 51.7984 44.3573 51.6044 44.5311 51.603C44.6133 51.603 44.5931 51.8119 44.7063 51.8712C44.8869 51.9655 45.6712 52.1946 45.8235 52.0882C46.1914 51.8308 46.965 49.5397 47.3828 49.0532C47.4501 48.7783 46.81 48.4886 46.6281 48.3093C44.8721 46.5789 43.4409 44.982 42.4274 42.6707C39.6405 36.3165 41.2091 28.926 46.3572 24.3157C46.5364 24.1553 47.2547 23.7375 47.2871 23.6903C47.3302 23.627 47.1617 22.6553 47.1644 22.4316C47.2305 17.9426 49.2829 13.9306 53.5658 12.2541C53.865 12.1369 55.0388 11.8849 55.0981 11.8323C55.1304 11.8027 55.1789 11.4388 55.2746 11.269C56.4916 9.09658 59.4268 7.29476 61.7542 6.56163C67.4184 4.78003 73.4114 6.19507 78.6174 8.63837C80.7224 9.6262 82.5862 11.0561 84.9851 11.3C85.2586 11.3283 86.3327 11.269 86.3839 11.3162C86.4998 11.4213 86.1036 11.8485 86.0349 11.9779L85.0363 12.7972C87.4257 12.746 89.4714 14.4589 90.6722 16.3928C90.8245 16.6367 90.8366 16.944 90.9633 17.1542C91.0239 17.2539 91.2153 17.2459 91.2773 17.4076C91.3716 17.6555 91.319 17.8927 91.3743 18.0935C91.4053 18.2067 91.6021 18.169 91.633 18.2849C91.7314 18.6622 92.1452 20.0112 92.1411 20.2484C92.133 20.6824 92.0602 21.0516 91.5967 20.8589L90.2921 19.6716C92.7341 23.8507 90.3177 28.9031 89.6197 33.2816C89.8447 33.3396 89.6776 33.0471 89.8366 33.008C90.4444 32.8585 90.3945 33.2223 90.5266 33.2735C90.8164 33.3867 91.0792 33.3126 91.4403 33.5498C92.7974 34.4433 92.8338 37.4176 92.7031 38.8596C92.5521 40.5347 91.5239 43.1316 90.4848 44.4577C89.9161 45.1841 88.5698 46.4226 87.6346 46.7285C87.3448 46.8229 86.52 46.9051 86.4459 47.0223C86.2977 47.2568 86.3125 48.0708 86.2141 48.4077C86.0578 48.9454 85.6993 49.6664 85.5026 50.258C85.1859 51.2041 84.8786 51.8159 84.4608 52.7243C84.1495 53.4008 83.4851 54.7808 83.4204 55.4533C83.1859 57.9087 83.7088 60.6539 83.8422 63.1174C83.9285 63.3842 84.5255 63.3613 84.8422 63.4651C87.8246 64.4462 90.9323 66.0512 93.9295 67.1806C98.2837 68.8207 102.999 70.0888 107.142 72.2963C113.307 75.5819 115.074 80.6329 117.013 86.952C118.69 92.4168 119.997 98.0015 121.462 103.527C121.757 104.64 122.236 105.786 122.347 106.907C122.186 107.451 120.652 107.707 120.342 108.006C120.222 108.122 120.199 108.248 120.203 108.408C120.606 112.572 121.281 116.703 121.791 120.854C122.168 123.922 122.434 127.008 122.876 130.011C122.903 130.194 122.833 130.865 122.71 130.991C122.43 131.279 122.197 130.969 121.963 130.988C121.831 130.522 121.74 129.981 121.694 129.506C121.379 126.208 121.011 122.957 120.616 119.668C120.194 116.164 119.788 112.664 119.403 109.156C119.364 108.803 119.38 108.548 118.827 108.639C118.602 108.675 117.914 108.868 117.637 108.944C117.38 109.016 117.414 109.217 117.282 109.283C116.52 109.663 114.767 110.11 113.849 110.407C110.944 111.347 108.041 112.525 105.339 113.89C104.843 114.141 104.372 114.377 103.905 114.68C103.86 114.708 103.712 114.673 103.633 114.742C103.379 114.958 103.529 116.083 103.502 116.499C103.286 119.805 103.506 121.331 104.041 124.518C104.385 126.569 104.748 128.616 105.1 130.669C105.188 131.181 105.164 131.886 105.254 132.334C105.146 133.089 104.515 132.666 104.375 132.202L103.099 124.787C103.058 126.155 103.146 127.535 103.104 128.903C103.095 129.224 102.972 129.511 102.957 129.834C102.925 130.535 103.069 131.484 102.961 132.13C102.854 132.775 102.377 132.524 102.021 132.604C102.05 131.19 101.984 129.768 102.014 128.352C102.207 119.472 102.499 110.389 103.234 101.54C103.736 95.4867 104.266 89.0625 105.773 83.1907C106.076 82.0088 106.542 80.8539 106.739 79.6396C106.968 79.6572 107.162 79.5049 107.143 79.8418C107.08 80.9415 106.676 82.3767 106.48 83.4939C105.835 87.1892 105.212 90.9128 104.848 94.6647C104.74 95.7832 104.522 97.5487 104.703 98.5837C104.713 98.6497 104.463 98.62 104.438 98.7238C104.374 98.9933 104.581 99.2952 104.544 99.496C104.321 100.664 104.262 101.449 104.178 102.62C104.119 103.464 103.81 105.613 103.918 106.257C103.957 106.489 104.098 106.544 104.174 106.725C104.085 106.714 103.926 106.709 103.902 106.811C103.802 107.249 103.936 108.148 103.906 108.682C103.866 109.4 103.793 110.102 103.773 110.838C103.763 111.194 103.398 111.611 103.974 111.719C104.851 111.637 105.688 111.332 106.549 111.188C108.7 110.831 111.084 110.322 113.209 109.628C113.846 109.419 114.674 108.913 115.228 108.807C116.706 108.525 118.509 107.682 120.139 106.988C120.358 106.895 120.625 106.922 120.783 106.856C120.812 106.843 121.244 106.454 121.263 106.428C121.454 106.171 120.76 104.597 120.649 104.199C118.973 98.1861 117.612 91.9923 115.667 86.0019C115.014 83.9912 113.313 78.8459 111.993 77.412C111.531 76.9093 111.182 76.4888 110.708 76.0023C107.693 72.9027 103.677 71.7586 99.7271 70.2721C96.773 69.1603 93.8001 67.9824 90.8959 66.8396C89.8851 66.4421 88.8811 66.0162 87.869 65.6213C88.0038 65.9717 87.6386 66.0189 87.6049 66.1254C87.4607 66.5768 87.4513 67.3099 87.2882 67.8059C86.0564 71.5753 81.3235 74.656 77.7549 75.9269C77.2886 76.0926 76.1067 76.5657 76.2779 75.7301C77.0891 75.4228 78.0797 75.1951 78.8667 74.8811C81.3275 73.8986 84.5821 71.6615 85.9554 69.3018C86.5133 68.3409 87.1386 66.779 87.1898 65.6698C87.2168 65.0809 86.7653 65.248 86.4877 65.0742C86.3705 65.0014 86.3664 64.8518 86.2923 64.8127C86.0578 64.6888 85.0376 64.399 84.9029 64.5419C84.8463 64.6025 84.8436 65.8491 84.7344 66.1927C84.384 67.2938 83.5552 68.2007 82.8113 68.9864C78.4813 73.5523 72.1945 74.5037 66.2257 73.1803C64.6179 72.8246 62.5911 72.1049 61.0224 71.2694C60.2542 70.861 59.5373 70.3934 58.8297 69.795C57.5737 68.7344 56.439 67.3827 56.2126 65.6752C56.1816 65.4367 56.2369 64.5836 56.1991 64.5419C56.0495 64.3788 53.8286 65.3707 53.6992 65.6213C53.5618 65.8882 53.9364 67.562 54.0739 67.9474C55.1223 70.8826 57.6034 72.2451 59.8863 73.9943C60.0507 74.1197 60.2475 74.3771 60.1073 74.5132C59.8904 74.7261 58.2395 73.555 57.9619 73.3582C55.8689 71.8677 53.927 69.6333 53.1642 67.1051C52.9257 66.3154 53.2612 65.7628 52.1494 66.0863C51.3206 66.3275 50.3665 66.9178 49.535 67.2439C49.2937 67.3382 49.0538 67.3585 48.8005 67.3868C48.7291 67.9312 48.4636 68.3773 48.3908 68.9393C48.3692 69.1091 48.4919 69.2398 48.4986 69.3341C48.5027 69.3948 48.3018 69.3624 48.2237 69.5767C47.8814 70.5187 47.7857 71.7666 47.5054 72.7626C46.5378 76.1991 44.4786 78.4443 42.0406 80.9132C41.5892 81.37 40.8291 81.9293 40.5043 82.339C38.9963 84.2379 37.495 89.8333 36.8818 92.3278C36.6824 93.1378 35.8562 96.5056 36.0126 97.0581C36.0773 97.2859 36.4236 97.6942 36.5476 98.0055C36.7417 98.4907 38.0502 101.821 37.8683 102.007C37.8292 102.047 37.4505 102.035 37.402 101.868C36.898 100.849 36.6028 99.4286 36.1002 98.4529C36.0517 98.3586 35.7646 97.7562 35.5786 97.9651C35.5274 98.0217 35.4681 99.1941 35.4088 99.4798C35.0517 101.214 34.3361 102.888 34.4857 104.644C34.4911 104.711 34.293 104.683 34.2364 104.799C34.0477 105.187 33.8604 106.5 33.9574 106.903C33.9897 107.039 34.2606 107.046 34.3752 107.187C35.0584 108.033 35.9546 109.599 36.3778 110.601C36.4843 110.854 36.6392 112.227 37.0651 111.92C37.1891 111.831 37.4977 111.137 37.5718 110.939C38.1257 109.458 38.4572 107.866 38.9114 106.349C39.2914 105.075 39.4801 105.12 39.4814 103.698C39.4868 100.589 39.4208 97.5069 39.3602 94.3871C39.3345 93.0987 39.127 91.7942 39.2133 90.4789C39.2227 90.3333 39.3965 88.6676 39.7577 89.0705C39.8184 89.1393 39.7025 89.8414 39.7577 90.0611C39.7847 90.1689 40.034 90.1366 40.0353 90.2228C40.0758 95.3992 40.3655 100.697 40.5676 105.915C40.7213 109.87 40.8304 113.853 41.1067 117.774C41.1094 117.819 41.104 117.865 41.1067 117.909C41.1094 117.951 41.1121 118.002 41.1067 118.044C41.1 118.088 41.1121 118.134 41.1067 118.179C41.0474 118.634 41.0986 118.555 41.1067 118.852C41.1242 119.494 40.9949 122.3 41.1485 122.599C41.4288 123.142 41.2415 122.959 41.2374 123.63C41.2186 126.574 41.5097 129.524 41.3762 132.464L41.3735 132.468ZM63.4751 19.8037C61.3741 19.3051 59.6208 18.2175 57.8567 17.0585C57.7705 17.0019 57.8621 16.7944 57.7489 16.8389C57.6249 16.8874 57.5778 17.0545 57.5522 17.1812C57.4309 17.7836 57.1694 19.3226 57.1627 19.8751C57.1533 20.6541 58.3055 20.3845 58.8217 20.4816C60.3405 20.7659 61.9833 21.1972 63.3417 21.6891C63.3848 21.7052 63.4616 21.6689 63.4765 21.6891C63.8673 22.1998 64.2635 22.2349 64.812 22.5772C65.3605 22.9195 66.1906 23.7254 66.7108 23.8453C66.7364 23.9248 66.7176 24.0192 66.7782 24.1162C66.8389 24.2132 66.9386 24.2119 66.9804 24.2496C67.0046 24.2725 67.0895 24.2267 67.1151 24.2496C67.1771 24.3049 67.3159 24.4477 67.3847 24.5192C69.5584 26.7724 70.9115 29.0998 71.5624 32.2008C72.2767 35.6063 72.0368 38.1184 70.8886 41.3649C69.7404 44.6114 68.3146 45.9361 65.8308 48.1045C64.7406 49.0573 64.529 49.1018 63.3417 49.7203C63.0021 49.8969 62.7784 50.1381 62.4927 50.2863C60.5264 51.3011 58.5225 51.3106 56.4013 51.4723C56.2638 51.4831 55.559 51.5801 55.5253 51.6084C55.4512 51.669 55.9956 52.7216 56.0846 52.8738C56.16 53.0046 56.3164 53.0598 56.3339 53.0908C56.4457 53.2835 56.532 53.3806 56.6034 53.4951C56.6236 53.5275 56.5832 53.5975 56.6034 53.6299C56.6546 53.7107 56.7247 53.7444 56.7382 53.7647C56.7773 53.8253 56.7988 53.9264 56.8729 54.0342C57.2274 54.5517 57.5576 55.0934 57.9497 55.5853C58.4281 56.1837 58.9942 56.7955 59.5723 57.3319C60.8795 58.5475 62.3768 59.724 63.8457 60.6337C65.8214 61.8573 68.7768 62.3196 71.0975 62.2603C72.2025 62.232 73.3817 61.9139 74.4423 61.7104C74.5421 61.6916 74.5043 61.4827 74.6216 61.4503C75.1162 61.3102 75.3345 61.4193 75.8318 60.9989C76.8897 60.1013 78.1241 59.3911 79.2333 58.5394C80.1321 57.848 82.8302 54.5449 83.1523 53.4965C83.4824 53.5706 83.4285 53.3321 83.5309 53.1407C85.0983 50.2028 85.4743 48.025 85.9891 44.8108C86.012 44.6666 86.1656 44.141 86.3866 44.2637C87.1669 44.6976 85.9446 46.7016 87.6278 45.7704C87.8232 45.6625 87.9486 45.4361 88.1386 45.2758C88.1871 45.234 88.2262 45.1828 88.2733 45.141C88.2841 45.1316 88.3973 45.137 88.5429 45.0062C90.6048 43.1545 91.8325 40.4633 91.9214 37.6642C91.9471 36.861 91.4821 34.3719 90.6061 34.1158C90.4444 34.0686 89.1345 34.0174 89.0092 34.0767C88.0685 34.5242 87.6885 36.4863 87.2869 37.4863C87.1224 37.896 87.1669 38.2504 86.6562 38.5375C86.2128 36.7936 86.4702 34.9904 86.3853 33.2142C86.2357 30.0378 85.605 24.0677 84.3907 21.1931C83.8625 19.9425 83.4393 19.8886 82.2008 20.1379C80.8505 20.4102 79.9004 20.8104 78.4328 20.8845C77.4961 20.9317 76.5865 20.8737 75.6633 20.7767C75.228 20.7309 73.9531 20.7498 73.41 20.4735C73.3009 20.4182 73.3251 20.2201 73.2295 20.2134C71.9573 20.115 70.8535 19.7215 69.6379 19.2336C68.4628 18.762 67.3308 18.2243 66.3685 17.382C66.1839 17.3402 66.1138 17.3914 66.1704 17.5801C66.4656 18.576 68.0693 19.0585 68.3253 20.0759C66.413 20.2377 65.3726 20.2565 63.4738 19.8064L63.4751 19.8037ZM82.1213 18.3752C82.5391 18.1569 82.9824 17.9466 83.3503 17.6448C83.4757 17.5423 83.8059 17.2917 83.7587 17.1111C82.2102 18.1084 80.5486 17.824 78.8384 18.1879C79.2993 18.9641 81.2709 18.8725 81.9704 18.5827C82.093 18.5315 82.0889 18.3927 82.1213 18.3765V18.3752ZM45.9017 46.269C53.369 53.8859 66.4723 51.0033 70.0813 41.032C74.5165 28.7778 62.7353 16.7971 50.6239 22.3831C41.5137 26.5851 38.7308 38.9566 45.9017 46.269ZM47.8437 49.7217C47.8207 49.7567 47.8463 49.9912 47.779 50.1246C47.6186 50.4413 46.6025 52.3469 46.6321 52.4776C46.6483 52.5504 47.6873 53.1097 47.7695 53.0908C47.911 53.0571 49.0808 50.6179 49.0471 50.4764C49.0282 50.3969 47.9717 49.533 47.8437 49.7217ZM55.1709 53.1798C54.9957 52.8307 54.7207 51.6987 54.4485 51.537C54.2464 51.417 53.8852 51.4939 53.6264 51.4157C53.3677 51.3375 53.1238 51.1152 52.8906 51.0747C52.7329 51.0464 51.9473 51.0397 51.8974 51.0828C51.8516 51.1232 51.6063 52.0127 51.5039 52.2391C51.3637 52.5491 50.5403 54.0989 50.5497 54.239C50.5578 54.3603 51.9594 54.9155 52.2815 55.8603C52.6817 57.0381 51.7559 59.1054 51.3476 60.3035C51.1036 61.0191 49.0943 66.2049 49.3234 66.4313C49.3948 66.5013 49.7034 66.3814 49.8234 66.3262C51.0794 65.7453 52.3596 65.1806 53.6224 64.6039C54.4795 64.2117 55.3002 63.7144 56.1978 63.4017C56.4134 63.3263 57.0306 63.2966 57.1155 63.1726C57.3635 62.8101 57.2449 61.2374 57.2745 60.7051C57.3419 59.4949 57.6101 57.561 57.408 56.3953C57.3689 56.1702 56.2476 54.9196 56.0051 54.5638C55.7625 54.208 55.338 53.518 55.1695 53.1811L55.1709 53.1798ZM49.9986 56.0557C49.0498 54.8239 47.9501 54.2633 46.5903 53.4938C46.492 53.4385 46.5054 53.2633 46.3289 53.1852C45.8801 52.9857 44.3195 52.483 43.8532 52.4291C42.6889 52.2944 41.8681 52.4453 40.8992 53.0881C40.2995 53.4857 39.7752 54.1932 39.2914 54.5759C36.9128 56.4613 33.7526 58.1351 32.5464 61.0433C30.9737 64.8343 30.0708 69.605 28.936 73.6048C28.3741 75.5872 27.7865 78.1855 27.0116 80.0359C26.6046 81.0075 25.7124 82.2258 25.1747 83.1853C22.8608 87.3173 20.5725 91.3521 18.365 95.507C18.2815 95.6646 18.1319 95.6606 18.0672 95.7805C17.9365 96.0218 17.8057 96.8344 17.7653 96.8735C17.7047 96.9341 17.4432 96.8169 17.3772 96.9746C17.2424 97.3007 16.3813 99.4704 16.2734 99.5621C16.1966 99.6267 15.9851 99.5149 15.8961 99.6726C15.4702 100.427 15.0242 101.427 14.6482 102.179C12.6819 106.117 10.2265 112.33 10.7669 116.778C10.7993 117.048 11.0486 116.958 11.0365 117.028C10.744 118.648 12.2615 122.244 13.0148 123.831C13.2493 124.323 13.5417 124.453 13.7277 124.731C14.2614 125.529 14.2951 125.889 15.0309 126.665C15.6967 127.368 15.5039 127.061 16.2115 127.481C16.3017 127.535 16.3085 127.7 16.3988 127.751C18.0025 128.647 19.7113 128.322 21.3231 127.853C22.0643 127.638 23.2988 127.321 23.885 126.94C26.5453 125.207 27.7487 123.91 29.6449 121.386C29.7285 121.274 29.8969 121.242 29.9683 121.141C30.1098 120.941 30.4023 120.281 29.8659 120.493C29.5964 120.599 29.3093 121.183 28.839 121.083C29.9778 119.459 30.5559 117.424 31.0896 115.518C33.9129 105.446 34.4129 94.7846 38.1351 84.8969C38.6499 83.5303 38.9788 82.6786 39.9626 81.5358C40.2483 81.2029 40.8399 80.9873 41.1687 80.7205C42.767 79.4267 45.7844 75.3366 46.4219 73.4404C46.7237 72.5429 47.527 69.7479 47.5606 68.9123C47.5647 68.8031 47.4623 68.3476 47.4326 68.322C47.1712 68.0916 47.1685 68.5296 47.124 68.6131C46.5337 69.7142 46.7049 69.3543 45.7777 69.9406C45.116 70.3583 45.465 70.9944 45.4138 71.6224C45.3141 72.8609 44.2683 74.0348 43.4597 74.9256C43.329 75.0684 43.0649 75.1425 42.9112 75.3204C42.6686 75.5994 42.6336 76.0118 42.3479 76.2759C42.1687 76.4417 40.8453 77.2893 40.6283 77.3635C40.3278 77.4659 40.1324 77.3365 39.8601 77.3783C38.9046 77.5252 39.2914 78.1155 39.1796 78.8661C38.9451 80.4361 37.0705 83.5074 35.4412 83.8201C35.1474 83.8767 33.9709 84.1058 33.9614 83.6179C33.9587 83.4508 34.894 83.1368 35.0746 83.0155C36.2107 82.2554 37.2187 81.1288 37.8669 79.9119C38.0489 79.5709 38.2753 79.327 38.4127 78.9079C38.7699 77.8217 38.8912 77.3203 38.0017 76.5427C37.5085 76.1101 37.8683 76.2665 37.8454 75.8015C37.8198 75.2786 37.6378 74.6924 37.7281 74.121C37.1123 74.0401 36.5193 73.8515 35.9128 73.7127C35.7215 73.6682 35.4951 73.7167 35.4412 73.4445C35.991 73.2073 36.3832 73.4256 36.8562 73.4445C37.2039 73.4593 38.7753 73.4324 38.9451 73.5792C39.3521 73.9337 38.1836 74.09 38.1378 74.1197C38.0341 74.1884 38.2308 76.1856 38.9033 76.3824C40.4032 76.8204 42.0339 75.559 42.1781 74.0496C42.3223 72.5402 42.1835 70.6036 40.697 69.8705C39.2106 69.1374 36.9559 69.1549 35.3819 68.5835C35.1541 68.5013 34.9708 68.4002 34.7242 68.322C34.5598 68.2708 34.6137 67.9326 34.6299 67.9191C34.9681 67.6388 39.4666 68.4164 40.1849 68.6306C42.011 69.1738 42.7576 70.4823 42.9853 72.299C43.0204 72.5779 42.8614 73.5146 43.1915 73.5792C43.674 73.6736 44.4125 72.1103 44.5365 71.6925C44.9853 70.1818 44.8249 67.5283 44.1632 66.1995C44.1389 66.1523 43.9691 66.1523 43.9287 66.0741C43.7912 65.8167 43.8168 65.4515 43.5217 65.2925C41.8991 64.6173 40.4679 64.2629 38.7254 64.0244C37.7753 63.8936 36.5462 63.9475 35.6689 63.736C35.5436 63.7063 34.9601 62.9826 35.1703 62.7966C35.3643 62.6241 39.7132 63.1039 40.3439 63.2158C40.9234 63.3182 42.7765 63.7211 43.1808 64.019C43.4045 64.1847 43.3357 64.3761 43.4328 64.5055C43.6012 64.7332 44.4166 65.1982 44.6106 65.4529C45.2413 66.2817 45.1861 67.5849 45.4758 68.4608C45.81 69.4716 46.7992 67.9016 46.9933 67.4056C47.7682 65.4178 46.8356 60.8412 44.8613 59.7765C43.3748 58.9747 41.5528 59.1971 39.9585 59.2914C38.6985 59.3655 37.4397 59.4342 36.1851 59.5623C35.46 59.2361 35.9169 58.9275 36.4896 58.7874C37.6729 58.499 39.4275 58.2497 40.6404 58.0866C41.2927 57.999 42.6296 58.251 43.1188 57.871C43.2764 57.7483 43.3371 57.4707 43.5285 57.2686C44.7076 57.6675 45.8639 58.1742 47.0634 58.5178C48.2008 58.8426 49.7398 59.4625 50.671 58.4814C50.7128 58.437 50.7802 58.3938 50.8058 58.3467C51.2478 57.5219 50.4716 56.6715 49.9972 56.0557H49.9986ZM62.1275 61.9854C61.1679 61.1377 60.0992 60.3709 59.4321 59.2227L58.2193 58.2133C58.1842 59.0865 58.2624 59.9733 58.2246 60.8466C58.1869 61.7199 58.1344 63.3209 57.8406 64.1012C57.3756 65.3343 56.6721 64.9718 57.3446 66.5674C58.8837 70.2209 64.971 72.2518 68.797 72.6345C72.3616 72.9903 77.1188 72.0847 80.1739 70.1292C80.9192 69.6522 83.3167 67.3261 83.6819 66.6038C83.7789 66.4124 84.132 65.2116 84.1023 65.0405C84.0835 64.9286 83.7627 64.8896 83.6253 64.6793C82.7574 63.3451 82.6752 61.5918 82.6038 60.0393C82.5647 59.2105 82.6455 58.3682 82.6091 57.5408L81.9313 58.1418C81.1901 59.2564 80.0769 60.1808 79.0554 61.1902C78.8559 61.3883 78.7697 61.7347 78.5594 61.9126C77.4018 62.8991 75.728 64.0109 74.2537 64.5472C70.8764 65.775 68.2566 65.6537 65.0573 64.0001C64.8861 63.9112 64.7527 63.4799 64.281 63.6039C64.2365 63.5715 64.1988 63.5096 64.1463 63.4691C63.7595 63.1726 63.3835 62.8613 62.9334 62.6605C62.8875 62.6174 62.8458 62.5689 62.7986 62.5258C62.5857 62.329 62.3377 62.1754 62.1248 61.9867L62.1275 61.9854ZM47.9784 66.4326C48.2116 66.3504 48.3598 66.1119 48.4501 65.8949C48.8867 64.8586 49.2075 63.4193 49.5889 62.3169C49.8193 61.6498 50.3786 60.5986 50.4824 59.972C50.5592 59.5043 49.826 59.8278 49.5336 59.8358C49.1684 59.8439 47.9326 59.6202 47.8288 59.7725C47.752 59.8857 47.283 62.2333 47.2925 62.457C47.3167 63.0325 47.8814 64.1699 47.9636 64.8963C48.0215 65.403 47.9501 65.9259 47.9771 66.4326H47.9784ZM33.824 107.942C33.6259 107.783 33.5733 107.932 33.5612 108.145C33.4116 110.757 32.1556 115.216 31.3295 117.776C31.2149 118.129 30.5519 119.173 31.064 119.397C31.3578 118.79 31.7796 118.273 32.1286 117.696C32.8078 116.572 33.4803 115.26 34.1366 114.11C34.5342 113.415 35.2552 112.097 35.4156 111.35C35.615 110.419 34.7 109.531 34.2283 108.822C34.1151 108.652 33.8617 107.974 33.824 107.944V107.942Z" fill="#202020"/>
<path d="M82.435 28.2066C82.7934 28.3764 83.0913 28.9209 83.4807 29.0988C83.3931 29.4424 84.1411 30.3966 83.9605 30.5839C83.8473 30.7011 82.8473 30.0314 82.6142 29.9734C81.1722 29.6095 78.3004 29.4883 76.8179 29.7079C76.1212 29.8103 74.8018 30.4235 74.3207 30.3952C73.9717 30.375 73.4703 29.7753 73.4461 29.429C73.4084 28.8939 74.752 28.0139 75.2385 27.8603C77.5079 27.1433 80.2639 27.1838 82.435 28.208V28.2066Z" fill="#202020"/>
<path d="M72.504 36.5131C72.5741 37.1613 72.8692 37.8028 73.0431 38.3998C73.4339 39.7394 74.2479 41.6099 74.4958 42.8094C74.5605 43.1247 74.4689 43.4481 74.5241 43.7055C74.547 43.8107 74.7869 43.7999 74.7977 43.8578C74.8813 44.2783 74.5578 44.1476 74.5268 44.285C74.3799 44.9238 74.547 45.2742 73.9864 45.8807C73.7182 46.1718 72.3706 46.9534 71.9986 46.9965C71.6267 47.0396 71.2601 47.1205 70.9474 47.1555C70.6348 47.1906 69.8895 47.2175 69.6308 47.1582C69.5351 47.1367 69.5378 46.9709 69.4906 46.9453C69.3478 46.8671 68.8788 46.727 68.8828 46.5545C68.8828 46.5248 69.1834 46.0922 69.2305 46.0801C69.868 45.9224 70.7103 46.0168 71.3463 45.9346C72.0552 45.8429 73.3153 45.4049 73.6158 44.7001C74.07 43.6341 72.632 40.8809 72.3706 39.6141C72.1388 38.4942 72.1819 37.5926 72.2358 36.5145C72.3207 36.5279 72.4339 36.4942 72.5053 36.5145L72.504 36.5131Z" fill="#202020"/>
<path d="M78.9325 33.3232C79.7479 33.9337 79.923 35.5468 79.539 36.4726C79.1791 37.3419 78.1172 38.0696 77.1887 37.5885C76.969 37.4739 76.8922 37.044 76.7655 36.8298C76.7345 36.7772 76.5876 36.7624 76.5485 36.6883C76.0634 35.7826 76.2076 34.5644 76.8167 33.7504C77.2789 33.1318 78.2776 32.8326 78.9325 33.3232Z" fill="#202020"/>
<path d="M77.8935 48.3731C77.9434 48.423 77.9097 49.0011 77.7682 49.1224C77.1133 49.5806 76.4987 50.2868 75.7845 50.6426C75.368 50.8488 74.8775 50.9215 74.4233 51.1641C73.8317 51.4808 74.0204 51.3609 73.3021 51.5293C72.8601 51.6331 72.4045 52.0185 71.887 52.1344C70.7025 52.3986 67.8077 52.0792 66.5719 51.8137C66.0557 51.7032 64.9237 51.1507 64.8226 50.5941C64.8078 50.5105 64.8105 50.272 64.8226 50.2585C65.0086 50.0725 66.8293 50.8933 67.2484 50.9984C68.7928 51.3851 71.3601 51.4188 72.8789 50.9687C74.3977 50.5186 75.8707 49.7828 77.1186 48.7761C77.2372 48.6804 77.2777 48.485 77.3531 48.4405C77.4785 48.3677 77.8477 48.3246 77.8935 48.3704V48.3731Z" fill="#202020"/>
<path d="M90.8301 35.9751C91.0538 36.1826 90.0188 36.8497 89.9056 37.0033C89.8019 37.1435 89.3612 38.0585 89.2911 38.254C89.0876 38.8186 89.7102 40.0787 89.2857 40.8307C88.9421 41.4398 88.8032 40.1865 88.5418 40.1528C88.3882 40.6231 88.1442 41.1703 87.8976 41.5961C87.8302 41.712 87.8222 41.9438 87.5998 41.77C87.2615 41.5072 87.7143 40.045 87.8316 39.6461C88.0162 39.0194 88.4057 37.8241 88.6941 37.2742C88.7911 37.0882 89.4151 36.2136 89.5687 36.1274C89.7965 35.998 90.7264 35.8794 90.8328 35.9778L90.8301 35.9751Z" fill="#202020"/>
<path d="M73.044 53.8987C73.2408 54.0927 72.8338 54.4445 72.6855 54.5496C71.881 55.1264 69.9633 55.0765 69.059 54.7167C68.7328 54.5873 68.5765 54.1938 68.8002 54.1669C69.6358 54.0644 70.6411 54.2504 71.4942 54.1669C71.7907 54.1386 72.9092 53.7653 73.044 53.8973V53.8987Z" fill="#202020"/>
<path d="M73.043 38.4004C72.8691 37.8034 72.574 37.1619 72.5039 36.5137C72.9702 36.6471 73.047 37.9611 73.043 38.4004Z" fill="#B9B8B8"/>
<path d="M55.3592 22.4015C62.7377 21.7654 68.3628 26.6304 69.5056 33.7838C69.9678 36.6799 69.104 40.6649 67.4935 43.1595C61.8186 51.9502 48.1897 51.0096 44.1373 41.2283C40.7493 33.048 46.5361 23.1616 55.3592 22.4015ZM53.0965 24.3839C53.0547 24.3947 53.0035 24.3731 52.9618 24.3839C52.7637 24.4365 52.7071 24.5146 52.6922 24.5187C52.544 24.5631 52.4348 24.5901 52.2879 24.6534C51.9537 24.7963 51.5818 24.892 51.3446 25.1925C51.2287 25.2424 51.0885 25.2585 50.9403 25.3273C50.8796 25.3556 50.8419 25.4432 50.8055 25.462C50.7543 25.489 50.7166 25.5698 50.6707 25.5968C50.6034 25.6372 50.5239 25.6467 50.4012 25.7316C50.1789 25.8865 50.0697 25.9701 49.8622 26.1359C49.8123 26.1749 49.7759 26.2302 49.7274 26.2706C49.6789 26.3111 49.6398 26.365 49.5926 26.4054C49.4134 26.5604 49.3244 26.6803 49.1883 26.8097C49.1412 26.8542 49.0994 26.9 49.0536 26.9445C48.7086 27.2841 48.2261 27.6223 47.8434 28.0927C46.9593 29.1789 45.2639 31.8998 45.2801 33.2784C45.082 33.428 45.078 33.6827 45.0295 33.9038C44.14 37.9831 45.2828 43.3239 48.7166 45.9505C53.521 49.6255 62.0409 49.2657 65.7645 44.1945C66.2214 43.8036 66.6054 43.3939 66.8965 42.9047C69.0555 39.2701 69.5945 35.7783 68.1903 31.6613C67.2779 28.9862 66.2335 27.6938 64.1473 25.8663C64.1001 25.8246 64.0611 25.772 64.0125 25.7316C63.8117 25.5631 63.7322 25.5523 63.6082 25.462C63.301 25.2383 63.5584 25.2073 62.9344 25.0577C62.894 25.0483 62.8441 25.0658 62.7997 25.0577C62.7511 25.0496 62.6797 25.0726 62.6649 25.0577C62.642 25.0348 62.6878 24.9459 62.6649 24.923C61.3307 23.5457 57.1597 23.454 55.339 23.7289C54.6382 23.8341 53.6855 24.0039 53.0965 24.3839Z" fill="#202020"/>
<path d="M104.846 122.091C104.936 122.634 104.496 122.157 104.442 122.224C104.409 122.266 104.695 123.384 104.239 123.166C104.041 123.07 103.857 121.999 103.901 121.954C104.002 121.855 104.641 122.116 104.845 122.089L104.846 122.091Z" fill="#CAC9C9"/>
<path d="M104.173 121.281C104.351 121.459 103.937 122.08 103.77 121.617C103.627 121.219 104.072 121.181 104.173 121.281Z" fill="#CAC9C9"/>
<path d="M105.116 123.168C105.262 123.315 104.994 123.583 104.847 123.436C104.7 123.289 104.969 123.021 105.116 123.168Z" fill="#CAC9C9"/>
<path d="M69.0664 19.5332C69.154 19.5777 69.154 19.6235 69.0664 19.668V19.5332Z" fill="#CAC9C9"/>
<path d="M68.7969 19.3984C68.8845 19.4429 68.8845 19.4887 68.7969 19.5332V19.3984Z" fill="#CAC9C9"/>
<path d="M68.2578 19.1289C68.3454 19.1734 68.3454 19.2192 68.2578 19.2637V19.1289Z" fill="#CAC9C9"/>
<path d="M121.152 125.998C120.981 126.368 120.981 124.685 121.152 125.056C121.172 125.1 121.172 125.953 121.152 125.998Z" fill="#CAC9C9"/>
<path d="M53.0986 24.3844C55.527 23.7645 58.9528 23.4437 61.2451 24.5259L62.6669 24.9235C62.6898 24.9464 62.644 25.0353 62.6669 25.0582L62.733 25.1916L62.8017 25.0582C62.8462 25.0663 62.896 25.0488 62.9365 25.0582C62.8273 25.4976 63.3084 25.2429 63.6103 25.4625C63.7343 25.5528 63.8138 25.5636 64.0146 25.7321L64.1493 25.8668C66.2355 27.6942 67.2799 28.9866 68.1923 31.6617C67.6842 31.6361 68.0427 31.7561 68.1115 31.9447C69.1195 34.6657 68.7947 38.6359 67.6357 41.2813C67.1856 42.3082 66.3784 43.3607 65.7665 44.1963C62.043 49.2689 53.5244 49.6273 48.7187 45.9523C45.2849 43.3257 44.142 37.9849 45.0315 33.9056C45.08 33.6846 45.0841 33.4299 45.2822 33.2803C45.3078 35.4379 47.1689 37.6319 48.1136 39.4795C48.2524 39.5051 48.375 39.4741 48.4518 39.3474C48.6432 39.0307 48.4882 34.822 48.5165 34.0215C48.5866 32.0606 48.8157 30.0459 49.0556 28.0918V26.9463C49.1014 26.9018 49.1445 26.856 49.1904 26.8115L49.5947 26.4072C49.6418 26.3668 49.6809 26.3129 49.7294 26.2725L49.8642 26.1377C50.0717 25.9719 50.1809 25.8884 50.4032 25.7334L50.6728 25.5986C50.7186 25.5717 50.7563 25.4908 50.8075 25.4639L50.9423 25.3291C51.0906 25.2604 51.2307 25.2442 51.3466 25.1943C51.6768 25.0542 52.1323 25.1067 52.29 24.6553C52.4369 24.5919 52.546 24.565 52.6943 24.5205L52.9638 24.3857C53.0056 24.375 53.0568 24.3965 53.0986 24.3857V24.3844ZM64.6695 28.1767C64.6345 28.1268 64.3623 28.0904 64.2396 28.0055C61.9459 26.4369 59.1468 26.0959 56.4151 26.4194C54.8343 26.6053 52.7994 27.5891 51.852 28.864C51.6593 29.1241 51.4302 29.6403 51.4719 29.9596C51.5407 30.4839 53.6605 29.5082 54.0123 29.4085C56.4569 28.709 59.5727 28.5621 62.0227 29.2737C62.5955 29.4408 63.9041 30.2292 64.3528 29.7764C64.6022 29.5257 64.8474 28.426 64.6682 28.1767H64.6695ZM57.3612 37.6372C57.5027 37.8515 57.4582 38.0564 57.7439 38.2693C57.9393 38.4162 58.5337 38.652 58.787 38.6399C60.764 38.5496 61.7963 36.2074 61.1171 34.4918C60.7815 33.6441 59.6024 32.4703 58.6172 32.7978C58.4878 32.8409 57.6132 33.5471 57.4784 33.6832C56.6429 34.5255 56.5863 36.3934 57.1038 37.4243C57.182 37.5806 57.3221 37.5793 57.3612 37.6386V37.6372ZM66.9606 35.8583C66.9134 35.7896 66.3528 35.6575 66.3056 35.7047C66.28 35.7303 66.315 36.2505 66.2908 36.4311C65.807 40.032 63.3893 43.5238 60.0632 45.0278C59.7371 45.1747 58.3382 45.5763 58.2197 45.6787C57.7547 46.0763 59.6832 45.7933 59.8436 45.7515C62.6737 45.0184 65.4741 41.9551 66.4107 39.2463C66.5846 38.7437 67.1708 36.1643 66.9606 35.8583Z" fill="#2466A8" fill-opacity="0.3"/>
<path d="M49.0556 26.9449V28.0904C48.8157 30.0445 48.5853 32.0593 48.5165 34.0201C48.4882 34.822 48.6432 39.0307 48.4518 39.3461C48.375 39.4728 48.2524 39.5024 48.1136 39.4781C47.1689 37.6305 45.3078 35.4365 45.2822 33.2789C45.266 31.9003 46.9613 29.1794 47.8454 28.0931C48.2281 27.6228 48.7106 27.2845 49.0556 26.9449Z" fill="#2466A8" fill-opacity="0.3"/>
<path d="M62.6669 24.9235L61.2451 24.5259C58.9528 23.4437 55.5284 23.7645 53.0986 24.3844C53.6875 24.0044 54.6403 23.8345 55.3411 23.7294C57.1631 23.4559 61.3327 23.5462 62.6669 24.9235Z" fill="#2466A8" fill-opacity="0.3"/>
<path d="M68.1923 31.6617C69.5966 35.7788 69.0575 39.2706 66.8986 42.9052C66.6075 43.3944 66.222 43.8041 65.7665 44.1949C66.3797 43.3594 67.187 42.3069 67.6357 41.28C68.7947 38.6345 69.1195 34.6643 68.1115 31.9434C68.0414 31.7561 67.6842 31.6348 68.1923 31.6604V31.6617Z" fill="#2466A8" fill-opacity="0.3"/>
<path d="M62.9365 25.0582C62.8273 25.4976 63.3084 25.2429 63.6103 25.4625C63.303 25.2388 63.5604 25.2078 62.9365 25.0582Z" fill="#2466A8" fill-opacity="0.3"/>
<path d="M51.3438 25.1934C51.5809 24.8928 51.9529 24.7971 52.2871 24.6543C52.1294 25.1058 51.6739 25.0532 51.3438 25.1934Z" fill="#FCFCFC"/>
<path d="M50.6719 25.5977L50.4023 25.7324C50.525 25.6475 50.6045 25.6381 50.6719 25.5977Z" fill="#FCFCFC"/>
<path d="M52.9648 24.3848L52.6953 24.5195C52.7101 24.5155 52.7667 24.4373 52.9648 24.3848Z" fill="#FCFCFC"/>
<path d="M49.1875 26.8105C49.3236 26.6812 49.4126 26.5612 49.5918 26.4062L49.1875 26.8105Z" fill="#FCFCFC"/>
<path d="M49.7266 26.2715C49.7751 26.2311 49.8115 26.1758 49.8613 26.1367L49.7266 26.2715Z" fill="#FCFCFC"/>
<path d="M64.1504 25.8672L64.0156 25.7324C64.0641 25.7729 64.1032 25.8254 64.1504 25.8672Z" fill="#FCFCFC"/>
<path d="M50.8047 25.4629C50.8411 25.444 50.8788 25.3564 50.9395 25.3281L50.8047 25.4629Z" fill="#FCFCFC"/>
<path d="M62.6641 25.0584C62.6789 25.0732 62.7503 25.0503 62.7988 25.0584L62.7301 25.1918L62.6641 25.0584Z" fill="#FCFCFC"/>
<path d="M64.67 28.1764C64.8492 28.4257 64.604 29.5254 64.3547 29.7761C63.9045 30.2302 62.5973 29.4405 62.0246 29.2734C59.5745 28.5618 56.4587 28.7087 54.0141 29.4082C53.6624 29.5092 51.5425 30.4836 51.4738 29.9594C51.432 29.64 51.6597 29.1238 51.8538 28.8637C52.8012 27.5875 54.8362 26.605 56.417 26.4191C59.1487 26.097 61.9491 26.4366 64.2415 28.0053C64.3641 28.0902 64.6363 28.1265 64.6714 28.1764H64.67Z" fill="#202020"/>
<path d="M57.36 37.6368C57.3209 37.5775 57.1808 37.5789 57.1026 37.4225C56.5851 36.3916 56.6417 34.5237 57.4772 33.6814C57.612 33.5453 58.488 32.8392 58.616 32.796C59.5998 32.4699 60.7803 33.6437 61.1159 34.49C61.7951 36.207 60.7628 38.5478 58.7858 38.6381C58.5338 38.6503 57.9395 38.4144 57.7427 38.2675C57.4584 38.0546 57.5015 37.8497 57.36 37.6355V37.6368Z" fill="#202020"/>
<path d="M66.9615 35.8589C67.1704 36.1648 66.5855 38.7442 66.4116 39.2469C65.475 41.9557 62.6746 45.0189 59.8445 45.752C59.6841 45.7938 57.7556 46.0755 58.2206 45.6793C58.3405 45.5768 59.738 45.1766 60.0642 45.0283C63.3902 43.5244 65.8079 40.0326 66.2917 36.4317C66.3159 36.2511 66.2809 35.7309 66.3065 35.7053C66.3537 35.6581 66.9143 35.7902 66.9615 35.8589Z" fill="#FCFCFC"/>
</g>
</svg>
