<svg width="283" height="185" viewBox="0 0 283 185" fill="none" xmlns="http://www.w3.org/2000/svg">
<path d="M19.0366 181.81C12.3478 183.983 5.10348 180.33 3.54003 173.473C-0.460488 155.927 -1.08547 137.739 1.7421 119.888C4.56971 102.037 10.785 84.9322 20.0123 69.4813C23.6182 63.4433 31.6364 62.2077 37.3262 66.3413C43.0166 70.4753 44.2096 78.4109 40.7234 84.5197C33.7928 96.6641 29.097 109.993 26.8985 123.872C24.7001 137.752 25.0469 151.879 27.8851 165.571C29.3128 172.458 25.726 179.636 19.0366 181.81Z" fill="#E2E6E9"/>
<path d="M37.3902 66.2564C31.7032 62.1178 30.407 54.1081 35.0406 48.8165C46.896 35.2773 61.2529 24.0934 77.3645 15.9016C93.4767 7.7094 110.973 2.69785 128.899 1.09529C135.904 0.469072 141.612 6.23445 141.606 13.2672C141.601 20.3 135.878 25.9243 128.887 26.6887C114.985 28.2089 101.437 32.2336 88.9089 38.6033C76.3812 44.9729 65.1472 53.5486 55.7291 63.8852C50.9926 69.0837 43.0766 70.3947 37.3902 66.2564Z" fill="#E2E6E9"/>
<path d="M141.5 13.2672C141.5 6.23441 147.213 0.473742 154.217 1.10574C172.142 2.7231 189.634 7.7491 205.74 15.9546C221.844 24.1597 236.192 35.3555 248.036 48.9044C252.666 54.1999 251.363 62.2085 245.672 66.3425C239.983 70.476 232.068 69.1585 227.335 63.9561C217.926 53.6117 206.699 45.0267 194.177 38.6467C181.654 32.2667 168.109 28.2308 154.209 26.6992C147.218 25.929 141.5 20.3 141.5 13.2672Z" fill="#E2E6E9"/>
<path d="M245.707 66.3873C251.399 62.2562 259.417 63.4953 263.02 69.5349C272.24 84.99 278.448 102.097 281.268 119.95C284.087 137.802 283.454 155.99 279.446 173.534C277.88 180.39 270.634 184.04 263.946 181.864C257.257 179.687 253.674 172.507 255.104 165.621C257.949 151.931 258.302 137.803 256.109 123.923C253.917 110.043 249.227 96.7117 242.302 84.5642C238.819 78.4539 240.015 70.5188 245.707 66.3873Z" fill="#E2E6E9"/>
</svg>
