<svg width="240" height="157" viewBox="0 0 240 157" fill="none" xmlns="http://www.w3.org/2000/svg">
<path d="M9.67745 155.846C7.57643 156.529 5.31291 155.38 4.70063 153.258C-1.56688 131.53 -1.56688 108.47 4.70063 86.7425C5.31291 84.6199 7.57643 83.4714 9.67744 84.154L30.6007 90.9524C32.7017 91.6351 33.8423 93.8899 33.2537 96.0192C28.9154 111.711 28.9154 128.289 33.2537 143.981C33.8423 146.11 32.7017 148.365 30.6007 149.048L9.67745 155.846Z" fill="#C2CCD6" fill-opacity="0.5"/>
<path d="M9.69676 84.0946C7.59611 83.4108 6.44119 81.1506 7.19459 79.0739C14.9067 57.816 28.4709 39.1676 46.3201 25.2831C48.0638 23.9268 50.5699 24.3294 51.8675 26.1173L64.7892 43.9227C66.0867 45.7106 65.6828 48.205 63.9542 49.5807C51.2156 59.7189 41.4642 73.1254 35.7422 88.3673C34.9658 90.4355 32.717 91.5881 30.6163 90.9043L9.69676 84.0946Z" fill="#C2CCD6" fill-opacity="0.5"/>
<path d="M51.8169 26.154C50.5184 24.3668 50.9113 21.8591 52.7408 20.6209C71.4682 7.94597 93.3993 0.820126 116 0.0666498C118.208 -0.00695823 120 1.79086 120 4L120 26C120 28.2091 118.208 29.9907 116.001 30.0889C99.7365 30.8121 83.9701 35.9349 70.3868 44.9098C68.5437 46.1276 66.0467 45.7396 64.7482 43.9524L51.8169 26.154Z" fill="#C2CCD6" fill-opacity="0.5"/>
<path d="M120 4C120 1.79086 121.792 -0.00695988 124 0.0666461C146.601 0.820103 168.532 7.94596 187.259 20.6209C189.089 21.8592 189.482 24.3668 188.183 26.154L175.252 43.9524C173.953 45.7396 171.456 46.1277 169.613 44.9098C156.03 35.9348 140.263 30.812 123.999 30.0889C121.792 29.9907 120 28.2091 120 26L120 4Z" fill="#C2CCD6" fill-opacity="0.5"/>
<path d="M188.2 26.1665C189.499 24.3795 192.005 23.9786 193.748 25.3363C211.587 39.2336 225.138 57.8918 232.835 79.1552C233.587 81.2324 232.43 83.4918 230.329 84.1741L209.405 90.9687C207.303 91.651 205.056 90.4968 204.281 88.428C198.57 73.182 188.828 59.7685 176.097 49.6211C174.369 48.2442 173.967 45.7495 175.266 43.9625L188.2 26.1665Z" fill="#C2CCD6" fill-opacity="0.5"/>
<path d="M230.309 84.1118C232.41 83.4284 234.674 84.576 235.287 86.6984C241.562 108.424 241.571 131.483 235.312 153.213C234.701 155.336 232.438 156.486 230.336 155.804L209.41 149.013C207.309 148.332 206.168 146.077 206.755 143.948C211.088 128.254 211.081 111.676 206.737 95.986C206.148 93.857 207.287 91.6017 209.388 90.9182L230.309 84.1118Z" fill="#C2CCD6" fill-opacity="0.5"/>
</svg>
