<svg width="256" height="247" viewBox="0 0 256 247" fill="none" xmlns="http://www.w3.org/2000/svg">
<g opacity="0.5" filter="url(#filter0_f_17415_16283)">
<path d="M98.0156 36.1719H107.078V48.0156C105.88 48.4115 104.635 48.7292 103.344 48.9688C102.052 49.1979 100.589 49.3125 98.9531 49.3125C96.6823 49.3125 94.7552 48.8646 93.1719 47.9688C91.5885 47.0729 90.3854 45.75 89.5625 44C88.7396 42.25 88.3281 40.099 88.3281 37.5469C88.3281 35.151 88.7865 33.0781 89.7031 31.3281C90.6302 29.5781 91.9792 28.224 93.75 27.2656C95.5312 26.3073 97.7031 25.8281 100.266 25.8281C101.474 25.8281 102.667 25.9583 103.844 26.2188C105.021 26.4792 106.089 26.8177 107.047 27.2344L105.438 31.1094C104.74 30.7552 103.943 30.4583 103.047 30.2188C102.151 29.9792 101.214 29.8594 100.234 29.8594C98.8281 29.8594 97.6042 30.1823 96.5625 30.8281C95.5312 31.474 94.7292 32.3802 94.1562 33.5469C93.5938 34.7031 93.3125 36.0677 93.3125 37.6406C93.3125 39.1302 93.5156 40.4531 93.9219 41.6094C94.3281 42.7552 94.9688 43.6562 95.8438 44.3125C96.7188 44.9583 97.8594 45.2812 99.2656 45.2812C99.9531 45.2812 100.531 45.25 101 45.1875C101.479 45.1146 101.927 45.0417 102.344 44.9688V40.2031H98.0156V36.1719ZM128.031 40.2344C128.031 41.6927 127.833 42.9844 127.438 44.1094C127.052 45.2344 126.484 46.1875 125.734 46.9688C124.995 47.7396 124.099 48.3229 123.047 48.7188C122.005 49.1146 120.828 49.3125 119.516 49.3125C118.286 49.3125 117.156 49.1146 116.125 48.7188C115.104 48.3229 114.214 47.7396 113.453 46.9688C112.703 46.1875 112.12 45.2344 111.703 44.1094C111.297 42.9844 111.094 41.6927 111.094 40.2344C111.094 38.2969 111.438 36.6562 112.125 35.3125C112.812 33.9688 113.792 32.9479 115.062 32.25C116.333 31.5521 117.849 31.2031 119.609 31.2031C121.245 31.2031 122.693 31.5521 123.953 32.25C125.224 32.9479 126.219 33.9688 126.938 35.3125C127.667 36.6562 128.031 38.2969 128.031 40.2344ZM115.953 40.2344C115.953 41.3802 116.078 42.3438 116.328 43.125C116.578 43.9062 116.969 44.4948 117.5 44.8906C118.031 45.2865 118.724 45.4844 119.578 45.4844C120.422 45.4844 121.104 45.2865 121.625 44.8906C122.156 44.4948 122.542 43.9062 122.781 43.125C123.031 42.3438 123.156 41.3802 123.156 40.2344C123.156 39.0781 123.031 38.1198 122.781 37.3594C122.542 36.5885 122.156 36.0104 121.625 35.625C121.094 35.2396 120.401 35.0469 119.547 35.0469C118.286 35.0469 117.37 35.4792 116.797 36.3438C116.234 37.2083 115.953 38.5052 115.953 40.2344ZM147.844 40.2344C147.844 41.6927 147.646 42.9844 147.25 44.1094C146.865 45.2344 146.297 46.1875 145.547 46.9688C144.807 47.7396 143.911 48.3229 142.859 48.7188C141.818 49.1146 140.641 49.3125 139.328 49.3125C138.099 49.3125 136.969 49.1146 135.938 48.7188C134.917 48.3229 134.026 47.7396 133.266 46.9688C132.516 46.1875 131.932 45.2344 131.516 44.1094C131.109 42.9844 130.906 41.6927 130.906 40.2344C130.906 38.2969 131.25 36.6562 131.938 35.3125C132.625 33.9688 133.604 32.9479 134.875 32.25C136.146 31.5521 137.661 31.2031 139.422 31.2031C141.057 31.2031 142.505 31.5521 143.766 32.25C145.036 32.9479 146.031 33.9688 146.75 35.3125C147.479 36.6562 147.844 38.2969 147.844 40.2344ZM135.766 40.2344C135.766 41.3802 135.891 42.3438 136.141 43.125C136.391 43.9062 136.781 44.4948 137.312 44.8906C137.844 45.2865 138.536 45.4844 139.391 45.4844C140.234 45.4844 140.917 45.2865 141.438 44.8906C141.969 44.4948 142.354 43.9062 142.594 43.125C142.844 42.3438 142.969 41.3802 142.969 40.2344C142.969 39.0781 142.844 38.1198 142.594 37.3594C142.354 36.5885 141.969 36.0104 141.438 35.625C140.906 35.2396 140.214 35.0469 139.359 35.0469C138.099 35.0469 137.182 35.4792 136.609 36.3438C136.047 37.2083 135.766 38.5052 135.766 40.2344ZM157.312 49.3125C155.365 49.3125 153.776 48.5521 152.547 47.0312C151.328 45.5 150.719 43.2552 150.719 40.2969C150.719 37.3073 151.339 35.0469 152.578 33.5156C153.818 31.974 155.438 31.2031 157.438 31.2031C158.271 31.2031 159.005 31.3177 159.641 31.5469C160.276 31.776 160.823 32.0833 161.281 32.4688C161.75 32.8542 162.146 33.2865 162.469 33.7656H162.625C162.562 33.4323 162.484 32.9427 162.391 32.2969C162.307 31.6406 162.266 30.9688 162.266 30.2812V24.6875H167.047V49H163.391L162.469 46.7344H162.266C161.964 47.2135 161.583 47.651 161.125 48.0469C160.677 48.4323 160.141 48.7396 159.516 48.9688C158.891 49.1979 158.156 49.3125 157.312 49.3125ZM158.984 45.5156C160.286 45.5156 161.203 45.1302 161.734 44.3594C162.276 43.5781 162.562 42.4062 162.594 40.8438V40.3281C162.594 38.6302 162.333 37.3333 161.812 36.4375C161.292 35.5312 160.323 35.0781 158.906 35.0781C157.854 35.0781 157.031 35.5312 156.438 36.4375C155.844 37.3438 155.547 38.651 155.547 40.3594C155.547 42.0677 155.844 43.3542 156.438 44.2188C157.042 45.0833 157.891 45.5156 158.984 45.5156Z" fill="#6C8093"/>
<path d="M63.6201 44.8877C63.0687 44.8877 62.5719 44.9834 62.1299 45.1748C61.6924 45.3617 61.3187 45.6351 61.0088 45.9951C60.7035 46.3506 60.4688 46.7812 60.3047 47.2871C60.1406 47.793 60.0586 48.3626 60.0586 48.9961C60.0586 49.8346 60.1885 50.5638 60.4482 51.1836C60.7126 51.7988 61.1045 52.2751 61.624 52.6123C62.1481 52.9495 62.8021 53.1182 63.5859 53.1182C64.0326 53.1182 64.4518 53.0817 64.8438 53.0088C65.2402 52.9313 65.6253 52.8356 65.999 52.7217V53.7334C65.6344 53.8701 65.2516 53.9704 64.8506 54.0342C64.4495 54.1025 63.9733 54.1367 63.4219 54.1367C62.4056 54.1367 61.5557 53.9271 60.8721 53.5078C60.193 53.084 59.6826 52.487 59.3408 51.7168C59.0036 50.9466 58.835 50.0374 58.835 48.9893C58.835 48.2327 58.9398 47.5423 59.1494 46.918C59.3636 46.2891 59.6735 45.7467 60.0791 45.291C60.4893 44.8353 60.9906 44.4844 61.583 44.2383C62.18 43.9876 62.8636 43.8623 63.6338 43.8623C64.1396 43.8623 64.6273 43.9124 65.0967 44.0127C65.5661 44.113 65.9899 44.2565 66.3682 44.4434L65.9033 45.4277C65.5843 45.2819 65.2334 45.1566 64.8506 45.0518C64.4723 44.9424 64.0622 44.8877 63.6201 44.8877ZM74.7051 50.2402C74.7051 50.8555 74.6253 51.4046 74.4658 51.8877C74.3063 52.3708 74.0762 52.7786 73.7754 53.1113C73.4746 53.444 73.11 53.6992 72.6816 53.877C72.2578 54.0501 71.777 54.1367 71.2393 54.1367C70.738 54.1367 70.2777 54.0501 69.8584 53.877C69.4437 53.6992 69.0837 53.444 68.7783 53.1113C68.4775 52.7786 68.2428 52.3708 68.0742 51.8877C67.9102 51.4046 67.8281 50.8555 67.8281 50.2402C67.8281 49.4199 67.9671 48.7227 68.2451 48.1484C68.5231 47.5697 68.9196 47.1299 69.4346 46.8291C69.9541 46.5238 70.5716 46.3711 71.2871 46.3711C71.9707 46.3711 72.5677 46.5238 73.0781 46.8291C73.5931 47.1344 73.9919 47.5765 74.2744 48.1553C74.5615 48.7295 74.7051 49.4245 74.7051 50.2402ZM69.0039 50.2402C69.0039 50.8418 69.0837 51.3636 69.2432 51.8057C69.4027 52.2477 69.6488 52.5895 69.9814 52.8311C70.3141 53.0726 70.7425 53.1934 71.2666 53.1934C71.7861 53.1934 72.2122 53.0726 72.5449 52.8311C72.8822 52.5895 73.1305 52.2477 73.29 51.8057C73.4495 51.3636 73.5293 50.8418 73.5293 50.2402C73.5293 49.6432 73.4495 49.1283 73.29 48.6953C73.1305 48.2578 72.8844 47.9206 72.5518 47.6836C72.2191 47.4466 71.7884 47.3281 71.2598 47.3281C70.4805 47.3281 69.9085 47.5856 69.5439 48.1006C69.1839 48.6156 69.0039 49.3288 69.0039 50.2402ZM80.4648 46.3711C81.3535 46.3711 82.0257 46.5898 82.4814 47.0273C82.9372 47.4603 83.165 48.1576 83.165 49.1191V54H82.0439V49.1943C82.0439 48.57 81.9004 48.1029 81.6133 47.793C81.3307 47.4831 80.8955 47.3281 80.3076 47.3281C79.4782 47.3281 78.8949 47.5628 78.5576 48.0322C78.2204 48.5016 78.0518 49.1829 78.0518 50.0762V54H76.917V46.5078H77.833L78.0039 47.5879H78.0654C78.2249 47.3236 78.4277 47.1025 78.6738 46.9248C78.9199 46.7425 79.1956 46.6058 79.501 46.5146C79.8063 46.4189 80.1276 46.3711 80.4648 46.3711ZM89.0889 47.3965H87.2227V54H86.0879V47.3965H84.7617V46.8496L86.0879 46.4736V45.9746C86.0879 45.3457 86.1813 44.8353 86.3682 44.4434C86.555 44.0469 86.8262 43.7552 87.1816 43.5684C87.5371 43.3815 87.9701 43.2881 88.4805 43.2881C88.7676 43.2881 89.0296 43.3132 89.2666 43.3633C89.5081 43.4134 89.7201 43.4704 89.9023 43.5342L89.6084 44.4297C89.4535 44.3796 89.278 44.334 89.082 44.293C88.8906 44.2474 88.6947 44.2246 88.4941 44.2246C88.0612 44.2246 87.7399 44.3659 87.5303 44.6484C87.3252 44.9264 87.2227 45.3639 87.2227 45.9609V46.5078H89.0889V47.3965ZM91.5977 46.5078V54H90.4629V46.5078H91.5977ZM91.0439 43.7051C91.2308 43.7051 91.3903 43.7666 91.5225 43.8896C91.6592 44.0081 91.7275 44.195 91.7275 44.4502C91.7275 44.7008 91.6592 44.8877 91.5225 45.0107C91.3903 45.1338 91.2308 45.1953 91.0439 45.1953C90.848 45.1953 90.6839 45.1338 90.5518 45.0107C90.4242 44.8877 90.3604 44.7008 90.3604 44.4502C90.3604 44.195 90.4242 44.0081 90.5518 43.8896C90.6839 43.7666 90.848 43.7051 91.0439 43.7051ZM96.9131 54.1367C95.9652 54.1367 95.2132 53.8132 94.6572 53.166C94.1058 52.5189 93.8301 51.5573 93.8301 50.2812C93.8301 48.9915 94.1126 48.0186 94.6777 47.3623C95.2428 46.7015 95.9948 46.3711 96.9336 46.3711C97.3301 46.3711 97.6764 46.4235 97.9727 46.5283C98.2689 46.6331 98.5241 46.7744 98.7383 46.9521C98.9525 47.1253 99.1325 47.3236 99.2783 47.5469H99.3604C99.3421 47.4056 99.3239 47.2119 99.3057 46.9658C99.2874 46.7197 99.2783 46.5192 99.2783 46.3643V43.3633H100.413V54H99.4971L99.3262 52.9336H99.2783C99.137 53.1569 98.957 53.3597 98.7383 53.542C98.5241 53.7243 98.2666 53.8701 97.9658 53.9795C97.6696 54.0843 97.3187 54.1367 96.9131 54.1367ZM97.0908 53.1934C97.8929 53.1934 98.4603 52.9655 98.793 52.5098C99.1257 52.054 99.292 51.3773 99.292 50.4795V50.2744C99.292 49.3219 99.1325 48.5905 98.8135 48.0801C98.499 47.5697 97.9248 47.3145 97.0908 47.3145C96.3936 47.3145 95.8717 47.5833 95.5254 48.1211C95.179 48.6543 95.0059 49.3835 95.0059 50.3086C95.0059 51.2292 95.1768 51.9401 95.5186 52.4414C95.8649 52.9427 96.389 53.1934 97.0908 53.1934ZM105.954 46.3711C106.592 46.3711 107.139 46.5124 107.595 46.7949C108.05 47.0775 108.399 47.474 108.641 47.9844C108.882 48.4902 109.003 49.0827 109.003 49.7617V50.4658H103.828C103.842 51.3454 104.061 52.0153 104.484 52.4756C104.908 52.9359 105.505 53.166 106.275 53.166C106.749 53.166 107.169 53.1227 107.533 53.0361C107.898 52.9495 108.276 52.8219 108.668 52.6533V53.6514C108.29 53.82 107.914 53.943 107.54 54.0205C107.171 54.098 106.733 54.1367 106.228 54.1367C105.507 54.1367 104.879 53.9909 104.341 53.6992C103.808 53.403 103.393 52.9701 103.097 52.4004C102.8 51.8307 102.652 51.1335 102.652 50.3086C102.652 49.502 102.787 48.8047 103.056 48.2168C103.329 47.6243 103.712 47.1686 104.204 46.8496C104.701 46.5306 105.284 46.3711 105.954 46.3711ZM105.94 47.3008C105.334 47.3008 104.851 47.499 104.491 47.8955C104.131 48.292 103.917 48.8457 103.849 49.5566H107.813C107.809 49.11 107.738 48.7181 107.602 48.3809C107.469 48.0391 107.267 47.7747 106.993 47.5879C106.72 47.3965 106.369 47.3008 105.94 47.3008ZM114.729 46.3711C115.617 46.3711 116.289 46.5898 116.745 47.0273C117.201 47.4603 117.429 48.1576 117.429 49.1191V54H116.308V49.1943C116.308 48.57 116.164 48.1029 115.877 47.793C115.594 47.4831 115.159 47.3281 114.571 47.3281C113.742 47.3281 113.159 47.5628 112.821 48.0322C112.484 48.5016 112.315 49.1829 112.315 50.0762V54H111.181V46.5078H112.097L112.268 47.5879H112.329C112.489 47.3236 112.691 47.1025 112.938 46.9248C113.184 46.7425 113.459 46.6058 113.765 46.5146C114.07 46.4189 114.391 46.3711 114.729 46.3711ZM123.018 54.1367C122.343 54.1367 121.748 53.9977 121.233 53.7197C120.718 53.4417 120.317 53.0179 120.03 52.4482C119.743 51.8786 119.6 51.1608 119.6 50.2949C119.6 49.388 119.75 48.6475 120.051 48.0732C120.356 47.4945 120.775 47.0661 121.309 46.7881C121.842 46.5101 122.448 46.3711 123.127 46.3711C123.501 46.3711 123.861 46.4098 124.207 46.4873C124.558 46.5602 124.845 46.6536 125.068 46.7676L124.727 47.7178C124.499 47.6266 124.234 47.5446 123.934 47.4717C123.637 47.3988 123.359 47.3623 123.1 47.3623C122.58 47.3623 122.147 47.474 121.801 47.6973C121.459 47.9206 121.201 48.2487 121.028 48.6816C120.86 49.1146 120.775 49.6478 120.775 50.2812C120.775 50.8874 120.857 51.4046 121.021 51.833C121.19 52.2614 121.438 52.5895 121.767 52.8174C122.099 53.0407 122.514 53.1523 123.011 53.1523C123.407 53.1523 123.765 53.1113 124.084 53.0293C124.403 52.9427 124.692 52.8424 124.952 52.7285V53.7402C124.701 53.8678 124.421 53.9658 124.111 54.0342C123.806 54.1025 123.441 54.1367 123.018 54.1367ZM129.864 46.3711C130.502 46.3711 131.049 46.5124 131.505 46.7949C131.961 47.0775 132.309 47.474 132.551 47.9844C132.792 48.4902 132.913 49.0827 132.913 49.7617V50.4658H127.738C127.752 51.3454 127.971 52.0153 128.395 52.4756C128.818 52.9359 129.415 53.166 130.186 53.166C130.66 53.166 131.079 53.1227 131.443 53.0361C131.808 52.9495 132.186 52.8219 132.578 52.6533V53.6514C132.2 53.82 131.824 53.943 131.45 54.0205C131.081 54.098 130.644 54.1367 130.138 54.1367C129.418 54.1367 128.789 53.9909 128.251 53.6992C127.718 53.403 127.303 52.9701 127.007 52.4004C126.711 51.8307 126.562 51.1335 126.562 50.3086C126.562 49.502 126.697 48.8047 126.966 48.2168C127.239 47.6243 127.622 47.1686 128.114 46.8496C128.611 46.5306 129.194 46.3711 129.864 46.3711ZM129.851 47.3008C129.244 47.3008 128.761 47.499 128.401 47.8955C128.041 48.292 127.827 48.8457 127.759 49.5566H131.724C131.719 49.11 131.648 48.7181 131.512 48.3809C131.38 48.0391 131.177 47.7747 130.903 47.5879C130.63 47.3965 130.279 47.3008 129.851 47.3008ZM134.92 53.2891C134.92 52.9701 134.997 52.7445 135.152 52.6123C135.307 52.4756 135.496 52.4072 135.72 52.4072C135.952 52.4072 136.148 52.4756 136.308 52.6123C136.467 52.7445 136.547 52.9701 136.547 53.2891C136.547 53.6035 136.467 53.8337 136.308 53.9795C136.148 54.1208 135.952 54.1914 135.72 54.1914C135.496 54.1914 135.307 54.1208 135.152 53.9795C134.997 53.8337 134.92 53.6035 134.92 53.2891ZM134.92 47.2256C134.92 46.8975 134.997 46.6673 135.152 46.5352C135.307 46.3984 135.496 46.3301 135.72 46.3301C135.952 46.3301 136.148 46.3984 136.308 46.5352C136.467 46.6673 136.547 46.8975 136.547 47.2256C136.547 47.5355 136.467 47.7611 136.308 47.9023C136.148 48.0436 135.952 48.1143 135.72 48.1143C135.496 48.1143 135.307 48.0436 135.152 47.9023C134.997 47.7611 134.92 47.5355 134.92 47.2256Z" fill="#6C8093"/>
<path d="M145.979 43.3691C146.558 43.3691 147.08 43.4603 147.545 43.6426C148.01 43.8203 148.379 44.0869 148.652 44.4424C148.926 44.7979 149.062 45.2376 149.062 45.7617C149.062 46.1673 148.978 46.5205 148.81 46.8213C148.646 47.1221 148.422 47.3864 148.14 47.6143C147.857 47.8376 147.54 48.0358 147.189 48.209C147.581 48.4004 147.941 48.6214 148.27 48.8721C148.602 49.1182 148.869 49.4076 149.069 49.7402C149.274 50.0729 149.377 50.4626 149.377 50.9092C149.377 51.4697 149.233 51.9551 148.946 52.3652C148.664 52.7708 148.27 53.0853 147.764 53.3086C147.258 53.5273 146.668 53.6367 145.993 53.6367C145.269 53.6367 144.651 53.5296 144.141 53.3154C143.63 53.1012 143.243 52.7959 142.979 52.3994C142.714 51.9984 142.582 51.5199 142.582 50.9639C142.582 50.5036 142.673 50.1048 142.855 49.7676C143.038 49.4303 143.282 49.1387 143.587 48.8926C143.897 48.6465 144.236 48.4391 144.605 48.2705C144.291 48.0837 144.004 47.874 143.744 47.6416C143.484 47.4046 143.277 47.1335 143.122 46.8281C142.972 46.5182 142.896 46.1605 142.896 45.7549C142.896 45.2354 143.035 44.8001 143.313 44.4492C143.591 44.0938 143.963 43.8249 144.428 43.6426C144.897 43.4603 145.414 43.3691 145.979 43.3691ZM144.113 50.9023C144.113 51.3398 144.268 51.6999 144.578 51.9824C144.888 52.265 145.351 52.4062 145.966 52.4062C146.576 52.4062 147.041 52.2673 147.36 51.9893C147.679 51.7113 147.839 51.3444 147.839 50.8887C147.839 50.597 147.757 50.3395 147.593 50.1162C147.433 49.8929 147.217 49.6947 146.943 49.5215C146.674 49.3438 146.376 49.1797 146.048 49.0293L145.829 48.9404C145.474 49.0908 145.168 49.2617 144.913 49.4531C144.658 49.64 144.46 49.8519 144.318 50.0889C144.182 50.3258 144.113 50.597 144.113 50.9023ZM145.966 44.6064C145.524 44.6064 145.159 44.7158 144.872 44.9346C144.59 45.1488 144.448 45.4587 144.448 45.8643C144.448 46.1514 144.517 46.3975 144.653 46.6025C144.795 46.8076 144.984 46.9854 145.221 47.1357C145.458 47.2816 145.72 47.4183 146.007 47.5459C146.285 47.4229 146.535 47.2884 146.759 47.1426C146.987 46.9922 147.167 46.8145 147.299 46.6094C147.436 46.3997 147.504 46.1491 147.504 45.8574C147.504 45.4564 147.36 45.1488 147.073 44.9346C146.791 44.7158 146.422 44.6064 145.966 44.6064ZM157.106 45.7891C157.106 46.2402 157.015 46.6322 156.832 46.9648C156.65 47.2975 156.399 47.571 156.08 47.7852C155.766 47.9948 155.401 48.1452 154.987 48.2363V48.2842C155.784 48.3844 156.386 48.6351 156.791 49.0361C157.202 49.4372 157.407 49.9681 157.407 50.6289C157.407 51.2077 157.268 51.7249 156.99 52.1807C156.712 52.6318 156.286 52.9873 155.711 53.2471C155.137 53.5068 154.399 53.6367 153.496 53.6367C152.954 53.6367 152.451 53.5934 151.986 53.5068C151.525 53.4202 151.088 53.2812 150.673 53.0898V51.6611C151.097 51.8708 151.548 52.0326 152.027 52.1465C152.505 52.2604 152.959 52.3174 153.387 52.3174C154.221 52.3174 154.816 52.1624 155.171 51.8525C155.527 51.5381 155.704 51.1051 155.704 50.5537C155.704 50.1982 155.611 49.9066 155.424 49.6787C155.242 49.4508 154.957 49.2799 154.57 49.166C154.187 49.0521 153.692 48.9951 153.086 48.9951H152.204V47.7031H153.093C153.672 47.7031 154.137 47.6348 154.488 47.498C154.839 47.3568 155.092 47.1631 155.246 46.917C155.406 46.6709 155.486 46.3838 155.486 46.0557C155.486 45.6273 155.347 45.2946 155.069 45.0576C154.791 44.8161 154.378 44.6953 153.831 44.6953C153.494 44.6953 153.187 44.734 152.909 44.8115C152.635 44.889 152.382 44.987 152.15 45.1055C151.917 45.224 151.696 45.3516 151.487 45.4883L150.714 44.374C151.093 44.0915 151.544 43.8522 152.068 43.6562C152.592 43.4603 153.203 43.3623 153.9 43.3623C154.925 43.3623 155.716 43.5833 156.272 44.0254C156.828 44.4629 157.106 45.0508 157.106 45.7891Z" fill="#6C8093"/>
<path d="M161.742 43.3623C162.476 43.3623 163.032 43.6357 163.41 44.1826C163.788 44.7249 163.978 45.4928 163.978 46.4863C163.978 47.4753 163.795 48.2477 163.431 48.8037C163.071 49.3597 162.508 49.6377 161.742 49.6377C161.027 49.6377 160.482 49.3597 160.108 48.8037C159.735 48.2477 159.548 47.4753 159.548 46.4863C159.548 45.4928 159.723 44.7249 160.074 44.1826C160.43 43.6357 160.986 43.3623 161.742 43.3623ZM161.749 44.4834C161.453 44.4834 161.234 44.6497 161.093 44.9824C160.956 45.3151 160.888 45.8187 160.888 46.4932C160.888 47.1631 160.956 47.6689 161.093 48.0107C161.234 48.348 161.453 48.5166 161.749 48.5166C162.05 48.5166 162.273 48.348 162.419 48.0107C162.569 47.6735 162.645 47.1676 162.645 46.4932C162.645 45.8232 162.572 45.3219 162.426 44.9893C162.28 44.652 162.054 44.4834 161.749 44.4834ZM168.455 43.5059L162.911 53.5H161.592L167.136 43.5059H168.455ZM168.271 47.3613C169.004 47.3613 169.56 47.6348 169.938 48.1816C170.321 48.724 170.513 49.4919 170.513 50.4854C170.513 51.4697 170.33 52.2399 169.966 52.7959C169.606 53.3519 169.041 53.6299 168.271 53.6299C167.555 53.6299 167.01 53.3519 166.637 52.7959C166.263 52.2399 166.076 51.4697 166.076 50.4854C166.076 49.4919 166.252 48.724 166.603 48.1816C166.958 47.6348 167.514 47.3613 168.271 47.3613ZM168.277 48.4824C167.981 48.4824 167.762 48.6488 167.621 48.9814C167.484 49.3141 167.416 49.8177 167.416 50.4922C167.416 51.1621 167.484 51.668 167.621 52.0098C167.762 52.347 167.981 52.5156 168.277 52.5156C168.583 52.5156 168.808 52.3493 168.954 52.0166C169.1 51.6794 169.173 51.1712 169.173 50.4922C169.173 49.8223 169.1 49.321 168.954 48.9883C168.808 48.651 168.583 48.4824 168.277 48.4824Z" fill="#6C8093"/>
<path d="M181.668 47.9128C181.668 47.9128 184.317 49.7706 185.679 52.0698C185.679 52.0698 189.438 45.0342 195.177 41.3555" stroke="#6C8093" stroke-width="2.04082" stroke-linecap="round" stroke-linejoin="round"/>
<path d="M190.149 42.7645C190.536 42.2574 190.443 41.5256 189.894 41.2022C188.309 40.27 186.475 39.8286 184.625 39.9492C182.39 40.0949 180.283 41.0509 178.697 42.6397C177.111 44.2284 176.153 46.3417 176.002 48.5867C175.85 50.8317 176.515 53.0556 177.873 54.8451C179.231 56.6345 181.189 57.8677 183.384 58.3155C185.579 58.7632 187.861 58.3949 189.807 57.2792C191.752 56.1634 193.227 54.3761 193.959 52.2494C194.564 50.4903 194.627 48.5979 194.153 46.8166C193.988 46.1982 193.304 45.9138 192.712 46.1558C192.122 46.3968 191.849 47.069 191.987 47.6907C192.268 48.9454 192.198 50.2615 191.775 51.4909C191.226 53.0859 190.12 54.4264 188.661 55.2632C187.202 56.1 185.49 56.3762 183.844 56.0404C182.198 55.7047 180.729 54.7798 179.711 53.4377C178.692 52.0956 178.193 50.4276 178.307 48.7439C178.421 47.0601 179.139 45.4752 180.329 44.2836C181.518 43.0921 183.098 42.375 184.775 42.2657C186.062 42.1818 187.339 42.4607 188.465 43.0596C189.032 43.3609 189.759 43.2747 190.149 42.7645Z" fill="#668099" fill-opacity="0.3"/>
<path d="M190.149 42.7645C190.536 42.2574 190.443 41.5257 189.894 41.2022C189.075 40.7209 188.186 40.3677 187.257 40.1572C185.952 39.8615 184.598 39.854 183.29 40.1351C181.982 40.4162 180.75 40.9793 179.679 41.7855C178.916 42.3604 178.248 43.0491 177.697 43.8258C177.328 44.3454 177.543 45.0499 178.103 45.3536C178.666 45.659 179.363 45.4409 179.755 44.9348C180.132 44.4491 180.572 44.0144 181.065 43.643C181.868 43.0384 182.792 42.616 183.773 42.4052C184.755 42.1943 185.77 42.2 186.748 42.4217C187.348 42.5576 187.925 42.7725 188.465 43.0597C189.032 43.361 189.759 43.2747 190.149 42.7645Z" fill="#6C8093"/>
<path d="M33.3697 172.237C31.2688 172.919 29.0042 171.771 28.4031 169.645C21.9911 146.967 23.5134 122.774 32.7173 101.079C33.58 99.0452 35.9707 98.1896 37.9695 99.1301L54.1432 106.74C56.1422 107.681 56.9898 110.061 56.1533 112.105C49.7202 127.83 48.625 145.236 53.0364 161.643C53.6101 163.776 52.4709 166.031 50.3698 166.713L33.3697 172.237Z" fill="#B0AEAE"/>
<path d="M38.002 99.0622C36.0037 98.1201 35.1409 95.7318 36.1596 93.7714C47.0263 72.8597 64.7113 56.2788 86.2802 46.7801C88.3019 45.8898 90.6296 46.9043 91.4413 48.9589L98.0088 65.5817C98.8206 67.6364 97.8076 69.9507 95.7974 70.8671C80.3376 77.9145 67.6136 89.8442 59.5862 104.818C58.5424 106.765 56.1681 107.627 54.1699 106.685L38.002 99.0622Z" fill="#DCDBDB"/>
<path d="M91.4807 48.9438C90.6698 46.8888 91.6767 44.5575 93.7616 43.8266C116.002 36.0302 140.246 36.0587 162.468 43.9074C164.551 44.6432 165.553 46.9768 164.737 49.0299L158.137 65.6401C157.322 67.6931 154.999 68.6856 152.907 67.9768C136.814 62.5251 119.371 62.5046 103.266 67.9184C101.173 68.6223 98.852 67.6243 98.0412 65.5694L91.4807 48.9438Z" fill="#F3F5F6"/>
<path d="M164.78 49.0465C165.596 46.9939 167.926 45.9849 169.946 46.8801C191.492 56.4303 209.137 73.0533 219.954 93.9909C220.968 95.9537 220.1 98.34 218.099 99.2773L201.913 106.861C199.913 107.798 197.54 106.931 196.501 104.981C188.51 89.9886 175.814 78.0285 160.371 70.9442C158.363 70.023 157.356 67.7064 158.172 65.6536L164.78 49.0465Z" fill="#DBDCDB"/>
<path d="M218.178 99.4446C220.18 98.5111 222.568 99.375 223.423 101.412C232.551 123.139 233.989 147.337 227.498 169.992C226.89 172.116 224.621 173.257 222.522 172.567L205.542 166.984C203.443 166.294 202.312 164.035 202.893 161.904C207.361 145.513 206.327 128.103 199.949 112.356C199.119 110.309 199.975 107.932 201.978 106.998L218.178 99.4446Z" fill="#AEB0AF"/>
<path d="M188.966 75.8596L131.698 153.933C129.489 156.943 125.194 157.458 122.337 155.054C119.479 152.651 119.251 148.331 121.84 145.64L188.966 75.8596Z" fill="#656667"/>
<path d="M84.4844 203.086C84.4844 205.284 84.1823 207.143 83.5781 208.664C82.974 210.185 82.0312 211.336 80.75 212.117C79.4792 212.898 77.8333 213.289 75.8125 213.289C73.7917 213.289 72.1094 212.924 70.7656 212.195C69.4323 211.466 68.4323 210.419 67.7656 209.055C67.099 207.701 66.7656 206.076 66.7656 204.18C66.7656 202.992 66.901 201.763 67.1719 200.492C67.4531 199.211 67.8229 197.982 68.2812 196.805L71.8281 198.18C71.4948 199.117 71.1927 200.122 70.9219 201.195C70.651 202.268 70.5156 203.273 70.5156 204.211C70.5156 205.263 70.7031 206.154 71.0781 206.883C71.4635 207.622 72.0417 208.185 72.8125 208.57C73.5938 208.956 74.5938 209.148 75.8125 209.148C77.0104 209.148 77.9531 208.919 78.6406 208.461C79.3385 208.013 79.8333 207.357 80.125 206.492C80.4271 205.638 80.5781 204.596 80.5781 203.367V183.711H84.4844V203.086ZM93.7969 192.898C94.7552 192.898 95.6094 193.117 96.3594 193.555C97.1094 193.992 97.75 194.596 98.2812 195.367C98.8125 196.138 99.2344 197.034 99.5469 198.055C99.8594 199.076 100.047 200.169 100.109 201.336H101.422V205.539H99.8281C99.4635 207.049 98.849 208.362 97.9844 209.477C97.1198 210.602 95.9792 211.539 94.5625 212.289C93.1458 213.049 91.4115 213.628 89.3594 214.023L87.9375 210.18C89.3021 209.909 90.5417 209.555 91.6562 209.117C92.7812 208.69 93.724 208.174 94.4844 207.57C95.2448 206.966 95.7552 206.289 96.0156 205.539H94.3594C92.276 205.539 90.6927 205.107 89.6094 204.242C88.526 203.378 87.9844 201.997 87.9844 200.102C87.9844 199.331 88.1042 198.529 88.3438 197.695C88.5833 196.852 88.9427 196.07 89.4219 195.352C89.9115 194.622 90.5156 194.034 91.2344 193.586C91.9635 193.128 92.8177 192.898 93.7969 192.898ZM94.3125 201.336H96.4531C96.4115 200.794 96.3281 200.268 96.2031 199.758C96.0781 199.247 95.9062 198.784 95.6875 198.367C95.4792 197.951 95.2135 197.628 94.8906 197.398C94.5781 197.159 94.2031 197.039 93.7656 197.039C93.2448 197.039 92.8281 197.206 92.5156 197.539C92.2135 197.862 92 198.247 91.875 198.695C91.75 199.143 91.6875 199.56 91.6875 199.945C91.6875 200.529 91.9219 200.909 92.3906 201.086C92.8594 201.253 93.5 201.336 94.3125 201.336ZM100.797 201.336H101.547V205.539H100.797V201.336ZM104.016 207.492L106.719 210.195L104.016 212.898L101.312 210.195L104.016 207.492ZM105.609 195.086L109.266 194.648L109.578 198.961C109.609 199.503 109.719 199.951 109.906 200.305C110.104 200.659 110.391 200.919 110.766 201.086C111.141 201.253 111.62 201.336 112.203 201.336H112.531V205.539H112.172C111.464 205.539 110.828 205.451 110.266 205.273C109.703 205.096 109.208 204.852 108.781 204.539C108.354 204.227 107.984 203.862 107.672 203.445C107.057 204.112 106.307 204.628 105.422 204.992C104.547 205.357 103.615 205.539 102.625 205.539H101.125V201.336H102.625C103.802 201.336 104.62 201.122 105.078 200.695C105.536 200.268 105.766 199.513 105.766 198.43C105.766 197.846 105.75 197.279 105.719 196.727C105.698 196.164 105.661 195.617 105.609 195.086ZM121.688 180.898L124.266 183.461L121.688 186.055L119.109 183.461L121.688 180.898ZM116.406 180.898L119.016 183.461L116.406 186.055L113.859 183.461L116.406 180.898ZM119.531 195.883C119.948 195.883 120.365 195.857 120.781 195.805C121.198 195.753 121.609 195.68 122.016 195.586C121.953 195.18 121.854 194.758 121.719 194.32C121.594 193.872 121.427 193.461 121.219 193.086C121.01 192.711 120.76 192.409 120.469 192.18C120.177 191.94 119.828 191.82 119.422 191.82C118.953 191.82 118.557 191.961 118.234 192.242C117.911 192.523 117.672 192.872 117.516 193.289C117.359 193.695 117.281 194.107 117.281 194.523C117.281 195.107 117.495 195.482 117.922 195.648C118.349 195.805 118.885 195.883 119.531 195.883ZM117.844 201.336C118.792 201.336 119.578 201.289 120.203 201.195C120.828 201.102 121.302 200.909 121.625 200.617C121.958 200.315 122.125 199.846 122.125 199.211C121.729 199.305 121.312 199.378 120.875 199.43C120.438 199.471 119.995 199.492 119.547 199.492C117.724 199.492 116.292 199.112 115.25 198.352C114.208 197.591 113.688 196.372 113.688 194.695C113.688 193.602 113.922 192.523 114.391 191.461C114.859 190.388 115.526 189.508 116.391 188.82C117.255 188.122 118.276 187.773 119.453 187.773C120.589 187.773 121.557 188.055 122.359 188.617C123.172 189.18 123.833 189.935 124.344 190.883C124.854 191.831 125.229 192.898 125.469 194.086C125.719 195.263 125.844 196.466 125.844 197.695C125.844 199.299 125.682 200.617 125.359 201.648C125.036 202.669 124.542 203.466 123.875 204.039C123.219 204.602 122.375 204.992 121.344 205.211C120.312 205.43 119.083 205.539 117.656 205.539H111.906V201.336H117.844ZM145.625 213.289C143.604 213.289 141.922 212.924 140.578 212.195C139.245 211.477 138.245 210.435 137.578 209.07C136.911 207.716 136.578 206.086 136.578 204.18C136.578 202.992 136.714 201.763 136.984 200.492C137.266 199.211 137.635 197.982 138.094 196.805L141.641 198.18C141.307 199.117 141.005 200.122 140.734 201.195C140.464 202.268 140.328 203.273 140.328 204.211C140.328 205.263 140.516 206.159 140.891 206.898C141.276 207.638 141.854 208.195 142.625 208.57C143.406 208.956 144.406 209.148 145.625 209.148C146.812 209.148 147.755 208.919 148.453 208.461C149.151 208.013 149.646 207.357 149.938 206.492C150.24 205.638 150.391 204.596 150.391 203.367V183.711H154.297V197.867C154.297 198.909 154.458 199.747 154.781 200.383C155.115 201.018 155.802 201.336 156.844 201.336H157.328V205.539H156.875C156.24 205.539 155.724 205.471 155.328 205.336C154.943 205.19 154.568 204.977 154.203 204.695C154.12 206.049 153.891 207.258 153.516 208.32C153.151 209.383 152.62 210.284 151.922 211.023C151.224 211.763 150.354 212.326 149.312 212.711C148.271 213.096 147.042 213.289 145.625 213.289ZM156.703 201.336H157.453V205.539H156.703V201.336ZM159.922 207.492L162.625 210.195L159.922 212.898L157.219 210.195L159.922 207.492ZM159.531 205.539H157.031V201.336H159.531C160.375 201.336 160.948 201.081 161.25 200.57C161.562 200.06 161.719 199.409 161.719 198.617C161.719 197.919 161.635 197.159 161.469 196.336C161.312 195.503 161.151 194.685 160.984 193.883L164.812 192.898C165.01 193.846 165.167 194.789 165.281 195.727C165.396 196.654 165.453 197.539 165.453 198.383C165.453 199.747 165.271 200.971 164.906 202.055C164.542 203.128 163.927 203.977 163.062 204.602C162.198 205.227 161.021 205.539 159.531 205.539ZM168.953 183.711H172.875V198.117C172.875 199.294 173.052 200.128 173.406 200.617C173.771 201.096 174.469 201.336 175.5 201.336H175.891V205.539H175.5C173.24 205.539 171.583 204.951 170.531 203.773C169.479 202.596 168.953 200.81 168.953 198.414V183.711ZM185.062 180.898L187.641 183.461L185.062 186.055L182.484 183.461L185.062 180.898ZM179.781 180.898L182.391 183.461L179.781 186.055L177.234 183.461L179.781 180.898ZM182.906 195.883C183.323 195.883 183.74 195.857 184.156 195.805C184.573 195.753 184.984 195.68 185.391 195.586C185.328 195.18 185.229 194.758 185.094 194.32C184.969 193.872 184.802 193.461 184.594 193.086C184.385 192.711 184.135 192.409 183.844 192.18C183.552 191.94 183.203 191.82 182.797 191.82C182.328 191.82 181.932 191.961 181.609 192.242C181.286 192.523 181.047 192.872 180.891 193.289C180.734 193.695 180.656 194.107 180.656 194.523C180.656 195.107 180.87 195.482 181.297 195.648C181.724 195.805 182.26 195.883 182.906 195.883ZM181.219 201.336C182.167 201.336 182.953 201.289 183.578 201.195C184.203 201.102 184.677 200.909 185 200.617C185.333 200.315 185.5 199.846 185.5 199.211C185.104 199.305 184.688 199.378 184.25 199.43C183.812 199.471 183.37 199.492 182.922 199.492C181.099 199.492 179.667 199.112 178.625 198.352C177.583 197.591 177.062 196.372 177.062 194.695C177.062 193.602 177.297 192.523 177.766 191.461C178.234 190.388 178.901 189.508 179.766 188.82C180.63 188.122 181.651 187.773 182.828 187.773C183.964 187.773 184.932 188.055 185.734 188.617C186.547 189.18 187.208 189.935 187.719 190.883C188.229 191.831 188.604 192.898 188.844 194.086C189.094 195.263 189.219 196.466 189.219 197.695C189.219 199.299 189.057 200.617 188.734 201.648C188.411 202.669 187.917 203.466 187.25 204.039C186.594 204.602 185.75 204.992 184.719 205.211C183.688 205.43 182.458 205.539 181.031 205.539H175.281V201.336H181.219Z" fill="#6C8093"/>
</g>
<defs>
<filter id="filter0_f_17415_16283" x="0.5" y="-10" width="255" height="256.539" filterUnits="userSpaceOnUse" color-interpolation-filters="sRGB">
<feFlood flood-opacity="0" result="BackgroundImageFix"/>
<feBlend mode="normal" in="SourceGraphic" in2="BackgroundImageFix" result="shape"/>
<feGaussianBlur stdDeviation="12" result="effect1_foregroundBlur_17415_16283"/>
</filter>
</defs>
</svg>
