<svg width="24" height="32" viewBox="0 0 24 32" fill="none" xmlns="http://www.w3.org/2000/svg">
<g clip-path="url(#clip0_10704_7501)">
<path d="M19.1372 11.7598V31.9995L11.8069 29.3185L4.47656 31.9995V11.7598H19.1372Z" fill="#2D80D2"/>
<path d="M19.137 11.7598V31.9995L11.8066 29.3185V11.7598H19.137Z" fill="#2466A8"/>
<path d="M19.1372 11.7598V22.2111C17.0726 23.7394 14.5195 24.6424 11.7545 24.6424C9.03578 24.6424 6.52169 23.7698 4.47656 22.2867V11.7598H19.1372L19.1372 11.7598Z" fill="#1B4D7E"/>
<path d="M23.5087 11.7602C23.5087 18.2558 18.2466 23.5204 11.7544 23.5204C5.95391 23.5204 1.13525 19.3184 0.175405 13.7893C0.0596883 13.13 0 12.4524 0 11.7602C0 5.26468 5.26204 0 11.7543 0C13.0309 0 14.2599 0.20351 15.4098 0.580091C20.1127 2.11806 23.5087 6.54184 23.5087 11.7602Z" fill="#D5E6F6"/>
<path d="M15.4098 0.580091C13.8567 7.77758 7.6994 13.2604 0.175405 13.7893C0.0596883 13.13 0 12.4524 0 11.7602C0 5.26468 5.26204 0 11.7543 0C13.0309 0 14.2599 0.20351 15.4098 0.580091Z" fill="#EAF2FB"/>
<path d="M21.0277 11.7602C21.0277 16.8835 16.8753 21.038 11.7546 21.038C8.67043 21.038 5.93709 19.5305 4.2525 17.2126C3.13797 15.6819 2.48145 13.7978 2.48145 11.7602C2.48145 6.63689 6.63382 2.48242 11.7546 2.48242C14.9715 2.48242 17.8072 4.12276 19.4698 6.61251C20.454 8.08467 21.0277 9.85542 21.0277 11.7602Z" fill="#1B4D7E"/>
<path d="M21.0275 11.7602C21.0275 16.8835 16.8751 21.038 11.7543 21.038C8.67016 21.038 5.93682 19.5305 4.25223 17.2126C3.40324 15.9427 2.85999 14.4511 2.72721 12.8436C2.70528 12.5877 2.69434 12.3269 2.69434 12.0649C2.69434 6.94158 6.84671 2.78711 11.9675 2.78711C12.7531 2.78711 13.5144 2.8846 14.2428 3.06862C16.3757 3.60728 18.2137 4.88445 19.4696 6.61254C20.4537 8.08469 21.0275 9.85543 21.0275 11.7602Z" fill="#2466A8"/>
<path d="M14.2428 3.06862C12.1867 7.90921 7.92958 11.586 2.72721 12.8436C2.70528 12.5877 2.69434 12.3269 2.69434 12.0649C2.69434 6.94158 6.84671 2.78711 11.9675 2.78711C12.7531 2.78711 13.5144 2.8846 14.2428 3.06862Z" fill="#1B4D7E"/>
<path d="M11.9107 20.1195C16.3571 20.1195 19.9616 16.5133 19.9616 12.0647C19.9616 7.61606 16.3571 4.00977 11.9107 4.00977C7.46436 4.00977 3.85986 7.61606 3.85986 12.0647C3.85986 16.5133 7.46436 20.1195 11.9107 20.1195Z" fill="#1B4D7E"/>
<path d="M19.8048 11.7605C19.8048 16.2087 16.2005 19.816 11.7546 19.816C7.46088 19.816 3.9504 16.4512 3.71652 12.2127C3.70678 12.0628 3.70312 11.9129 3.70312 11.7605C3.70312 7.31236 7.30862 3.70508 11.7546 3.70508C12.3161 3.70508 12.8642 3.76236 13.3941 3.87204C17.0544 4.63006 19.8048 7.87418 19.8048 11.7605L19.8048 11.7605Z" fill="#D5E6F6"/>
<path d="M13.3941 3.87204C11.405 7.78277 7.93225 10.81 3.71652 12.2127C3.70678 12.0628 3.70312 11.9129 3.70312 11.7605C3.70312 7.31236 7.30862 3.70508 11.7546 3.70508C12.3161 3.70508 12.8642 3.76236 13.3941 3.87204Z" fill="#EAF2FB"/>
<path d="M16.6204 10.9166C16.699 10.841 16.7066 10.7332 16.6647 10.649C16.6644 10.6472 16.6646 10.6454 16.6641 10.6436C16.6641 10.6436 16.4945 10.2925 16.3397 10.4321C16.3165 10.453 16.3087 10.4745 16.31 10.4959L13.5936 10.0812C13.519 10.0698 13.4547 10.0224 13.4218 9.95443L12.1411 7.31103C12.0582 7.13988 11.8152 7.13814 11.7298 7.30809L10.4117 9.93298C10.3778 10.0005 10.3129 10.047 10.2381 10.0573L7.32961 10.459C7.1413 10.485 7.06453 10.7158 7.1997 10.8495L9.28756 12.9149C9.34124 12.968 9.36536 13.0441 9.35208 13.1185L8.86552 15.8402C8.78926 15.856 8.72228 15.8881 8.7317 15.9532C8.75257 16.0976 8.90977 16.2231 8.90977 16.2231C8.91035 16.223 8.91088 16.2225 8.91149 16.2224C8.97798 16.2801 9.0754 16.3013 9.16621 16.2544L11.7747 14.906C11.8418 14.8713 11.9216 14.8719 11.9881 14.9075L14.5772 16.2929C14.7448 16.3827 14.9425 16.2411 14.9117 16.0534L14.436 13.1547C14.4237 13.0801 14.4489 13.0044 14.5034 12.952L16.6204 10.9166L16.6204 10.9166Z" fill="#1B4D7E"/>
<path d="M14.3988 12.8081C14.3452 12.8605 14.3196 12.936 14.3318 13.0116L14.808 15.9096C14.8385 16.0973 14.6411 16.2386 14.473 16.1497L11.8834 14.764C11.8177 14.7287 11.7373 14.7275 11.6703 14.7628L9.06239 16.1107C8.89308 16.1984 8.69697 16.0534 8.73108 15.8669L9.24755 12.975C9.26095 12.9007 9.23658 12.8239 9.18298 12.7715L8.65435 12.2475H8.65312L7.09523 10.7058C6.96001 10.5718 7.03675 10.3415 7.22556 10.3159L10.1343 9.91371C10.2086 9.90274 10.2732 9.85644 10.3073 9.78939L11.6252 7.16438C11.7105 6.99498 11.9541 6.9962 12.0369 7.16681L12.7982 8.7389L13.3171 9.81134C13.35 9.87837 13.4145 9.9259 13.4889 9.93809L16.3915 10.3805C16.5803 10.4097 16.6534 10.6413 16.5157 10.7729L14.3988 12.8081V12.8081Z" fill="#2D80D2"/>
<path d="M12.7982 8.73889C12.071 10.4877 10.5326 11.8136 8.65435 12.2475H8.65312L7.09523 10.7058C6.96001 10.5718 7.03675 10.3415 7.22556 10.3159L10.1343 9.91371C10.2086 9.90274 10.2732 9.85643 10.3073 9.78939L11.6252 7.16438C11.7105 6.99498 11.9541 6.9962 12.0369 7.16681L12.7982 8.7389V8.73889Z" fill="#2466A8"/>
<circle cx="11.75" cy="11.75" r="11.25" stroke="#2466A8" stroke-opacity="0.5"/>
</g>
<defs>
<clipPath id="clip0_10704_7501">
<rect width="23.5087" height="32" fill="white"/>
</clipPath>
</defs>
</svg>
