<svg width="24" height="25" viewBox="0 0 24 25" fill="none" xmlns="http://www.w3.org/2000/svg">
<path d="M11.002 1.33899C11.1971 0.220339 12.8029 0.220336 12.998 1.33899L14.3847 9.29132C14.4582 9.71224 14.7878 10.0418 15.2087 10.1153L23.161 11.502C24.2797 11.6971 24.2797 13.3029 23.161 13.498L15.2087 14.8847C14.7878 14.9582 14.4582 15.2878 14.3847 15.7087L12.998 23.661C12.8029 24.7797 11.1971 24.7797 11.002 23.661L9.61525 15.7087C9.54185 15.2878 9.21224 14.9582 8.79132 14.8847L0.838989 13.498C-0.279661 13.3029 -0.279664 11.6971 0.838986 11.502L8.79132 10.1153C9.21224 10.0418 9.54185 9.71224 9.61525 9.29132L11.002 1.33899Z" fill="#2466A8"/>
</svg>
