<svg width="40" height="40" viewBox="0 0 40 40" fill="none" xmlns="http://www.w3.org/2000/svg">
<path d="M20.0007 36.6673C17.6951 36.6673 15.5284 36.2298 13.5007 35.3548C11.4729 34.4798 9.70899 33.2923 8.20898 31.7923C6.70898 30.2923 5.52148 28.5284 4.64648 26.5007C3.77148 24.4729 3.33398 22.3062 3.33398 20.0007C3.33398 17.6951 3.77148 15.5284 4.64648 13.5007C5.52148 11.4729 6.70898 9.70899 8.20898 8.20898C9.70899 6.70898 11.4729 5.52148 13.5007 4.64648C15.5284 3.77148 17.6951 3.33398 20.0007 3.33398C22.3062 3.33398 24.4729 3.77148 26.5007 4.64648C28.5284 5.52148 30.2923 6.70898 31.7923 8.20898C33.2923 9.70899 34.4798 11.4729 35.3548 13.5007C36.2298 15.5284 36.6673 17.6951 36.6673 20.0007C36.6673 22.3062 36.2298 24.4729 35.3548 26.5007C34.4798 28.5284 33.2923 30.2923 31.7923 31.7923C30.2923 33.2923 28.5284 34.4798 26.5007 35.3548C24.4729 36.2298 22.3062 36.6673 20.0007 36.6673ZM20.0007 33.334C23.7229 33.334 26.8757 32.0423 29.459 29.459C32.0423 26.8757 33.334 23.7229 33.334 20.0007C33.334 16.2784 32.0423 13.1257 29.459 10.5423C26.8757 7.95898 23.7229 6.66732 20.0007 6.66732C16.2784 6.66732 13.1257 7.95898 10.5423 10.5423C7.95898 13.1257 6.66732 16.2784 6.66732 20.0007C6.66732 23.7229 7.95898 26.8757 10.5423 29.459C13.1257 32.0423 16.2784 33.334 20.0007 33.334ZM20.0007 30.0007C17.2229 30.0007 14.8618 29.0284 12.9173 27.084C10.9729 25.1395 10.0007 22.7784 10.0007 20.0007C10.0007 17.2229 10.9729 14.8618 12.9173 12.9173C14.8618 10.9729 17.2229 10.0007 20.0007 10.0007C22.7784 10.0007 25.1395 10.9729 27.084 12.9173C29.0284 14.8618 30.0007 17.2229 30.0007 20.0007C30.0007 22.7784 29.0284 25.1395 27.084 27.084C25.1395 29.0284 22.7784 30.0007 20.0007 30.0007ZM20.0007 26.6673C21.834 26.6673 23.4034 26.0145 24.709 24.709C26.0145 23.4034 26.6673 21.834 26.6673 20.0007C26.6673 18.1673 26.0145 16.5979 24.709 15.2923C23.4034 13.9868 21.834 13.334 20.0007 13.334C18.1673 13.334 16.5979 13.9868 15.2923 15.2923C13.9868 16.5979 13.334 18.1673 13.334 20.0007C13.334 21.834 13.9868 23.4034 15.2923 24.709C16.5979 26.0145 18.1673 26.6673 20.0007 26.6673ZM20.0007 23.334C19.084 23.334 18.2993 23.0076 17.6465 22.3548C16.9937 21.702 16.6673 20.9173 16.6673 20.0007C16.6673 19.084 16.9937 18.2993 17.6465 17.6465C18.2993 16.9937 19.084 16.6673 20.0007 16.6673C20.9173 16.6673 21.702 16.9937 22.3548 17.6465C23.0076 18.2993 23.334 19.084 23.334 20.0007C23.334 20.9173 23.0076 21.702 22.3548 22.3548C21.702 23.0076 20.9173 23.334 20.0007 23.334Z" fill="#1B4D7E"/>
</svg>
